<svg width="241" height="331" viewBox="0 0 241 331" fill="none" xmlns="http://www.w3.org/2000/svg">
<path d="M82.5 277.146V257.347C83.2481 253.342 91.8948 245.332 120.497 245.332C149.099 245.332 157.745 253.342 158.494 257.347V276.473C157.449 277.597 155.541 279.065 152.735 280.545L149.99 322.067C148.292 324.768 140.017 330.17 120.497 330.17C100.976 330.17 92.3047 324.768 90.4089 322.067L87.8051 280.545C85.2461 279.291 83.4869 278.079 82.5 277.146Z" fill="#E6703F"/>
<path d="M158.494 257.347C158.494 264.143 141.482 269.652 120.497 269.652C99.5117 269.652 82.5 264.143 82.5 257.347M158.494 257.347V276.473C157.449 277.597 155.541 279.065 152.735 280.545M158.494 257.347C157.745 253.342 149.099 245.332 120.497 245.332C91.8948 245.332 83.2481 253.342 82.5 257.347M82.5 257.347V277.146C83.4869 278.079 85.2461 279.291 87.8051 280.545M87.8051 280.545C93.9548 283.559 104.724 286.812 120.497 286.996C135.889 287.175 146.516 283.827 152.735 280.545M87.8051 280.545L90.4089 322.067C92.3047 324.768 100.976 330.17 120.497 330.17C140.017 330.17 148.292 324.768 149.99 322.067L152.735 280.545" stroke="black" stroke-width="1.125"/>
<path d="M152.116 257.347C152.116 258.332 151.413 259.395 149.834 260.463C148.275 261.516 145.982 262.488 143.098 263.312C137.337 264.959 129.346 265.985 120.496 265.985C111.646 265.985 103.655 264.959 97.8941 263.312C95.0099 262.488 92.7167 261.516 91.1575 260.463C89.5787 259.395 88.876 258.332 88.876 257.347C88.876 256.363 89.5787 255.3 91.1575 254.232C92.7167 253.179 95.0099 252.207 97.8941 251.383C103.655 249.736 111.646 248.71 120.496 248.71C129.346 248.71 137.337 249.736 143.098 251.383C145.982 252.207 148.275 253.179 149.834 254.232C151.413 255.3 152.116 256.363 152.116 257.347Z" fill="#3A2314" stroke="black" stroke-width="1.125"/>
<path d="M102.504 213.802C102.43 211.069 101.939 211.091 106.938 207.315C113.187 202.594 115.617 204.008 120.304 204.008C124.991 204.008 127.726 204.542 129.958 206.281C132.189 208.021 135.09 209.578 137.768 209.578C140.446 209.578 146.026 209.33 148.034 213.802C150.043 218.274 154.73 221.256 154.953 225.728C155.1 228.671 156.406 235.379 157.283 240.614C159.917 241.66 162.779 249.678 163.881 253.556C163.94 253.649 164.004 253.752 164.071 253.862C166.269 257.151 172.447 259.022 176.778 259.022C181.242 259.022 181.762 262.68 183.994 266.655C186.226 270.63 182.655 274.787 183.994 280.253C185.333 285.719 180.982 285.359 173.17 285.359C165.359 285.359 169.907 287.347 161.872 287.347C153.837 287.347 156.962 285.359 151.828 285.359C147.722 285.359 145.356 283.702 144.687 282.874L106.938 253.556L102.504 213.802Z" fill="#E97EBD"/>
<path d="M151.828 261.01C153.912 257.448 158.078 249.63 158.078 246.847C158.078 245.658 157.738 243.335 157.283 240.614M163.881 253.556C165.889 257.034 172.314 259.022 176.778 259.022C181.242 259.022 181.762 262.68 183.994 266.655C186.226 270.63 182.655 274.787 183.994 280.253C185.333 285.719 180.982 285.359 173.17 285.359C165.359 285.359 169.907 287.347 161.872 287.347C153.837 287.347 156.962 285.359 151.828 285.359C147.722 285.359 145.356 283.702 144.687 282.874L106.938 253.556L102.504 213.802C102.43 211.069 101.939 211.091 106.938 207.315C113.187 202.594 115.617 204.008 120.304 204.008C124.991 204.008 127.726 204.542 129.958 206.281C132.189 208.021 135.09 209.578 137.768 209.578C140.446 209.578 146.026 209.33 148.034 213.802C150.043 218.274 154.73 221.256 154.953 225.728C155.1 228.671 156.406 235.379 157.283 240.614M163.881 253.556C164.659 254.782 166.238 257.591 166.332 259.022C166.45 260.811 165.509 264.985 161.872 266.655C158.962 267.991 156.047 272.097 154.953 273.983M163.881 253.556C162.779 249.678 159.917 241.66 157.283 240.614" stroke="black" stroke-width="1.125" stroke-linecap="round" stroke-linejoin="round"/>
<path d="M136.301 196.175C133.153 194.31 128.153 203.609 126.047 208.491C124.437 208.447 118.348 208.35 115.505 208.307C113.785 203.243 109.449 193.435 105.859 194.718C101.372 196.322 97.6152 209.922 100.043 215.135C97.8198 221.392 95.8047 235.198 105.528 240.366C110.971 242.145 130.832 242.731 134.679 240.914C137.543 239.561 138.666 237.482 140.046 235.693C144.284 230.204 142.781 221.186 141.004 216.301C142.117 206.975 140.237 198.506 136.301 196.175Z" fill="#CFBFA5" stroke="black" stroke-width="1.125"/>
<path d="M111.967 209.485C109.85 211.697 105.449 212.507 103.513 212.636C101.8 210.206 103.811 199.751 106.445 199.247C108.551 198.845 111.004 205.905 111.967 209.485Z" fill="#E7A7AB" stroke="black" stroke-width="1.125"/>
<path d="M129.184 209.879C131.095 212.271 135.407 213.47 137.324 213.771C139.246 211.503 138.175 200.911 135.597 200.175C133.535 199.586 130.462 206.399 129.184 209.879Z" fill="#E7A7AB" stroke="black" stroke-width="1.125"/>
<path d="M115.141 224.5C115.141 226.392 113.608 227.926 111.716 227.926C109.824 227.926 108.29 226.392 108.29 224.5C108.29 222.608 109.824 221.074 111.716 221.074C113.608 221.074 115.141 222.608 115.141 224.5Z" fill="white" stroke="black" stroke-width="1.125"/>
<ellipse cx="111.715" cy="224.501" rx="1.23108" ry="1.23108" fill="black"/>
<path d="M132.178 224.5C132.178 226.392 130.645 227.926 128.753 227.926C126.861 227.926 125.327 226.392 125.327 224.5C125.327 222.608 126.861 221.074 128.753 221.074C130.645 221.074 132.178 222.608 132.178 224.5Z" fill="white" stroke="black" stroke-width="1.125"/>
<ellipse cx="128.754" cy="224.501" rx="1.23108" ry="1.23108" fill="black"/>
<path d="M119.84 232.963C119.116 232.896 118.463 231.647 118.204 230.952C119.391 230.427 121.379 230.838 122.225 231.109C121.872 231.588 120.958 232.621 120.125 232.925C120.03 232.96 119.934 232.972 119.84 232.963Z" fill="#E7A7AB"/>
<path d="M120.125 232.925C119.292 233.23 118.497 231.737 118.204 230.952C119.391 230.427 121.379 230.838 122.225 231.109C121.872 231.588 120.958 232.621 120.125 232.925ZM120.125 232.925C119.943 232.514 118.202 234.664 117.354 235.79M120.125 232.925C120.955 233.268 122.057 234.916 122.504 235.697" stroke="black" stroke-width="1.125" stroke-linecap="round" stroke-linejoin="round"/>
<path d="M146.465 264.514C157.983 273.729 154.24 280.927 150.784 285.535C149.765 286.893 146.654 286.781 142.695 285.895C142.617 285.878 142.539 285.86 142.461 285.842C141.333 285.61 138.416 285.289 133.98 285.535C127.995 285.866 127.728 284.088 125.068 284.088C122.408 284.088 118.95 284.088 116.29 282.883C114.162 281.92 112.291 284.249 111.622 285.535C111.622 287.804 111.236 290.598 103.522 290.598C95.8075 290.598 91.5514 292.309 91.5514 285.535C91.5514 285.025 91.5785 284.543 91.6255 284.088C89.2375 281.115 84.1424 280.919 81.8934 281.192C80.2891 283.359 78.9918 285.535 76.522 285.535C71.6009 285.535 53.1135 277.829 56.7045 268.519C60.2956 259.209 66.4266 252.669 89.0244 244.966C88.925 243.218 88.9183 241.37 89.0244 239.391C89.3436 233.433 91.9948 232.83 93.2805 233.273C93.0677 228.059 96.9602 225.749 98.2016 224.464C98.2016 228.986 114.214 238.919 121.125 244.966C128.036 251.013 134.947 255.299 146.465 264.514Z" fill="#E97EBD"/>
<path d="M93.2805 233.273C93.0677 228.059 96.9602 225.749 98.2016 224.464C98.2016 228.986 114.214 238.919 121.125 244.966C128.036 251.013 134.947 255.299 146.465 264.514C157.983 273.729 154.24 280.927 150.784 285.535C149.765 286.893 146.654 286.781 142.695 285.895M93.2805 233.273C93.4933 238.487 97.5366 250.608 99.5316 256.017M93.2805 233.273C91.9948 232.83 89.3436 233.433 89.0244 239.391C88.9183 241.37 88.925 243.218 89.0244 244.966M98.2016 273.839C96.5612 270.337 92.9347 262.241 91.5514 257.879C90.2818 253.874 89.299 249.798 89.0244 244.966M111.622 285.535C111.622 283.265 108.709 282.085 110.438 278.76C111.821 276.1 118.139 277.177 121.125 278.048C126.64 280.593 135.912 284.378 142.695 285.895M111.622 285.535C111.622 287.804 111.236 290.598 103.522 290.598C95.8075 290.598 91.5514 292.309 91.5514 285.535C91.5514 285.025 91.5785 284.543 91.6255 284.088M111.622 285.535C112.291 284.249 114.162 281.92 116.29 282.883C118.95 284.088 122.408 284.088 125.068 284.088C127.728 284.088 127.995 285.866 133.98 285.535C138.767 285.27 141.784 285.665 142.695 285.895M89.0244 244.966C66.4266 252.669 60.2956 259.209 56.7045 268.519C53.1135 277.829 71.6009 285.535 76.522 285.535C78.9918 285.535 80.2891 283.359 81.8934 281.192M81.8934 281.192C83.4857 279.041 85.3805 276.898 89.0244 276.898C95.7893 276.898 92.2033 278.491 91.6255 284.088M81.8934 281.192C84.1424 280.919 89.2375 281.115 91.6255 284.088" stroke="black" stroke-width="1.125" stroke-linecap="round" stroke-linejoin="round"/>
<path d="M121.953 212.28C121.58 212.487 120.725 212.658 119.702 212.119L120.031 199.335C116.738 201.882 109.242 204.685 105.596 195.524C107.995 192.651 114.239 188.469 120.014 194.722C120.368 193.991 121.344 192.977 122.413 194.772C124.283 192.227 129.553 188.942 135.677 196.162C134.139 199.758 129.335 205.438 122.43 199.386L121.953 212.28Z" fill="#448E60"/>
<path d="M122.413 194.772C121.344 192.977 120.368 193.991 120.014 194.722M122.413 194.772C124.283 192.227 129.553 188.942 135.677 196.162C134.139 199.758 129.335 205.438 122.43 199.386M122.413 194.772L122.424 197.826M120.014 194.722C114.239 188.469 107.995 192.651 105.596 195.524C109.242 204.685 116.738 201.882 120.031 199.335M120.014 194.722L120.023 197.028M122.43 199.386L121.953 212.28C121.58 212.487 120.725 212.658 119.702 212.119L120.031 199.335M122.43 199.386L122.424 197.826M122.424 197.826C123.226 196.546 126.391 194.408 132.632 196.097M120.031 199.335L120.023 197.028M108.718 196.328C110.424 195.009 115.075 193.302 120.023 197.028" stroke="black" stroke-width="1.125" stroke-linecap="round" stroke-linejoin="round"/>
</svg>
