<svg width="241" height="331" viewBox="0 0 241 331" fill="none" xmlns="http://www.w3.org/2000/svg">
<path d="M82.5 276.976V257.177C83.2481 253.172 91.8948 245.163 120.497 245.163C149.099 245.163 157.745 253.172 158.494 257.177V276.304C157.449 277.428 155.541 278.895 152.735 280.376L149.99 321.897C148.292 324.598 140.017 330 120.497 330C100.976 330 92.3047 324.598 90.4089 321.897L87.8051 280.376C85.2461 279.122 83.4869 277.909 82.5 276.976Z" fill="#E6703F"/>
<path d="M158.494 257.177C158.494 263.973 141.482 269.482 120.497 269.482C99.5117 269.482 82.5 263.973 82.5 257.177M158.494 257.177V276.304C157.449 277.428 155.541 278.895 152.735 280.376M158.494 257.177C157.745 253.172 149.099 245.163 120.497 245.163C91.8948 245.163 83.2481 253.172 82.5 257.177M82.5 257.177V276.976C83.4869 277.909 85.2461 279.122 87.8051 280.376M87.8051 280.376C93.9548 283.39 104.724 286.643 120.497 286.826C135.889 287.005 146.516 283.658 152.735 280.376M87.8051 280.376L90.4089 321.897C92.3047 324.598 100.976 330 120.497 330C140.017 330 148.292 324.598 149.99 321.897L152.735 280.376" stroke="black" stroke-width="1.125"/>
<path d="M152.117 257.178C152.117 258.163 151.414 259.226 149.835 260.293C148.276 261.346 145.983 262.318 143.099 263.142C137.338 264.789 129.347 265.815 120.497 265.815C111.647 265.815 103.656 264.789 97.8951 263.142C95.0109 262.318 92.7177 261.346 91.1585 260.293C89.5797 259.226 88.877 258.163 88.877 257.178C88.877 256.193 89.5797 255.13 91.1585 254.063C92.7177 253.009 95.0109 252.038 97.8951 251.213C103.656 249.566 111.647 248.54 120.497 248.54C129.347 248.54 137.338 249.566 143.099 251.213C145.983 252.038 148.276 253.009 149.835 254.063C151.414 255.13 152.117 256.193 152.117 257.178Z" fill="#3A2314" stroke="black" stroke-width="1.125"/>
<path d="M123.557 251.815C122.852 252.226 121.229 252.588 119.256 251.601L119.365 227.196C113.186 232.188 98.997 237.84 91.6699 220.508C96.132 214.931 107.874 206.699 119.147 218.395C119.792 216.985 121.613 215.013 123.726 218.395C127.19 213.463 137.112 206.981 149.089 220.508C146.299 227.433 137.365 238.464 123.945 227.196L123.557 251.815Z" fill="#448E60"/>
<path d="M123.726 218.395C121.613 215.013 119.792 216.985 119.147 218.395M123.726 218.395C127.19 213.463 137.112 206.981 149.089 220.508C146.299 227.433 137.365 238.464 123.945 227.196M123.726 218.395L123.871 224.221M119.147 218.395C107.874 206.699 96.132 214.931 91.6699 220.508C98.997 237.84 113.186 232.188 119.365 227.196M119.147 218.395L119.256 222.795M123.945 227.196L123.557 251.815C122.852 252.226 121.229 252.588 119.256 251.601L119.365 227.196M123.945 227.196L123.871 224.221M123.871 224.221C125.349 221.746 131.3 217.538 143.277 220.508M119.365 227.196L119.256 222.795M97.6584 221.917C100.861 219.331 109.665 215.886 119.256 222.795" stroke="black" stroke-width="1.125" stroke-linecap="round" stroke-linejoin="round"/>
<path d="M137.702 237.115C134.39 235.153 129.129 244.936 126.913 250.073C125.22 250.027 118.813 249.925 115.822 249.88C114.013 244.552 109.45 234.232 105.674 235.583C100.953 237.27 97 251.579 99.5541 257.063C104.027 258.224 114.662 260.547 121.421 260.547C128.18 260.547 138.389 259.042 142.649 258.29C143.82 248.478 141.842 239.568 137.702 237.115Z" fill="#CFBFA5" stroke="black" stroke-width="1.125"/>
<path d="M112.1 251.118C109.873 253.445 105.242 254.298 103.205 254.433C101.403 251.876 103.519 240.877 106.29 240.347C108.506 239.923 111.087 247.351 112.1 251.118Z" fill="#E7A7AB" stroke="black" stroke-width="1.125"/>
<path d="M130.213 251.533C132.224 254.049 136.761 255.311 138.777 255.628C140.8 253.242 139.673 242.098 136.961 241.323C134.791 240.703 131.558 247.872 130.213 251.533Z" fill="#E7A7AB" stroke="black" stroke-width="1.125"/>
</svg>
