<svg width="240" height="331" viewBox="0 0 240 331" fill="none" xmlns="http://www.w3.org/2000/svg">
<path d="M82 276.976V257.177C82.7481 253.172 91.3948 245.163 119.997 245.163C148.599 245.163 157.245 253.172 157.994 257.177V276.304C156.949 277.428 155.041 278.895 152.235 280.376L149.49 321.897C147.792 324.598 139.517 330 119.997 330C100.476 330 91.8047 324.598 89.9089 321.897L87.3051 280.376C84.7461 279.122 82.9869 277.909 82 276.976Z" fill="#E6703F"/>
<path d="M157.994 257.177C157.994 263.973 140.982 269.482 119.997 269.482C99.0117 269.482 82 263.973 82 257.177M157.994 257.177V276.304C156.949 277.428 155.041 278.895 152.235 280.376M157.994 257.177C157.245 253.172 148.599 245.163 119.997 245.163C91.3948 245.163 82.7481 253.172 82 257.177M82 257.177V276.976C82.9869 277.909 84.7461 279.122 87.3051 280.376M87.3051 280.376C93.4548 283.39 104.224 286.643 119.997 286.826C135.389 287.005 146.016 283.658 152.235 280.376M87.3051 280.376L89.9089 321.897C91.8047 324.598 100.476 330 119.997 330C139.517 330 147.792 324.598 149.49 321.897L152.235 280.376" stroke="black" stroke-width="1.125"/>
<path d="M151.622 257.177C151.622 258.162 150.92 259.225 149.341 260.292C147.782 261.346 145.489 262.317 142.604 263.142C136.844 264.788 128.853 265.815 120.003 265.815C111.153 265.815 103.162 264.788 97.4009 263.142C94.5167 262.317 92.2235 261.346 90.6643 260.292C89.0856 259.225 88.3828 258.162 88.3828 257.177C88.3828 256.192 89.0856 255.129 90.6643 254.062C92.2235 253.008 94.5167 252.037 97.4009 251.213C103.162 249.566 111.153 248.54 120.003 248.54C128.853 248.54 136.844 249.566 142.604 251.213C145.489 252.037 147.782 253.008 149.341 254.062C150.92 255.129 151.622 256.192 151.622 257.177Z" fill="#3A2314" stroke="black" stroke-width="1.125"/>
<path d="M119.204 149.89C118.721 150.172 117.707 150.566 116.355 149.89V138.066C112.122 141.487 102.4 145.359 97.3799 133.484C100.437 129.663 108.482 124.023 116.205 132.036C116.648 131.071 117.895 129.719 119.343 132.036C121.716 128.657 128.514 124.216 136.72 133.484C134.809 138.229 128.687 145.787 119.493 138.066L119.204 149.89Z" fill="#448E60"/>
<path d="M119.343 132.036C117.895 129.719 116.648 131.071 116.205 132.036M119.343 132.036C121.716 128.657 128.514 124.216 136.72 133.484C134.809 138.229 128.687 145.787 119.493 138.066M119.343 132.036L119.442 136.028M116.205 132.036C108.482 124.023 100.437 129.663 97.3799 133.484C102.4 145.359 112.122 141.487 116.355 138.066M116.205 132.036L116.28 135.051M119.493 138.066L119.204 149.89C118.721 150.172 117.707 150.566 116.355 149.89V138.066M119.493 138.066L119.442 136.028M119.442 136.028C120.455 134.332 124.532 131.449 132.738 133.484M116.355 138.066L116.28 135.051M101.483 134.45C103.677 132.678 109.709 130.318 116.28 135.051" stroke="black" stroke-width="1.125" stroke-linecap="round" stroke-linejoin="round"/>
<path d="M112.357 146.454C109.515 140.377 104.871 135.325 102.905 133.558C101.237 133.079 97.9007 133.737 97.9007 140.206C97.9007 146.675 98.6358 150.579 99.0033 151.722C97.4515 156.867 95.7445 168.335 101.331 173.039C99.33 176.388 95.7935 185.78 97.6557 196.561C94.5113 203.748 88.4429 221.112 89.325 233.07C90.4276 248.016 97.4106 255.734 99.3709 257.204C100.939 258.38 108.553 258.674 112.164 258.674C112.416 261.255 115.301 264.289 117.635 265.771C121.551 268.257 135.831 266.908 145.417 263.984C150.194 262.526 170.72 253.059 168.392 248.894C166.064 244.729 159.841 255.964 144.604 258.674C133.308 260.684 126.732 261.615 126.568 258.674C142.005 258.674 144.7 258.062 149.723 241.645C153.741 228.512 145.19 206.117 140.412 196.561C141.686 189.406 138.084 177.49 136.124 172.426C139.849 168.506 138.656 155.928 137.594 150.129C137.839 146.086 137.962 133.558 134.409 133.558C131.567 133.558 126.119 142.155 123.751 146.454C119.144 145.572 114.236 146.086 112.357 146.454Z" fill="#CFBFA5"/>
<path d="M126.568 258.674C142.005 258.674 144.7 258.062 149.723 241.645C153.741 228.512 145.19 206.117 140.412 196.561C141.686 189.406 138.084 177.49 136.124 172.426C139.849 168.506 138.656 155.928 137.594 150.129C137.839 146.086 137.962 133.558 134.409 133.558C131.567 133.558 126.119 142.155 123.751 146.454C119.144 145.572 114.236 146.086 112.357 146.454C109.515 140.377 104.871 135.325 102.905 133.558C101.237 133.079 97.9007 133.737 97.9007 140.206C97.9007 146.675 98.6358 150.579 99.0033 151.722C97.4515 156.867 95.7445 168.335 101.331 173.039C99.33 176.388 95.7935 185.78 97.6557 196.561C94.5113 203.748 88.4429 221.112 89.325 233.07C90.4276 248.016 97.4106 255.734 99.3709 257.204C100.939 258.38 108.553 258.674 112.164 258.674M126.568 258.674C125.392 255.93 126.078 253.447 126.568 252.549M126.568 258.674C126.732 261.615 133.308 260.684 144.604 258.674C159.841 255.964 166.064 244.729 168.392 248.894C170.72 253.059 150.194 262.526 145.417 263.984C135.831 266.908 121.551 268.257 117.635 265.771C115.301 264.289 112.416 261.255 112.164 258.674M115.787 241.645C113.973 244.917 111.487 251.755 112.164 258.674" stroke="black" stroke-width="1.125" stroke-linecap="round" stroke-linejoin="round"/>
</svg>
