<svg width="372" height="372" viewBox="0 0 372 372" fill="none" xmlns="http://www.w3.org/2000/svg">
<path d="M307.682 289.492C311.835 285.232 312.543 279.025 309.446 273.993C306.387 268.973 300.542 266.802 294.872 268.513C268.397 276.621 240.506 275.873 214.339 266.293C154.358 244.453 119.45 178.766 134.91 116.834C141.662 89.7588 156.597 66.2509 178.131 48.8458C182.71 45.1418 184.193 39.0441 181.743 33.7003C179.294 28.3565 173.754 25.4701 167.911 26.4903C107.994 37.2568 59.3776 82.2806 44.0621 141.237C23.7611 219.13 67.3753 301.136 143.281 327.934C145.358 328.654 147.447 329.336 149.508 329.967C205.33 347.046 266.789 331.518 307.655 289.441L307.682 289.492Z" fill="white" stroke="black" stroke-width="9"/>
</svg>
