<svg width="288" height="288" viewBox="0 0 288 288" fill="none" xmlns="http://www.w3.org/2000/svg">
<circle cx="143.889" cy="143.878" r="117.969" fill="#E97EBD" stroke="black" stroke-width="9"/>
<path d="M164.409 82.7108C178.939 87.5851 191.259 97.4726 199.163 110.603C207.068 123.733 210.04 139.248 207.547 154.37C205.055 169.492 197.261 183.232 185.561 193.131C173.861 203.03 159.019 208.441 143.694 208.394C128.368 208.348 113.559 202.847 101.92 192.878C90.2798 182.908 82.5693 169.12 80.1687 153.984C77.7681 138.847 80.8343 123.35 88.8181 110.268C96.802 97.1862 109.182 87.3735 123.741 82.5875" stroke="black" stroke-width="9" stroke-linecap="round" stroke-linejoin="round"/>
<rect x="140.055" y="66.4526" width="7.66937" height="60.7104" rx="3.83469" fill="black"/>
</svg>
