<svg width="398" height="362" viewBox="0 0 398 362" fill="none" xmlns="http://www.w3.org/2000/svg">
<path d="M32.6947 129.095C32.6947 108.315 49.5404 91.469 70.3207 91.469H327.619C348.4 91.469 365.245 108.315 365.245 129.095V294.747C365.245 315.528 348.4 332.373 327.619 332.373H70.3207C49.5404 332.373 32.6947 315.528 32.6947 294.747V129.095Z" fill="white"/>
<path d="M247.816 30.4863H142.088C132.852 30.4863 125.365 37.9733 125.365 47.209V91.469H143.465V55.6883C143.465 51.0705 147.208 47.327 151.826 47.327H238.077C242.695 47.327 246.438 51.0705 246.438 55.6883V91.469H264.538V47.209C264.538 37.9733 257.051 30.4863 247.816 30.4863Z" fill="white"/>
<path d="M32.6947 129.095C32.6947 108.315 49.5404 91.469 70.3207 91.469H327.619C348.4 91.469 365.245 108.315 365.245 129.095V294.747C365.245 315.528 348.4 332.373 327.619 332.373H70.3207C49.5404 332.373 32.6947 315.528 32.6947 294.747V129.095Z" stroke="black" stroke-width="9"/>
<path d="M247.816 30.4863H142.088C132.852 30.4863 125.365 37.9733 125.365 47.209V91.469H143.465V55.6883C143.465 51.0705 147.208 47.327 151.826 47.327H238.077C242.695 47.327 246.438 51.0705 246.438 55.6883V91.469H264.538V47.209C264.538 37.9733 257.051 30.4863 247.816 30.4863Z" stroke="black" stroke-width="9"/>
<path d="M179.726 198.682H184.226V194.182V160.496C184.226 157.459 186.689 154.996 189.726 154.996H208.214C211.251 154.996 213.714 157.459 213.714 160.496V194.182V198.682H218.214H251.9C254.937 198.682 257.4 201.144 257.4 204.182V222.67C257.4 225.707 254.937 228.17 251.9 228.17H218.214H213.714V232.67V266.355C213.714 269.393 211.251 271.855 208.214 271.855H189.726C186.689 271.855 184.226 269.393 184.226 266.355V232.67V228.17H179.726H146.041C143.003 228.17 140.541 225.707 140.541 222.67V204.182C140.541 201.144 143.003 198.682 146.041 198.682H179.726Z" fill="#D95962" stroke="black" stroke-width="9"/>
</svg>
