<svg width="241" height="331" viewBox="0 0 241 331" fill="none" xmlns="http://www.w3.org/2000/svg">
<path d="M86.1777 277.146V257.347C86.9258 253.342 95.5725 245.332 124.175 245.332C152.776 245.332 161.423 253.342 162.171 257.347V276.473C161.127 277.597 159.218 279.065 156.412 280.545L153.668 322.067C151.97 324.768 143.695 330.17 124.175 330.17C104.654 330.17 95.9824 324.768 94.0867 322.067L91.4829 280.545C88.9238 279.291 87.1647 278.079 86.1777 277.146Z" fill="#E6703F"/>
<path d="M162.171 257.347C162.171 264.143 145.16 269.652 124.175 269.652C103.189 269.652 86.1777 264.143 86.1777 257.347M162.171 257.347V276.473C161.127 277.597 159.218 279.065 156.412 280.545M162.171 257.347C161.423 253.342 152.776 245.332 124.175 245.332C95.5725 245.332 86.9258 253.342 86.1777 257.347M86.1777 257.347V277.146C87.1647 278.079 88.9238 279.291 91.4829 280.545M91.4829 280.545C97.6325 283.559 108.402 286.812 124.175 286.996C139.566 287.175 150.193 283.827 156.412 280.545M91.4829 280.545L94.0867 322.067C95.9824 324.768 104.654 330.17 124.175 330.17C143.695 330.17 151.97 324.768 153.668 322.067L156.412 280.545" stroke="black" stroke-width="1.125"/>
<path d="M155.794 257.347C155.794 258.331 155.092 259.394 153.513 260.462C151.954 261.515 149.66 262.487 146.776 263.311C141.016 264.958 133.024 265.984 124.175 265.984C115.325 265.984 107.334 264.958 101.573 263.311C98.6886 262.487 96.3954 261.515 94.8362 260.462C93.2574 259.394 92.5547 258.331 92.5547 257.347C92.5547 256.362 93.2574 255.299 94.8362 254.231C96.3954 253.178 98.6886 252.206 101.573 251.382C107.334 249.735 115.325 248.709 124.175 248.709C133.024 248.709 141.016 249.735 146.776 251.382C149.66 252.206 151.954 253.178 153.513 254.231C155.092 255.299 155.794 256.362 155.794 257.347Z" fill="#3A2314" stroke="black" stroke-width="1.125"/>
<path fill-rule="evenodd" clip-rule="evenodd" d="M106.417 227.004C112.831 223.637 130.375 215.437 145.766 218.515C165.005 222.363 173.181 233.425 174.624 243.045C176.067 252.664 176.067 256.993 166.929 262.524C165.016 263.682 163.577 264.671 162.362 265.507C157.768 268.665 156.353 269.638 144.563 269.258C140.932 269.14 136.739 269.053 132.457 268.963C119.157 268.684 105 268.387 104.162 267.141C103.752 266.531 103.54 265.868 103.443 265.268C102.117 266.427 98.232 269.117 93.3034 270.61C90.259 271.533 88.8645 270.138 88.3172 268.353C87.4278 268.857 84.5434 269.845 80.1206 269.77C75.6979 269.695 78.2778 265.064 80.1206 262.758C72.0753 258.508 72.7458 249.308 74.3416 244.728C73.995 243.418 73.4957 241.84 72.9679 240.171C71.0696 234.169 68.8033 227.003 71.9512 227.004C73.8828 227.004 80.7546 232.33 83.961 234.823C86.217 233.163 91.5371 230.058 94.7692 230.913C96.0446 226.664 99.0803 218.232 101.019 218.504C102.356 218.692 104.601 222.945 106.417 227.004Z" fill="#CFBFA5"/>
<path d="M114.503 241.158C113.404 236.004 110.406 233.022 108.491 231.982C106.808 227.603 102.958 218.776 101.019 218.504M114.503 241.158C115.013 243.555 115.113 246.42 114.503 249.778C113.946 252.839 112.819 255.462 111.228 257.638M114.503 241.158C120.194 235.811 134.175 225.804 144.563 228.55M103.443 263.627C103.973 261.597 106.273 257.557 111.228 257.638M103.443 263.627C99.0976 265.423 93.8051 265.911 88.0844 265.048M103.443 263.627C103.373 263.961 103.33 264.571 103.443 265.268M111.228 257.638C116.293 257.514 127.225 257.515 130.425 258.508C134.425 259.749 139.666 261.128 145.459 260.37C150.093 259.763 153.412 257.359 154.493 256.232M88.0844 265.048C86.7316 264.843 85.3548 264.563 83.961 264.208C82.502 263.835 81.2287 263.343 80.1206 262.758M88.0844 265.048C87.9644 265.994 87.9785 267.248 88.3172 268.353M103.443 265.268C103.54 265.868 103.752 266.531 104.162 267.141C105 268.387 119.157 268.684 132.457 268.963C136.739 269.053 140.932 269.14 144.563 269.258C156.353 269.638 157.768 268.665 162.362 265.507C163.577 264.671 165.016 263.682 166.929 262.524C176.067 256.993 176.067 252.664 174.624 243.045C173.181 233.425 165.005 222.363 145.766 218.515C130.375 215.437 112.831 223.637 106.417 227.004C104.601 222.945 102.356 218.692 101.019 218.504M103.443 265.268C102.117 266.427 98.232 269.117 93.3034 270.61C90.259 271.533 88.8645 270.138 88.3172 268.353M80.1206 262.758C72.0753 258.508 72.7458 249.308 74.3416 244.728C73.995 243.418 73.4957 241.84 72.9679 240.171C71.0696 234.169 68.8033 227.003 71.9512 227.004C73.8828 227.004 80.7546 232.33 83.961 234.823C86.217 233.163 91.5371 230.058 94.7692 230.913C96.0446 226.664 99.0803 218.232 101.019 218.504M80.1206 262.758C78.2778 265.064 75.6979 269.695 80.1206 269.77C84.5434 269.845 87.4278 268.857 88.3172 268.353M88.3172 256.203C88.5978 255.874 89.0554 255.453 89.6544 255.055C90.5005 254.494 91.6288 253.981 92.9389 253.845C93.5165 253.785 94.1295 253.799 94.7692 253.914M105.375 248.228C105.459 247.786 105.604 247.239 105.816 246.669C106.149 245.773 106.645 244.821 107.323 244.136C107.957 243.495 108.751 243.088 109.719 243.181" stroke="black" stroke-width="1.125" stroke-linecap="round" stroke-linejoin="round"/>
<path d="M98.7132 230.41C100.129 231.527 102.764 231.64 103.904 231.557C104.704 229.999 102.675 224.063 101.097 223.985C99.8354 223.923 98.9821 228.243 98.7132 230.41Z" fill="#E7A7AB" stroke="black" stroke-width="1.125"/>
<path d="M79.9427 236.098C79.3124 237.787 77.1204 239.249 76.1033 239.77C74.6118 238.854 73.2667 232.731 74.5737 231.846C75.6193 231.138 78.5887 234.386 79.9427 236.098Z" fill="#E7A7AB" stroke="black" stroke-width="1.125"/>
<path d="M103.467 255.275L100.828 254.295L103.467 252.108V255.275Z" fill="#E7A7AB" stroke="black" stroke-width="1.125" stroke-linecap="round" stroke-linejoin="round"/>
<path d="M92.2845 236.368C91.9645 236.753 91.1044 237.3 89.761 237.145L84.7155 223.056C82.1993 227.227 75.2043 233.454 67.3536 224.999C68.7578 220.85 73.8024 213.648 82.7473 218.029C82.8246 217.082 83.4606 215.564 85.3867 217.071C86.3508 213.503 90.7126 207.691 100.447 212.98C100.288 217.555 97.448 225.783 87.3548 222.098L92.2845 236.368Z" fill="#448E60"/>
<path d="M85.3867 217.071C83.4606 215.564 82.8246 217.082 82.7473 218.029M85.3867 217.071C86.3508 213.503 90.7126 207.691 100.447 212.98C100.288 217.555 97.448 225.783 87.3548 222.098M85.3867 217.071L86.6896 220.398M82.7473 218.029C73.8024 213.648 68.7578 220.85 67.3536 224.999C75.2043 233.454 82.1993 227.227 84.7155 223.056M82.7473 218.029L83.7314 220.543M87.3548 222.098L92.2845 236.368C91.9645 236.753 91.1044 237.3 89.761 237.145L84.7155 223.056M87.3548 222.098L86.6896 220.398M86.6896 220.398C87.0235 218.662 89.5724 214.992 97.097 214.197M84.7155 223.056L83.7314 220.543M71.1 224.557C72.4048 222.396 76.7577 218.568 83.7314 220.543" stroke="black" stroke-width="1.125" stroke-linecap="round" stroke-linejoin="round"/>
<path fill-rule="evenodd" clip-rule="evenodd" d="M105.337 257.447L99.562 255.212L98.7213 256.913L103.967 259.09C104.341 258.567 104.803 257.997 105.337 257.447Z" fill="#D95962"/>
<path d="M95.8652 254.594C95.6071 255.157 96.5342 255.868 97.0301 256.153L98.7213 256.913L99.562 255.212L97.9431 254.585C97.358 254.353 96.1233 254.03 95.8652 254.594Z" fill="white"/>
<path d="M103.328 260.077C103.495 259.785 103.71 259.449 103.967 259.09M107.61 256.586C106.96 256.637 105.871 256.897 105.337 257.447M105.337 257.447L99.562 255.212M105.337 257.447C104.803 257.997 104.341 258.567 103.967 259.09M98.7213 256.913L97.0301 256.153C96.5342 255.868 95.6071 255.157 95.8652 254.594C96.1233 254.03 97.358 254.353 97.9431 254.585L99.562 255.212M98.7213 256.913L99.562 255.212M98.7213 256.913L103.967 259.09" stroke="black" stroke-width="1.125" stroke-linecap="round" stroke-linejoin="round"/>
</svg>
