<svg width="241" height="331" viewBox="0 0 241 331" fill="none" xmlns="http://www.w3.org/2000/svg">
<path d="M82.1807 277.265V257.466C82.9288 253.461 91.5755 245.451 120.177 245.451C148.779 245.451 157.426 253.461 158.174 257.466V276.592C157.13 277.716 155.221 279.184 152.415 280.665L149.671 322.186C147.973 324.887 139.698 330.289 120.177 330.289C100.657 330.289 91.9853 324.887 90.0896 322.186L87.4858 280.665C84.9267 279.41 83.1676 278.198 82.1807 277.265Z" fill="#E6703F"/>
<path d="M158.174 257.466C158.174 264.262 141.162 269.771 120.177 269.771C99.1924 269.771 82.1807 264.262 82.1807 257.466M158.174 257.466V276.592C157.13 277.716 155.221 279.184 152.415 280.665M158.174 257.466C157.426 253.461 148.779 245.451 120.177 245.451C91.5755 245.451 82.9288 253.461 82.1807 257.466M82.1807 257.466V277.265C83.1676 278.198 84.9267 279.41 87.4858 280.665M87.4858 280.665C93.6354 283.678 104.404 286.931 120.177 287.115C135.569 287.294 146.196 283.946 152.415 280.665M87.4858 280.665L90.0896 322.186C91.9853 324.887 100.657 330.289 120.177 330.289C139.698 330.289 147.973 324.887 149.671 322.186L152.415 280.665" stroke="black" stroke-width="1.125"/>
<path d="M151.797 257.466C151.797 258.451 151.095 259.514 149.516 260.581C147.957 261.635 145.663 262.606 142.779 263.43C137.018 265.077 129.027 266.103 120.177 266.103C111.328 266.103 103.336 265.077 97.5757 263.43C94.6915 262.606 92.3984 261.635 90.8391 260.581C89.2604 259.514 88.5576 258.451 88.5576 257.466C88.5576 256.481 89.2604 255.418 90.8391 254.351C92.3984 253.297 94.6915 252.326 97.5757 251.501C103.336 249.854 111.328 248.828 120.177 248.828C129.027 248.828 137.018 249.854 142.779 251.501C145.663 252.326 147.957 253.297 149.516 254.351C151.095 255.418 151.797 256.481 151.797 257.466Z" fill="#3A2314" stroke="black" stroke-width="1.125"/>
<path fill-rule="evenodd" clip-rule="evenodd" d="M100.102 227.121C106.515 223.754 124.059 215.555 139.45 218.633C158.689 222.48 166.866 233.542 168.309 243.162C169.752 252.781 169.752 257.11 160.613 262.641C158.701 263.799 157.262 264.788 156.046 265.624C151.453 268.782 150.038 269.755 138.248 269.375C134.617 269.258 130.424 269.17 126.142 269.08C112.842 268.801 98.6847 268.504 97.8464 267.258C97.4367 266.649 97.2244 265.985 97.1274 265.386C95.8012 266.544 91.9166 269.234 86.9879 270.727C83.9435 271.65 82.5491 270.255 82.0018 268.47C81.1124 268.974 78.2279 269.962 73.8052 269.887C69.3825 269.813 71.9624 265.181 73.8052 262.875C65.7599 258.625 66.4304 249.425 68.0262 244.845C67.6795 243.536 67.1802 241.957 66.6525 240.288C64.7541 234.286 62.4878 227.121 65.6358 227.121C67.5673 227.121 74.4391 232.447 77.6456 234.94C79.9016 233.281 85.2217 230.175 88.4538 231.031C89.7292 226.781 92.7648 218.349 94.7037 218.621C96.0404 218.809 98.2851 223.062 100.102 227.121Z" fill="#CFBFA5"/>
<path d="M108.187 241.276C107.089 236.121 104.09 233.139 102.175 232.1C100.493 227.72 96.6426 218.893 94.7037 218.621M108.187 241.276C108.698 243.672 108.798 246.537 108.187 249.896C107.631 252.956 106.503 255.579 104.912 257.755M108.187 241.276C113.879 235.929 127.859 225.921 138.248 228.667M97.1274 263.744C97.658 261.714 99.9578 257.674 104.912 257.755M97.1274 263.744C92.7822 265.54 87.4896 266.028 81.7689 265.165M97.1274 263.744C97.0576 264.078 97.0144 264.688 97.1274 265.386M104.912 257.755C109.978 257.631 120.91 257.632 124.109 258.625C128.109 259.866 133.35 261.246 139.143 260.487C143.777 259.88 147.097 257.476 148.177 256.349M81.7689 265.165C80.4161 264.96 79.0394 264.681 77.6456 264.325C76.1866 263.952 74.9132 263.461 73.8052 262.875M81.7689 265.165C81.6489 266.111 81.6631 267.366 82.0018 268.47M97.1274 265.386C97.2244 265.985 97.4367 266.649 97.8464 267.258C98.6847 268.504 112.842 268.801 126.142 269.08C130.424 269.17 134.617 269.258 138.248 269.375C150.038 269.755 151.453 268.782 156.046 265.624C157.262 264.788 158.701 263.799 160.613 262.641C169.752 257.11 169.752 252.781 168.309 243.162C166.866 233.542 158.689 222.48 139.45 218.633C124.059 215.555 106.515 223.754 100.102 227.121C98.2851 223.062 96.0404 218.809 94.7037 218.621M97.1274 265.386C95.8012 266.544 91.9166 269.234 86.9879 270.727C83.9435 271.65 82.5491 270.255 82.0018 268.47M73.8052 262.875C65.7599 258.625 66.4304 249.425 68.0262 244.845C67.6795 243.536 67.1802 241.957 66.6525 240.288C64.7541 234.286 62.4878 227.121 65.6358 227.121C67.5673 227.121 74.4391 232.447 77.6456 234.94C79.9016 233.281 85.2217 230.175 88.4538 231.031C89.7292 226.781 92.7648 218.349 94.7037 218.621M73.8052 262.875C71.9624 265.181 69.3825 269.813 73.8052 269.887C78.2279 269.962 81.1124 268.974 82.0018 268.47M82.0018 256.32C82.2824 255.991 82.74 255.57 83.339 255.172C84.1851 254.611 85.3134 254.098 86.6234 253.962C87.2011 253.902 87.8141 253.916 88.4538 254.031M99.0591 248.345C99.1433 247.903 99.2889 247.356 99.5005 246.786C99.8334 245.89 100.33 244.938 101.007 244.253C101.642 243.612 102.436 243.205 103.404 243.298" stroke="black" stroke-width="1.125" stroke-linecap="round" stroke-linejoin="round"/>
<path d="M92.3968 230.528C93.8128 231.645 96.4473 231.757 97.5875 231.674C98.3875 230.116 96.3585 224.181 94.781 224.102C93.519 224.04 92.6657 228.36 92.3968 230.528Z" fill="#E7A7AB" stroke="black" stroke-width="1.125"/>
<path d="M73.6263 236.215C72.9959 237.904 70.804 239.366 69.7869 239.887C68.2954 238.971 66.9503 232.848 68.2573 231.963C69.3029 231.255 72.2723 234.503 73.6263 236.215Z" fill="#E7A7AB" stroke="black" stroke-width="1.125"/>
<path d="M97.1521 255.394L94.5127 254.413L97.1521 252.227V255.394Z" fill="#E7A7AB" stroke="black" stroke-width="1.125" stroke-linecap="round" stroke-linejoin="round"/>
<path d="M85.9681 236.485C85.6481 236.87 84.788 237.418 83.4446 237.262L78.3991 223.173C75.8829 227.344 68.8879 233.571 61.0372 225.116C62.4414 220.967 67.486 213.765 76.4309 218.146C76.5082 217.199 77.1442 215.681 79.0702 217.188C80.0344 213.62 84.3962 207.808 94.1306 213.097C93.972 217.672 91.1316 225.9 81.0384 222.215L85.9681 236.485Z" fill="#448E60"/>
<path d="M79.0702 217.188C77.1442 215.681 76.5082 217.199 76.4309 218.146M79.0702 217.188C80.0344 213.62 84.3962 207.808 94.1306 213.097C93.972 217.672 91.1316 225.9 81.0384 222.215M79.0702 217.188L80.3732 220.516M76.4309 218.146C67.486 213.765 62.4414 220.967 61.0372 225.116C68.8879 233.571 75.8829 227.344 78.3991 223.173M76.4309 218.146L77.415 220.66M81.0384 222.215L85.9681 236.485C85.6481 236.87 84.788 237.418 83.4446 237.262L78.3991 223.173M81.0384 222.215L80.3732 220.516M80.3732 220.516C80.7071 218.78 83.256 215.109 90.7806 214.314M78.3991 223.173L77.415 220.66M64.7836 224.675C66.0884 222.514 70.4413 218.685 77.415 220.66" stroke="black" stroke-width="1.125" stroke-linecap="round" stroke-linejoin="round"/>
<path fill-rule="evenodd" clip-rule="evenodd" d="M99.0204 257.564L93.2456 255.329L92.4049 257.03L97.6505 259.207C98.0242 258.685 98.4867 258.115 99.0204 257.564Z" fill="#D95962"/>
<path d="M89.5488 254.711C89.2907 255.274 90.2178 255.986 90.7137 256.271L92.4049 257.03L93.2456 255.329L91.6267 254.702C91.0416 254.47 89.8069 254.147 89.5488 254.711Z" fill="white"/>
<path d="M97.0117 260.194C97.1789 259.902 97.3938 259.566 97.6505 259.207M101.294 256.703C100.644 256.754 99.5541 257.014 99.0204 257.564M99.0204 257.564L93.2456 255.329M99.0204 257.564C98.4867 258.115 98.0242 258.685 97.6505 259.207M92.4049 257.03L90.7137 256.271C90.2178 255.986 89.2907 255.274 89.5488 254.711C89.8069 254.147 91.0416 254.47 91.6267 254.702L93.2456 255.329M92.4049 257.03L93.2456 255.329M92.4049 257.03L97.6505 259.207" stroke="black" stroke-width="1.125" stroke-linecap="round" stroke-linejoin="round"/>
</svg>
