<svg width="247" height="329" viewBox="0 0 247 329" fill="none" xmlns="http://www.w3.org/2000/svg">
<path d="M224.696 199.534C224.696 255.201 179.404 300.492 123.738 300.492C68.071 300.492 22.7799 255.201 22.7799 199.534C22.7799 186.424 28.4927 169.545 37.652 151.116C46.7457 132.82 58.9606 113.53 71.3768 95.7576C96.0834 60.3925 121.32 31.4123 123.572 28.8426C123.603 28.8313 123.661 28.8174 123.738 28.8174C123.814 28.8174 123.872 28.8313 123.904 28.8426C126.156 31.4123 151.392 60.3925 176.099 95.7576C188.515 113.53 200.73 132.82 209.824 151.116C218.983 169.545 224.696 186.424 224.696 199.534Z" fill="#A5B2D2" stroke="black" stroke-width="9"/>
</svg>
