<svg width="398" height="346" viewBox="0 0 398 346" fill="none" xmlns="http://www.w3.org/2000/svg">
<path d="M204.136 333.151L343.563 193.775L364.12 173.219C373.276 164.069 380.539 153.206 385.494 141.248C390.45 129.291 393 116.474 393 103.531C393 90.5872 390.45 77.7705 385.494 65.8132C380.539 53.8558 373.276 42.9921 364.12 33.8429C354.971 24.6872 344.107 17.4242 332.15 12.4688C320.192 7.51345 307.376 4.96289 294.432 4.96289C281.489 4.96289 268.672 7.51345 256.715 12.4688C244.757 17.4242 233.894 24.6872 224.744 33.8429L204.188 54.3998L186.663 103.633L217.961 152.199L187.125 211.557L211.948 266.033L204.136 333.151Z" fill="#D95962" stroke="black" stroke-width="9"/>
<path d="M198.997 269.219L171.502 208.782L202.337 154.306L170.525 106.306L191.082 51.9843L173.301 33.8429C164.151 24.6872 153.288 17.4242 141.33 12.4688C129.373 7.51345 116.556 4.96289 103.613 4.96289C90.6692 4.96289 77.8526 7.51345 65.8952 12.4688C53.9378 17.4242 43.0741 24.6872 33.9249 33.8429C24.7692 42.9921 17.5062 53.8558 12.5508 65.8132C7.59548 77.7705 5.04492 90.5872 5.04492 103.531C5.04492 116.474 7.59548 129.291 12.5508 141.248C17.5062 153.206 24.7692 164.069 33.9249 173.219L54.4818 193.775L193.857 333.151L198.997 269.219Z" fill="#D95962" stroke="black" stroke-width="9"/>
</svg>
