<svg width="328" height="286" viewBox="0 0 328 286" fill="none" xmlns="http://www.w3.org/2000/svg">
<path d="M278.555 145.742C285.105 139.197 290.301 131.425 293.846 122.871C297.391 114.317 299.216 105.148 299.216 95.888C299.216 86.6282 297.391 77.4593 293.846 68.905C290.301 60.3508 285.105 52.579 278.555 46.0336C272.01 39.4837 264.238 34.2878 255.684 30.7427C247.13 27.1977 237.961 25.373 228.701 25.373C219.441 25.373 210.272 27.1977 201.718 30.7427C193.164 34.2878 185.392 39.4837 178.847 46.0336L164.141 60.7399L149.198 46.0336C142.653 39.4837 134.881 34.2878 126.327 30.7427C117.772 27.1977 108.603 25.373 99.3438 25.373C90.084 25.373 80.9151 27.1977 72.3608 30.7427C63.8066 34.2878 56.0348 39.4837 49.4895 46.0336C42.9395 52.579 37.7436 60.3508 34.1986 68.905C30.6535 77.4593 28.8289 86.6282 28.8289 95.888C28.8289 105.148 30.6535 114.317 34.1986 122.871C37.7436 131.425 42.9395 139.197 49.4895 145.742L164.104 260.157L278.555 145.742Z" fill="#D95962" stroke="black" stroke-width="9"/>
</svg>
