<svg width="314" height="401" viewBox="0 0 314 401" fill="none" xmlns="http://www.w3.org/2000/svg">
<path d="M112.13 125.447C80.8703 135.56 15.7034 169.909 5.11182 226.396L309.065 253.427L112.13 125.447Z" fill="#E97EBD"/>
<path d="M309.065 253.427L5.11182 226.396V249.565C5.47955 255.633 9.08354 267.77 20.5576 267.77C32.0317 267.77 39.3134 253.427 41.5199 246.256C39.4973 256.921 39.6444 278.251 56.4142 278.251C69.8703 278.251 75.7021 267.596 77.6714 259.11C77.8705 257.034 78.1574 255.097 78.4798 253.427C78.4071 255.062 78.1564 257.02 77.6714 259.11C76.6212 270.058 78.0124 284.87 89.5126 284.87C99.9195 284.87 103.112 275.294 103.558 267.068C102.914 264.504 102.954 261.971 103.304 260.047C103.568 262.027 103.699 264.481 103.558 267.068C104.946 272.59 109.503 278.251 120.956 278.251C131.131 278.251 136.134 273.783 138.331 268.914C138.644 265.651 139.151 262.59 139.712 260.047C140.001 262.433 139.756 265.758 138.331 268.914C137.105 281.69 138.841 297.558 151.848 297.558C161.617 297.558 166.607 290.45 168.922 282.613C168.689 277.35 169.569 271.759 170.604 267.77C170.825 271.759 170.477 277.35 168.922 282.613C169.269 290.45 172.084 297.558 180.533 297.558C189.402 297.558 193.223 292.482 194.565 287.111C194.036 283.93 194.328 280.645 194.876 278.251C195.286 280.645 195.361 283.93 194.565 287.111C195.46 292.482 198.697 297.558 207.012 297.558C218.188 297.558 220.192 283.406 219.66 273.022C219.176 271.088 219.053 269.239 219.148 267.77C219.377 269.317 219.562 271.105 219.66 273.022C221.053 278.591 225.44 284.87 236.249 284.87C248.249 284.87 253.832 277.13 255.837 271.216C256.087 269.98 256.368 268.819 256.659 267.77C256.53 268.773 256.265 269.953 255.837 271.216C253.715 281.675 253.722 297.558 267.14 297.558C274.02 297.558 277.606 294.852 279.26 291.301C278.687 286.563 278.84 281.805 279.276 278.251C280.471 281.736 281.213 287.108 279.26 291.301C280.377 300.537 284.254 309.694 294.171 309.694C304.04 309.694 307.927 306.194 309.065 302.647V297.558V253.427Z" fill="#E97EBD"/>
<path d="M20.5576 267.77C9.08354 267.77 5.47955 255.633 5.11182 249.565V297.558L309.065 333.928V302.647C307.927 306.194 304.04 309.694 294.171 309.694C284.254 309.694 280.377 300.537 279.26 291.301C277.606 294.852 274.02 297.558 267.14 297.558C253.722 297.558 253.715 281.675 255.837 271.216C253.832 277.13 248.249 284.87 236.249 284.87C225.44 284.87 221.053 278.591 219.66 273.022C220.192 283.406 218.188 297.558 207.012 297.558C198.697 297.558 195.46 292.482 194.565 287.111C193.223 292.482 189.402 297.558 180.533 297.558C172.084 297.558 169.269 290.45 168.922 282.613C166.607 290.45 161.617 297.558 151.848 297.558C138.841 297.558 137.105 281.69 138.331 268.914C136.134 273.783 131.131 278.251 120.956 278.251C109.503 278.251 104.946 272.59 103.558 267.068C103.112 275.294 99.9195 284.87 89.5126 284.87C78.0124 284.87 76.6212 270.058 77.6714 259.11C75.7021 267.596 69.8703 278.251 56.4142 278.251C39.6444 278.251 39.4973 256.921 41.5199 246.256C39.3134 253.427 32.0317 267.77 20.5576 267.77Z" fill="#F5E477"/>
<path fill-rule="evenodd" clip-rule="evenodd" d="M5.11182 327.757V297.558L309.065 333.928V365.115L5.11182 327.757ZM78.4798 253.427C78.4071 255.062 78.1564 257.02 77.6714 259.11C77.8705 257.034 78.1574 255.097 78.4798 253.427ZM103.304 260.047C103.568 262.027 103.699 264.481 103.558 267.068C102.914 264.504 102.954 261.971 103.304 260.047ZM139.712 260.047C140.001 262.433 139.756 265.758 138.331 268.914C138.644 265.651 139.151 262.59 139.712 260.047ZM170.604 267.77C170.825 271.759 170.477 277.35 168.922 282.613C168.689 277.35 169.569 271.759 170.604 267.77ZM194.876 278.251C195.286 280.645 195.361 283.93 194.565 287.111C194.036 283.93 194.328 280.645 194.876 278.251ZM219.148 267.77C219.377 269.317 219.562 271.105 219.66 273.022C219.176 271.088 219.053 269.239 219.148 267.77ZM256.659 267.77C256.53 268.773 256.265 269.953 255.837 271.216C256.087 269.98 256.368 268.819 256.659 267.77ZM279.276 278.251C280.471 281.736 281.213 287.108 279.26 291.301C278.687 286.563 278.84 281.805 279.276 278.251ZM309.065 302.647V297.558C309.506 298.943 309.657 300.801 309.065 302.647Z" fill="#F6B6DC"/>
<path d="M5.11182 370.926L309.065 396.302V365.115L5.11182 327.757V370.926Z" fill="#F5E477"/>
<path d="M5.11182 226.396C15.7034 169.909 80.8703 135.56 112.13 125.447L309.065 253.427M5.11182 226.396L309.065 253.427M5.11182 226.396V249.565M309.065 253.427V297.558M5.11182 249.565C5.47955 255.633 9.08354 267.77 20.5576 267.77C32.0317 267.77 39.3134 253.427 41.5199 246.256C39.4973 256.921 39.6444 278.251 56.4142 278.251C69.8703 278.251 75.7021 267.596 77.6714 259.11M5.11182 249.565V297.558M309.065 297.558C309.506 298.943 309.657 300.801 309.065 302.647M309.065 297.558V302.647M5.11182 297.558L309.065 333.928M5.11182 297.558V327.757M309.065 333.928V365.115M309.065 333.928V302.647M5.11182 327.757V370.926L309.065 396.302V365.115M5.11182 327.757L309.065 365.115M309.065 302.647C307.927 306.194 304.04 309.694 294.171 309.694C284.254 309.694 280.377 300.537 279.26 291.301M77.6714 259.11C76.6212 270.058 78.0124 284.87 89.5126 284.87C99.9195 284.87 103.112 275.294 103.558 267.068M77.6714 259.11C78.1564 257.02 78.4071 255.062 78.4798 253.427C78.1574 255.097 77.8705 257.034 77.6714 259.11ZM103.558 267.068C104.946 272.59 109.503 278.251 120.956 278.251C131.131 278.251 136.134 273.783 138.331 268.914M103.558 267.068C103.699 264.481 103.568 262.027 103.304 260.047C102.954 261.971 102.914 264.504 103.558 267.068ZM138.331 268.914C137.105 281.69 138.841 297.558 151.848 297.558C161.617 297.558 166.607 290.45 168.922 282.613M138.331 268.914C139.756 265.758 140.001 262.433 139.712 260.047C139.151 262.59 138.644 265.651 138.331 268.914ZM168.922 282.613C169.269 290.45 172.084 297.558 180.533 297.558C189.402 297.558 193.223 292.482 194.565 287.111M168.922 282.613C170.477 277.35 170.825 271.759 170.604 267.77C169.569 271.759 168.689 277.35 168.922 282.613ZM194.565 287.111C195.46 292.482 198.697 297.558 207.012 297.558C218.188 297.558 220.192 283.406 219.66 273.022M194.565 287.111C195.361 283.93 195.286 280.645 194.876 278.251C194.328 280.645 194.036 283.93 194.565 287.111ZM219.66 273.022C221.053 278.591 225.44 284.87 236.249 284.87C248.249 284.87 253.832 277.13 255.837 271.216M219.66 273.022C219.562 271.105 219.377 269.317 219.148 267.77C219.053 269.239 219.176 271.088 219.66 273.022ZM255.837 271.216C253.715 281.675 253.722 297.558 267.14 297.558C274.02 297.558 277.606 294.852 279.26 291.301M255.837 271.216C256.265 269.953 256.53 268.773 256.659 267.77C256.368 268.819 256.087 269.98 255.837 271.216ZM279.26 291.301C281.213 287.108 280.471 281.736 279.276 278.251C278.84 281.805 278.687 286.563 279.26 291.301Z" stroke="black" stroke-width="9" stroke-linejoin="round"/>
<path d="M114.322 55.0089C103.755 48.8058 88.9606 30.0594 114.322 4.69824C114.322 4.69824 146.116 34.8289 114.322 55.0089Z" fill="#E6703F"/>
<path d="M101.381 189.802C102.79 189.857 104.145 190.116 105.369 190.651L105.429 190.677C110.65 192.962 116.365 195.463 127.263 192.448V72.2464H114.322H101.381V189.802Z" fill="#37539A"/>
<path d="M87.4963 193.779C90.3058 192.14 96.2067 189.6 101.381 189.802M105.369 190.651C104.145 190.116 102.79 189.857 101.381 189.802M105.369 190.651L105.429 190.677M105.369 190.651C105.389 190.66 105.409 190.669 105.429 190.677M141.561 186.63C135.945 189.498 131.256 191.343 127.263 192.448M101.381 189.802V72.2464H114.322M127.263 192.448V72.2464H114.322M127.263 192.448C116.365 195.463 110.65 192.962 105.429 190.677M114.322 72.2464V55.0089M114.322 55.0089C103.755 48.8058 88.9606 30.0594 114.322 4.69824C114.322 4.69824 146.116 34.8289 114.322 55.0089Z" stroke="black" stroke-width="9" stroke-linejoin="round"/>
</svg>
