<svg width="420" height="419" viewBox="0 0 420 419" fill="none" xmlns="http://www.w3.org/2000/svg">
<path d="M210.488 4.68555C218.673 4.68555 225.308 11.3153 225.308 19.4935V63.9175C225.308 72.096 218.673 78.7255 210.488 78.7255C202.303 78.7255 195.668 72.096 195.668 63.9175V19.4935C195.668 11.3153 202.303 4.68555 210.488 4.68555Z" fill="#F3DF4B" stroke="black" stroke-width="9"/>
<path d="M321.638 209.53C321.638 270.866 271.875 320.59 210.488 320.59C149.102 320.59 99.3381 270.866 99.3381 209.53C99.3381 148.193 149.102 98.4697 210.488 98.4697C271.875 98.4697 321.638 148.193 321.638 209.53Z" fill="#F3DF4B" stroke="black" stroke-width="9"/>
<path d="M225.308 355.141C225.308 346.963 218.673 340.333 210.488 340.333C202.303 340.333 195.668 346.963 195.668 355.141V399.565C195.668 407.744 202.303 414.373 210.488 414.373C218.673 414.373 225.308 407.744 225.308 399.565V355.141Z" fill="#F3DF4B" stroke="black" stroke-width="9"/>
<path d="M415.498 209.53C415.498 217.708 408.863 224.338 400.678 224.338H356.218C348.033 224.338 341.398 217.708 341.398 209.53C341.398 201.351 348.033 194.722 356.218 194.722H400.678C408.863 194.722 415.498 201.351 415.498 209.53Z" fill="#F3DF4B" stroke="black" stroke-width="9"/>
<path d="M64.7583 224.338C72.9434 224.338 79.5783 217.708 79.5783 209.53C79.5783 201.351 72.9434 194.722 64.7583 194.722H20.2983C12.1134 194.722 5.47827 201.351 5.47827 209.53C5.47827 217.708 12.1134 224.338 20.2983 224.338H64.7583Z" fill="#F3DF4B" stroke="black" stroke-width="9"/>
<path d="M355.455 354.376C349.667 360.159 340.284 360.159 334.496 354.376L303.058 322.964C297.271 317.181 297.271 307.805 303.058 302.022C308.846 296.239 318.229 296.239 324.017 302.022L355.455 333.435C361.243 339.218 361.243 348.593 355.455 354.376Z" fill="#F3DF4B" stroke="black" stroke-width="9"/>
<path d="M96.9616 117.037C102.749 122.82 112.132 122.82 117.92 117.037C123.708 111.254 123.708 101.878 117.92 96.0952L86.4818 64.683C80.6946 58.8999 71.3111 58.8999 65.5234 64.683C59.7357 70.4655 59.7357 79.8414 65.5234 85.6244L96.9616 117.037Z" fill="#F3DF4B" stroke="black" stroke-width="9"/>
<path d="M65.5289 354.379C59.7417 348.596 59.7417 339.22 65.5289 333.437L96.967 302.025C102.755 296.242 112.138 296.242 117.925 302.025C123.713 307.807 123.713 317.183 117.925 322.966L86.4878 354.379C80.7001 360.162 71.3166 360.162 65.5289 354.379Z" fill="#F3DF4B" stroke="black" stroke-width="9"/>
<path d="M303.054 96.0947C297.267 101.877 297.267 111.253 303.054 117.036C308.842 122.819 318.225 122.819 324.013 117.036L355.451 85.6235C361.238 79.8409 361.238 70.465 355.451 64.682C349.663 58.899 340.28 58.899 334.492 64.682L303.054 96.0947Z" fill="#F3DF4B" stroke="black" stroke-width="9"/>
</svg>
