<svg width="332" height="258" viewBox="0 0 332 258" fill="none" xmlns="http://www.w3.org/2000/svg">
<path d="M138.573 50.4857C128.479 30.8579 96.514 11.9312 81.7931 4.92135C64.4086 15.5764 59.5951 64.5055 59.3615 87.6381C36.0303 122.517 28.0698 151.216 28.7408 174.215C29.0828 185.933 31.6658 196.172 35.5984 204.994C46.9043 230.357 69.3646 244.011 81.7931 247.464C107.029 254.474 114.74 252.371 168.015 252.371C210.635 252.371 241.385 249.099 251.433 247.464C275.4 236.812 289.825 222.557 297.536 206.728C302.598 196.337 304.767 185.268 304.844 174.095C305.069 141.357 287.329 107.725 271.761 87.6381C270.593 61.2342 264.892 7.72531 251.433 4.92135C237.974 2.11739 205.167 34.1292 190.447 50.4857H138.573Z" fill="#FF9D74"/>
<path d="M0.478271 171.757L48.8466 175.963M7.48818 226.434L48.8466 194.89M283.678 175.963L331.346 171.757M280.173 194.89L326.439 226.434M81.7931 4.92135C96.514 11.9312 128.479 30.8579 138.573 50.4857H190.447C205.167 34.1292 237.974 2.11739 251.433 4.92135C264.892 7.72531 270.593 61.2342 271.761 87.6381C300.736 125.024 337.234 209.33 251.433 247.464C241.385 249.099 210.635 252.371 168.015 252.371C114.74 252.371 107.029 254.474 81.7931 247.464C56.5575 240.454 -10.0366 191.385 59.3615 87.6381C59.5951 64.5055 64.4086 15.5764 81.7931 4.92135Z" stroke="black" stroke-width="9" stroke-linejoin="round"/>
<path d="M164.58 226.106L113.068 210.12L111.223 199.791L105.75 169.144L104.186 160.384L164.58 150.613L224.086 160.384L222.365 169.144L216.345 199.791L214.316 210.12L164.58 226.106Z" fill="#A5B2D2"/>
<path d="M105.75 169.144L104.186 160.384L164.58 150.613L224.086 160.384L222.365 169.144M105.75 169.144L26.917 150.613M105.75 169.144L111.223 199.791M46.5209 221.087L111.223 199.791M111.223 199.791L113.068 210.12L164.58 226.106L214.316 210.12L216.345 199.791M304.907 150.613L222.365 169.144M222.365 169.144L216.345 199.791M289.573 221.087L216.345 199.791" stroke="black" stroke-width="9" stroke-linejoin="round"/>
</svg>
