<svg width="288" height="288" viewBox="0 0 288 288" fill="none" xmlns="http://www.w3.org/2000/svg">
<circle cx="143.889" cy="143.878" r="139.217" fill="#E97EBD" stroke="black" stroke-width="9"/>
<path d="M167.969 72.0988C185.02 77.8187 199.478 89.4218 208.754 104.83C218.029 120.238 221.517 138.445 218.592 156.191C215.668 173.936 206.521 190.061 192.791 201.677C179.061 213.294 161.645 219.643 143.66 219.588C125.675 219.534 108.297 213.079 94.638 201.379C80.9788 189.68 71.9305 173.5 69.1134 155.737C66.2963 137.975 69.8944 119.789 79.2635 104.437C88.6325 89.0856 103.16 77.5705 120.246 71.9541" stroke="black" stroke-width="9" stroke-linecap="round" stroke-linejoin="round"/>
<rect x="139.39" y="53.0195" width="9" height="71.2437" rx="4.5" fill="black"/>
</svg>
