<svg width="398" height="444" viewBox="0 0 398 444" fill="none" xmlns="http://www.w3.org/2000/svg">
<path d="M40.4666 177.57V94.9493C43.5884 78.2365 79.6715 44.811 199.029 44.811C318.386 44.811 354.469 78.2365 357.591 94.9493V174.764C353.233 179.455 345.268 185.579 333.559 191.758L322.105 365.028C315.021 376.299 280.489 398.842 199.029 398.842C117.569 398.842 81.3818 376.299 73.4709 365.028L62.605 191.758C51.9261 186.524 44.5851 181.464 40.4666 177.57Z" fill="#E6703F"/>
<path d="M357.591 94.9493C357.591 123.309 286.6 146.299 199.029 146.299C111.457 146.299 40.4666 123.309 40.4666 94.9493M357.591 94.9493V174.764C353.233 179.455 345.268 185.579 333.559 191.758M357.591 94.9493C354.469 78.2365 318.386 44.811 199.029 44.811C79.6715 44.811 43.5884 78.2365 40.4666 94.9493M40.4666 94.9493V177.57C44.5851 181.464 51.9261 186.524 62.605 191.758M62.605 191.758C88.2678 204.335 133.207 217.909 199.029 218.675C263.26 219.422 307.606 205.453 333.559 191.758M62.605 191.758L73.4709 365.028C81.3818 376.299 117.569 398.842 199.029 398.842C280.489 398.842 315.021 376.299 322.105 365.028L333.559 191.758" stroke="black" stroke-width="9"/>
<path d="M328.827 94.9488C328.827 97.967 326.651 101.84 320.254 106.164C314.012 110.383 304.685 114.359 292.755 117.769C268.957 124.573 235.818 128.841 199.029 128.841C162.24 128.841 129.101 124.573 105.303 117.769C93.3729 114.359 84.0458 110.383 77.8044 106.164C71.4065 101.84 69.2307 97.967 69.2307 94.9488C69.2307 91.9305 71.4065 88.0573 77.8044 83.7331C84.0458 79.5147 93.3729 75.5385 105.303 72.1281C129.101 65.3248 162.24 61.0566 199.029 61.0566C235.818 61.0566 268.957 65.3248 292.755 72.1281C304.685 75.5385 314.012 79.5147 320.254 83.7331C326.651 88.0573 328.827 91.9305 328.827 94.9488Z" fill="#3A2314" stroke="black" stroke-width="9"/>
</svg>
