<svg width="241" height="331" viewBox="0 0 241 331" fill="none" xmlns="http://www.w3.org/2000/svg">
<path d="M159.127 61.957C157.053 59.9794 156.792 56.6848 156.921 55.2847L177.366 74.776L175.084 77.1696L159.127 61.957Z" fill="#BFBFBF" stroke="black" stroke-width="1.125" stroke-linejoin="round"/>
<path d="M140.929 120.377L177.56 116.142L180.017 115.859L190.331 125.692L142.71 129.293L140.929 120.377Z" fill="white" stroke="black" stroke-width="1.125"/>
<path d="M210.947 55.3498L198.871 68.0159L202.063 71.0584L213.472 59.0905C216.591 55.8193 223.317 58.2978 226.29 59.946C226.752 60.7503 227.188 61.6493 227.592 62.6517C228.309 73.0825 221.392 83.2668 217.844 87.0551L222.807 90.8349C226.267 86.0741 232.068 73.7723 227.592 62.6517C227.188 61.6493 226.752 60.7503 226.29 59.946C221.625 51.8276 214.298 53.3484 210.947 55.3498Z" fill="white"/>
<path d="M227.592 62.6517C232.068 73.7723 226.267 86.0741 222.807 90.8349L217.844 87.0551C221.392 83.2668 228.309 73.0825 227.592 62.6517ZM227.592 62.6517C227.188 61.6493 226.752 60.7503 226.29 59.946M226.29 59.946C221.625 51.8276 214.298 53.3484 210.947 55.3498L198.871 68.0159L202.063 71.0584C204.567 68.4321 210.354 62.3617 213.472 59.0905C216.591 55.8193 223.317 58.2978 226.29 59.946Z" stroke="black" stroke-width="1.125"/>
<path d="M184.854 88.9561C190.882 82.6329 194.966 75.953 196.298 70.9752C197.127 67.8773 196.842 65.6479 195.605 64.4692C194.86 63.7585 192.773 63.1725 188.936 64.753C185.136 66.3185 179.773 69.962 172.706 77.3749C165.638 84.7878 162.255 90.3193 160.873 94.1899C159.478 98.0976 160.162 100.154 160.908 100.865C162.144 102.043 164.385 102.222 167.44 101.246C172.348 99.6776 178.825 95.2793 184.854 88.9561ZM197.803 66.5642C198.015 67.9363 197.845 69.5445 197.385 71.2661C195.986 76.4939 191.767 83.3348 185.668 89.7324C179.569 96.1299 172.937 100.67 167.782 102.318C166.084 102.86 164.486 103.106 163.106 102.96L171.45 110.915L190.267 128.854L200.056 138.186C209.851 134.466 216.565 130.546 221.802 124.995C227.045 119.439 230.848 112.205 234.741 101.779L224.964 92.4582L206.147 74.519L197.803 66.5642Z" fill="white" stroke="black" stroke-width="1.125"/>
<path d="M142.776 120.837L135.458 112.947C128.206 120.554 134.493 132.08 138.543 136.892L144.145 129.22L142.776 120.837Z" fill="white" stroke="black" stroke-width="1.125" stroke-linejoin="round"/>
<path d="M224.691 92.1979L206.759 75.1022C202.829 85.3013 198.847 92.4194 193.472 97.9889C188.109 103.546 181.396 107.523 172.07 111.505L189.989 128.589C199.567 124.127 206.298 119.953 211.602 114.452C216.905 108.952 220.816 102.09 224.691 92.1979Z" fill="#A5B2D2" stroke="black" stroke-width="1.125"/>
<path d="M185.173 89.2611C190.917 83.2361 194.896 76.8873 196.411 71.9956C193.298 72.1949 186.196 74.4355 178.305 82.7129C170.413 90.9902 168.515 98.1914 168.464 101.31C173.278 99.5635 179.429 95.2861 185.173 89.2611Z" fill="#BFBFBF" stroke="black" stroke-width="1.125"/>
<path d="M183.655 97.3341L189.645 91.0509L175.083 77.1692L159.126 61.9566C157.052 59.9791 156.791 56.6844 156.92 55.2843C149.254 60.7694 151.203 66.2068 153.136 68.2398L183.655 97.3341Z" fill="white"/>
<path d="M189.645 91.0509L190.033 90.6438L190.44 91.0319L190.052 91.4391L189.645 91.0509ZM183.655 97.3341L184.062 97.7222L183.674 98.1294L183.266 97.7412L183.655 97.3341ZM153.136 68.2398L152.748 68.647L152.738 68.6374L152.729 68.6274L153.136 68.2398ZM156.92 55.2843L156.593 54.8269C156.772 54.6988 157.009 54.6869 157.2 54.7964C157.391 54.9059 157.5 55.1167 157.48 55.3359L156.92 55.2843ZM190.052 91.4391L184.062 97.7222L183.247 96.946L189.237 90.6628L190.052 91.4391ZM183.266 97.7412L152.748 68.647L153.524 67.8327L184.043 96.927L183.266 97.7412ZM152.729 68.6274C151.669 67.5124 150.621 65.4886 150.869 63.0007C151.119 60.4961 152.669 57.634 156.593 54.8269L157.247 55.7418C153.505 58.4197 152.197 61.0188 151.988 63.1124C151.778 65.2228 152.671 66.9341 153.544 67.8522L152.729 68.6274ZM157.48 55.3359C157.421 55.9759 157.45 57.0864 157.743 58.2688C158.036 59.4516 158.58 60.659 159.514 61.5495L158.738 62.3638C157.598 61.2767 156.975 59.848 156.651 58.5391C156.327 57.2297 156.29 55.9928 156.36 55.2328L157.48 55.3359ZM159.514 61.5495L175.472 76.7621L174.695 77.5764L158.738 62.3638L159.514 61.5495ZM175.472 76.7621L190.033 90.6438L189.256 91.4581L174.695 77.5764L175.472 76.7621Z" fill="black"/>
<path d="M82.499 276.976V257.177C83.2471 253.172 91.8938 245.162 120.496 245.162C149.098 245.162 157.744 253.172 158.493 257.177V276.303C157.448 277.427 155.54 278.895 152.734 280.375L149.989 321.897C148.291 324.598 140.016 330 120.496 330C100.975 330 92.3037 324.598 90.408 321.897L87.8041 280.375C85.2451 279.121 83.486 277.909 82.499 276.976Z" fill="#E6703F"/>
<path d="M158.493 257.177C158.493 263.973 141.481 269.482 120.496 269.482C99.5108 269.482 82.499 263.973 82.499 257.177M158.493 257.177V276.303C157.448 277.427 155.54 278.895 152.734 280.375M158.493 257.177C157.744 253.172 149.098 245.162 120.496 245.162C91.8938 245.162 83.2471 253.172 82.499 257.177M82.499 257.177V276.976C83.486 277.909 85.2451 279.121 87.8041 280.375M87.8041 280.375C93.9538 283.389 104.723 286.642 120.496 286.826C135.888 287.005 146.515 283.657 152.734 280.375M87.8041 280.375L90.408 321.897C92.3037 324.598 100.975 330 120.496 330C140.016 330 148.291 324.598 149.989 321.897L152.734 280.375" stroke="black" stroke-width="1.125"/>
<path d="M152.116 257.177C152.116 258.162 151.413 259.225 149.834 260.292C148.275 261.346 145.982 262.317 143.098 263.142C137.337 264.788 129.346 265.815 120.496 265.815C111.646 265.815 103.655 264.788 97.8941 263.142C95.0099 262.317 92.7167 261.346 91.1575 260.292C89.5787 259.225 88.876 258.162 88.876 257.177C88.876 256.192 89.5787 255.129 91.1575 254.062C92.7167 253.008 95.0099 252.037 97.8941 251.213C103.655 249.566 111.646 248.54 120.496 248.54C129.346 248.54 137.337 249.566 143.098 251.213C145.982 252.037 148.275 253.008 149.834 254.062C151.413 255.129 152.116 256.192 152.116 257.177Z" fill="#3A2314" stroke="black" stroke-width="1.125"/>
<path d="M104.879 156.272C105.932 155.087 109.672 152.743 116.203 152.849C116.378 147.757 117.52 137.627 120.68 137.837C124.63 138.101 129.766 148.372 130.029 152.849C132.443 157.852 136.929 169.888 135.56 177.999C140.344 187.919 150.097 210.103 150.834 219.478C151.756 231.197 150.571 258.192 139.773 260.43H134.339C132.186 262.111 127.656 264.085 124.828 260.43H118.465C116.478 262.1 113.436 263.21 110.21 260.43H102.679C96.4491 256.419 85.4114 242.614 91.1018 219.478C96.7923 196.343 100.474 187.064 101.604 185.317C98.628 183.577 92.8788 177.154 93.6863 165.388C91.4346 161.638 87.7653 152.698 91.1018 146.93C93.7049 147.006 100.105 148.98 104.879 156.272Z" fill="#CFBFA5"/>
<path d="M134.339 260.43H139.773C150.571 258.192 151.756 231.197 150.834 219.478C150.097 210.103 140.344 187.919 135.56 177.999C136.929 169.888 132.443 157.852 130.029 152.849C129.766 148.372 124.63 138.101 120.68 137.837C117.52 137.627 116.378 147.757 116.203 152.849C109.672 152.743 105.932 155.087 104.879 156.272C100.105 148.98 93.7049 147.006 91.1018 146.93C87.7653 152.698 91.4346 161.638 93.6863 165.388C92.8788 177.154 98.628 183.577 101.604 185.317C100.474 187.064 96.7923 196.343 91.1018 219.478C85.4114 242.614 96.4491 256.419 102.679 260.43H110.21M134.339 260.43C134.825 259.097 134.969 256.063 131.649 254.588C134.39 250.131 139.948 236.53 140.255 217.78M134.339 260.43C132.186 262.111 127.656 264.085 124.828 260.43M110.21 260.43C109.365 259.456 108.581 256.816 112.208 254.05C108.263 246.468 100.62 228.599 101.604 217.78M110.21 260.43C113.436 263.21 116.478 262.1 118.465 260.43M124.828 260.43C124.425 259.909 124.056 259.274 123.734 258.507V227.77C123.709 227.078 123.258 225.695 121.66 225.695C120.061 225.695 119.405 227.078 119.277 227.77L120.199 258.507C119.797 259.111 119.204 259.809 118.465 260.43M124.828 260.43H118.465" stroke="black" stroke-width="1.125" stroke-linecap="round" stroke-linejoin="round"/>
<path d="M116.274 175.306C115.709 175.434 114.909 174.649 114.542 174.187C115.311 173.498 116.916 173.321 117.622 173.318C117.473 173.767 117.036 174.773 116.48 175.208C116.416 175.258 116.347 175.29 116.274 175.306Z" fill="#E7A7AB"/>
<path d="M116.48 175.208C115.925 175.643 114.957 174.708 114.542 174.187C115.311 173.498 116.916 173.321 117.622 173.318C117.473 173.767 117.036 174.773 116.48 175.208ZM116.48 175.208C116.242 174.942 115.452 176.995 115.087 178.056M116.48 175.208C117.192 175.263 118.43 176.24 118.96 176.721M102.37 172.369C102.826 171.285 104.491 169.443 107.503 170.743M120.763 168.176C121.476 166.95 123.467 165.08 125.725 167.407" stroke="black" stroke-width="1.125" stroke-linecap="round" stroke-linejoin="round"/>
<path d="M101.97 157.809C101.054 160.237 97.8898 162.331 96.4225 163.074C94.28 161.747 92.3765 152.925 94.263 151.658C95.7722 150.644 100.03 155.336 101.97 157.809Z" fill="#E7A7AB" stroke="black" stroke-width="1.125"/>
<path d="M118.919 152.249C121.177 153.526 124.948 153.108 126.551 152.739C127.347 150.348 123.159 142.354 120.898 142.589C119.09 142.777 118.825 149.107 118.919 152.249Z" fill="#E7A7AB" stroke="black" stroke-width="1.125"/>
<path d="M112.501 155.962C112.154 156.323 111.376 156.911 110.045 156.66L107.147 146.469C104.337 150.454 96.9061 156.174 89.6688 147.17C91.3674 143.126 96.9196 136.294 105.54 141.308C105.685 140.367 106.429 138.896 108.245 140.539C109.462 137.045 114.234 131.551 123.578 137.528C123.093 142.086 119.669 150.101 109.852 145.7L112.501 155.962Z" fill="#448E60"/>
<path d="M108.245 140.539C106.429 138.896 105.685 140.367 105.54 141.308M108.245 140.539C109.462 137.045 114.234 131.551 123.578 137.528C123.093 142.086 119.669 150.101 109.852 145.7M108.245 140.539L109.309 143.955M105.54 141.308C96.9196 136.294 91.3674 143.126 89.6688 147.17C96.9061 156.174 104.337 150.454 107.147 146.469M105.54 141.308L106.344 143.888M109.852 145.7L112.501 155.962C112.154 156.323 111.376 156.911 110.045 156.66L107.147 146.469M109.852 145.7L109.309 143.955M109.309 143.955C109.766 142.245 112.574 138.761 120.146 138.504M107.147 146.469L106.344 143.888M93.442 146.996C94.8993 144.931 99.52 141.418 106.344 143.888" stroke="black" stroke-width="1.125" stroke-linecap="round" stroke-linejoin="round"/>
<path d="M128.725 122.579C120.368 121.3 106.069 133.905 102.795 149.254C99.5202 164.603 97.1847 203.297 96.0762 221.29M128.008 128.453C120.845 131.096 109.79 147.15 109.176 178.871C108.562 210.593 108.92 224.53 109.176 221.29M129.563 133.981C124.678 133.981 119.705 197.507 119.705 223.907M133.709 139.165C130.383 139.335 129.923 164.805 129.923 221.29M128.725 126.034C116.298 125.515 102.795 140.443 102.795 211.096M128.725 131.476C122.454 133.353 113.956 156.686 113.956 213.72M131.377 136.832C128.051 137.003 125.671 158.11 125.671 214.595" stroke="#A5B2D2" stroke-width="1.125" stroke-linecap="round" stroke-linejoin="round" stroke-dasharray="2.25 2.25"/>
</svg>
