<svg width="462" height="377" viewBox="0 0 462 377" fill="none" xmlns="http://www.w3.org/2000/svg">
<path d="M191.92 30.572C191.92 19.4923 183.397 9.97385 179.135 6.59961V115.804H191.92V30.572Z" fill="#BFBFBF" stroke="black" stroke-width="9" stroke-linejoin="round"/>
<path d="M403.932 135.491L294.365 226.694L287.021 232.814V287.903L424.131 164.259L403.932 135.491Z" fill="white" stroke="black" stroke-width="9"/>
<path d="M35.1984 157.947H102.851V174.993H38.9275C21.4549 174.993 10.448 200.426 7.12859 213.142C8.14624 216.581 9.49832 220.199 11.227 224.002C38.5012 253.833 85.45 261.646 105.515 261.823L102.851 285.795C80.3004 282.776 30.4041 266.192 11.227 224.002C9.49832 220.199 8.14624 216.581 7.12859 213.142C-3.1432 178.431 20.658 161.986 35.1984 157.947Z" fill="white"/>
<path d="M11.227 224.002C30.4041 266.192 80.3004 282.776 102.851 285.795L105.515 261.823C85.45 261.646 38.5012 253.833 11.227 224.002ZM11.227 224.002C9.49832 220.199 8.14624 216.581 7.12859 213.142M7.12859 213.142C-3.1432 178.431 20.658 161.986 35.1984 157.947H102.851V174.993C88.8237 174.993 56.4001 174.993 38.9275 174.993C21.4549 174.993 10.448 200.426 7.12859 213.142Z" stroke="black" stroke-width="9"/>
<path d="M198.839 172.259C165.278 172.259 136.125 165.895 119.112 156.601C108.393 150.745 103.965 144.596 103.965 139.348C103.965 136.78 106.779 129.97 121.169 123.569C135.272 117.296 159.411 112.023 198.839 112.023C238.268 112.023 262.407 117.296 276.51 123.569C290.9 129.97 293.713 136.78 293.713 139.348C293.713 144.596 289.286 150.745 278.567 156.601C261.554 165.895 232.401 172.259 198.839 172.259ZM103.965 156.98C107.037 159.77 110.734 162.28 114.797 164.499C133.627 174.786 164.456 181.259 198.839 181.259C233.223 181.259 264.051 174.786 282.882 164.499C286.945 162.28 290.641 159.77 293.713 156.98V195.654V296.162V346.981C257.971 363.95 229.794 371.933 201.131 371.785C172.403 371.636 142.726 363.319 103.965 346.846V296.162V195.654V156.98Z" fill="white" stroke="black" stroke-width="9"/>
<path d="M400.292 141.89L397.737 100.365C438.367 100.365 453.849 148.704 456.511 172.874L420.097 168.082L400.292 141.89Z" fill="white" stroke="black" stroke-width="9" stroke-linejoin="round"/>
<path d="M103.965 293.14V202.395C141.611 217.77 171.615 225.301 201.138 225.122C230.525 224.943 259.033 217.127 293.713 202.483V293.091C256.507 307.562 227.563 314.953 198.815 315.117C170.074 315.28 141.137 308.221 103.965 293.14Z" fill="#A5B2D2" stroke="black" stroke-width="9"/>
<path d="M198.839 173.966C168.79 173.966 142.274 168.865 124.843 161.126C135.102 153.318 159.011 141.929 198.839 141.929C238.668 141.929 262.577 153.318 272.836 161.126C255.404 168.865 228.889 173.966 198.839 173.966Z" fill="#BFBFBF" stroke="black" stroke-width="9"/>
<path d="M225.48 193.577H191.92V115.802V30.5707C191.92 19.4909 183.397 9.9725 179.135 6.59827C214.933 -0.220306 224.948 19.7388 225.48 30.5707V193.577Z" fill="white"/>
<path d="M191.92 193.577H187.42V198.077H191.92V193.577ZM225.48 193.577V198.077H229.98V193.577H225.48ZM225.48 30.5707H229.98V30.4601L229.975 30.3496L225.48 30.5707ZM179.135 6.59827L178.293 2.17774C176.564 2.50722 175.185 3.8153 174.765 5.52536C174.345 7.23542 174.961 9.03324 176.342 10.1263L179.135 6.59827ZM191.92 198.077H225.48V189.077H191.92V198.077ZM229.98 193.577V30.5707H220.98V193.577H229.98ZM229.975 30.3496C229.655 23.8485 226.54 14.8406 218.299 8.4164C209.95 1.90893 197.065 -1.39778 178.293 2.17774L179.977 11.0188C197.003 7.77574 207.024 11.0393 212.766 15.5147C218.614 20.0733 220.773 26.4609 220.986 30.7917L229.975 30.3496ZM176.342 10.1263C178.095 11.5141 180.947 14.3655 183.329 18.1105C185.714 21.8587 187.42 26.17 187.42 30.5707H196.42C196.42 23.8915 193.865 17.9038 190.923 13.2793C187.978 8.65157 184.438 5.05666 181.929 3.07025L176.342 10.1263ZM187.42 30.5707V115.802H196.42V30.5707H187.42ZM187.42 115.802V193.577H196.42V115.802H187.42Z" fill="black"/>
</svg>
