<svg width="241" height="331" viewBox="0 0 241 331" fill="none" xmlns="http://www.w3.org/2000/svg">
<path d="M82.8838 277.31V257.511C83.6319 253.506 92.2786 245.496 120.881 245.496C149.483 245.496 158.129 253.506 158.877 257.511V276.637C157.833 277.761 155.924 279.229 153.118 280.709L150.374 322.231C148.676 324.932 140.401 330.334 120.881 330.334C101.36 330.334 92.6884 324.932 90.7927 322.231L88.1889 280.709C85.6299 279.455 83.8707 278.243 82.8838 277.31Z" fill="#E6703F"/>
<path d="M158.877 257.511C158.877 264.307 141.866 269.816 120.881 269.816C99.8955 269.816 82.8838 264.307 82.8838 257.511M158.877 257.511V276.637C157.833 277.761 155.924 279.229 153.118 280.709M158.877 257.511C158.129 253.506 149.483 245.496 120.881 245.496C92.2786 245.496 83.6319 253.506 82.8838 257.511M82.8838 257.511V277.31C83.8707 278.243 85.6299 279.455 88.1889 280.709M88.1889 280.709C94.3386 283.723 105.108 286.976 120.881 287.16C136.272 287.339 146.899 283.991 153.118 280.709M88.1889 280.709L90.7927 322.231C92.6884 324.932 101.36 330.334 120.881 330.334C140.401 330.334 148.676 324.932 150.374 322.231L153.118 280.709" stroke="black" stroke-width="1.125"/>
<path d="M152.5 257.511C152.5 258.496 151.798 259.559 150.219 260.626C148.66 261.679 146.367 262.651 143.482 263.475C137.722 265.122 129.73 266.148 120.881 266.148C112.031 266.148 104.04 265.122 98.2788 263.475C95.3946 262.651 93.1015 261.679 91.5423 260.626C89.9635 259.559 89.2607 258.496 89.2607 257.511C89.2607 256.526 89.9635 255.463 91.5423 254.396C93.1015 253.342 95.3946 252.371 98.2788 251.546C104.04 249.899 112.031 248.873 120.881 248.873C129.73 248.873 137.722 249.899 143.482 251.546C146.367 252.371 148.66 253.342 150.219 254.396C151.798 255.463 152.5 256.526 152.5 257.511Z" fill="#3A2314" stroke="black" stroke-width="1.125"/>
<path d="M154.15 217.047C153.713 217.29 152.713 217.49 151.516 216.859L151.901 201.899C148.048 204.879 139.276 208.16 135.009 197.439C137.817 194.078 145.123 189.185 151.881 196.501C152.295 195.646 153.437 194.46 154.689 196.561C156.876 193.582 163.043 189.738 170.21 198.186C168.409 202.395 162.789 209.041 154.708 201.959L154.15 217.047Z" fill="#448E60"/>
<path d="M154.689 196.561C153.437 194.46 152.295 195.646 151.881 196.501M154.689 196.561C156.876 193.582 163.043 189.738 170.21 198.186C168.409 202.395 162.789 209.041 154.708 201.959M154.689 196.561L154.701 200.134M151.881 196.501C145.123 189.185 137.817 194.078 135.009 197.439C139.276 208.16 148.048 204.879 151.901 201.899M151.881 196.501L151.891 199.2M154.708 201.959L154.15 217.047C153.713 217.29 152.713 217.49 151.516 216.859L151.901 201.899M154.708 201.959L154.701 200.134M154.701 200.134C155.64 198.636 159.343 196.134 166.646 198.11M151.901 201.899L151.891 199.2M138.662 198.381C140.659 196.837 146.101 194.84 151.891 199.2" stroke="black" stroke-width="1.125" stroke-linecap="round" stroke-linejoin="round"/>
<path d="M133.878 204.099C132.665 204.099 133.373 212.901 133.878 217.303C131.453 217.303 131.244 222.359 131.442 224.887C126.991 222.15 120.932 218.97 113.098 215.787C92.3175 207.345 57.684 235.485 73.9184 254.101C90.1529 272.716 132.579 267.088 154.658 260.162C172.321 254.62 172.263 241.402 170.026 235.485C171.238 232.022 170.531 223.652 170.026 219.9C171.109 216.004 172.927 207.908 171.542 206.696C170.156 205.484 164.326 209.799 161.584 212.108C159.16 210.03 148.741 210.376 143.835 210.809C141.021 208.572 135.09 204.099 133.878 204.099Z" fill="#CFBFA5"/>
<path d="M140.588 231.805C139.405 230.47 136.436 227.957 131.442 224.887M131.442 224.887C126.991 222.15 120.932 218.97 113.098 215.787C92.3175 207.345 57.684 235.485 73.9184 254.101C90.1529 272.716 132.579 267.088 154.658 260.162C172.321 254.62 172.263 241.402 170.026 235.485C171.238 232.022 170.531 223.652 170.026 219.9C171.109 216.004 172.927 207.908 171.542 206.696C170.156 205.484 164.326 209.799 161.584 212.108C159.16 210.03 148.741 210.376 143.835 210.809C141.021 208.572 135.09 204.099 133.878 204.099C132.665 204.099 133.373 212.901 133.878 217.303C131.453 217.303 131.244 222.359 131.442 224.887ZM136.908 215.787C138.64 215.427 142.146 214.445 142.32 213.406M167.212 218.601C165.909 218.14 163.304 216.708 163.304 214.663M166.686 232.704C165.482 231.576 162.776 229.321 161.584 229.321M145.35 227.066C144.222 225.844 140.666 223.698 135.462 224.887" stroke="black" stroke-width="1.125" stroke-linecap="round" stroke-linejoin="round"/>
<path d="M96.0456 233.655C96.6423 231.852 98.5874 230.874 100.39 231.471L119.777 237.887C121.58 238.484 122.558 240.429 121.961 242.232C121.364 244.035 119.419 245.012 117.617 244.416L98.2295 237.999C96.4268 237.403 95.449 235.458 96.0456 233.655Z" fill="#E9BD9A"/>
<path d="M107.349 235.732L110.972 236.892L109.898 240.114L106.231 238.817L107.349 235.732Z" fill="#E9BD9A"/>
<path d="M96.0456 233.655C96.6423 231.852 98.5874 230.874 100.39 231.471L119.777 237.887C121.58 238.484 122.558 240.429 121.961 242.232C121.364 244.035 119.419 245.012 117.617 244.416L98.2295 237.999C96.4268 237.403 95.449 235.458 96.0456 233.655Z" stroke="black" stroke-width="1.125"/>
<path d="M107.349 235.732L110.972 236.892L109.898 240.114L106.231 238.817L107.349 235.732Z" stroke="black" stroke-width="1.125"/>
</svg>
