<svg width="481" height="438" viewBox="0 0 481 438" fill="none" xmlns="http://www.w3.org/2000/svg">
<path d="M322.436 111.104L261.094 111.047C258.425 111.045 255.781 111.57 253.315 112.591C250.848 113.613 248.608 115.111 246.722 117C233.852 129.869 243.151 151.752 261.094 151.752H281.871L242.47 202.209C233.682 213.207 238.926 230.102 252.646 234.212C254.895 234.893 257.246 235.171 259.591 235.034L320.933 235.119C323.604 235.119 326.25 234.59 328.716 233.563C331.182 232.537 333.421 231.033 335.304 229.138C348.173 216.269 338.876 194.385 320.933 194.385H300.184L339.557 143.929C341.586 141.321 342.949 138.259 343.531 135.006C344.113 131.754 343.895 128.409 342.897 125.259C341.898 122.109 340.148 119.25 337.798 116.927C335.449 114.604 332.569 112.888 329.408 111.926C327.147 111.26 324.79 110.982 322.436 111.104Z" fill="#37539A"/>
<path d="M431.598 74.4797L392.195 74.4231C390.194 74.4256 388.213 74.8223 386.364 75.5908C384.516 76.3593 382.837 77.4844 381.424 78.9019C371.815 88.5112 378.731 104.896 392.195 104.896H401.153L378.533 133.866C373.515 140.3 374.366 149.059 380.659 154.785C383.664 157.535 387.349 158.385 391.233 158.414L430.634 158.47C434.675 158.46 438.548 156.85 441.405 153.992C451.015 144.382 444.07 127.998 430.634 127.998H421.676L444.297 99.0278C445.529 97.4546 446.438 95.6538 446.972 93.7284C447.507 91.803 447.656 89.7911 447.411 87.808C447.166 85.8249 446.532 83.9097 445.545 82.1722C444.558 80.4347 443.238 78.9091 441.66 77.6829C438.457 75.1601 435.453 74.4797 431.598 74.4797Z" fill="#37539A"/>
<path d="M335.56 5.39941L296.13 5.37109C292.101 5.37154 288.236 6.97236 285.387 9.82153C275.777 19.4592 282.694 35.8152 296.13 35.8152H305.087L282.495 64.7854C280.074 67.8755 278.944 71.7823 279.34 75.6874C279.737 79.5924 281.629 83.1926 284.621 85.7334C287.626 88.4546 291.311 89.3333 295.166 89.3333L334.596 89.3901C336.594 89.394 338.574 88.9999 340.418 88.231C342.263 87.462 343.935 86.3336 345.339 84.9114C354.977 75.3018 348.032 58.946 334.596 58.946H325.639L348.231 29.9758C349.465 28.406 350.378 26.608 350.917 24.6848C351.455 22.7616 351.609 20.751 351.37 18.7682C351.13 16.7854 350.502 14.8693 349.52 13.1298C348.539 11.3903 347.224 9.86154 345.651 8.6311C342.476 6.10815 339.359 5.42773 335.56 5.39941Z" fill="#37539A"/>
<path d="M322.436 111.104L261.094 111.047C258.425 111.045 255.781 111.57 253.315 112.591C250.848 113.613 248.608 115.111 246.722 117C233.852 129.869 243.151 151.752 261.094 151.752H281.871L242.47 202.209C233.682 213.207 238.926 230.102 252.646 234.212C254.895 234.893 257.246 235.171 259.591 235.034L320.933 235.119C323.604 235.119 326.25 234.59 328.716 233.563C331.182 232.537 333.421 231.033 335.304 229.138C348.173 216.269 338.876 194.385 320.933 194.385H300.184L339.557 143.929C341.586 141.321 342.949 138.259 343.531 135.006C344.113 131.754 343.895 128.409 342.897 125.259C341.898 122.109 340.148 119.25 337.798 116.927C335.449 114.604 332.569 112.888 329.408 111.926C327.147 111.26 324.79 110.982 322.436 111.104Z" stroke="black" stroke-width="9"/>
<path d="M431.598 74.4797L392.195 74.4231C390.194 74.4256 388.213 74.8223 386.364 75.5908C384.516 76.3593 382.837 77.4844 381.424 78.9019C371.815 88.5112 378.731 104.896 392.195 104.896H401.153L378.533 133.866C373.515 140.3 374.366 149.059 380.659 154.785C383.664 157.535 387.349 158.385 391.233 158.414L430.634 158.47C434.675 158.46 438.548 156.85 441.405 153.992C451.015 144.382 444.07 127.998 430.634 127.998H421.676L444.297 99.0278C445.529 97.4546 446.438 95.6538 446.972 93.7284C447.507 91.803 447.656 89.7911 447.411 87.808C447.166 85.8249 446.532 83.9097 445.545 82.1722C444.558 80.4347 443.238 78.9091 441.66 77.6829C438.457 75.1601 435.453 74.4797 431.598 74.4797Z" stroke="black" stroke-width="9"/>
<path d="M335.56 5.39941L296.13 5.37109C292.101 5.37154 288.236 6.97236 285.387 9.82153C275.777 19.4592 282.694 35.8152 296.13 35.8152H305.087L282.495 64.7854C280.074 67.8755 278.944 71.7823 279.34 75.6874C279.737 79.5924 281.629 83.1926 284.621 85.7334C287.626 88.4546 291.311 89.3333 295.166 89.3333L334.596 89.3901C336.594 89.394 338.574 88.9999 340.418 88.231C342.263 87.462 343.935 86.3336 345.339 84.9114C354.977 75.3018 348.032 58.946 334.596 58.946H325.639L348.231 29.9758C349.465 28.406 350.378 26.608 350.917 24.6848C351.455 22.7616 351.609 20.751 351.37 18.7682C351.13 16.7854 350.502 14.8693 349.52 13.1298C348.539 11.3903 347.224 9.86154 345.651 8.6311C342.476 6.10815 339.359 5.42773 335.56 5.39941Z" stroke="black" stroke-width="9"/>
<path d="M149.529 243.038C150.181 243.435 150.833 243.86 151.485 244.314C160.301 250.323 167.09 258.861 170.959 268.805C171.534 270.276 172.666 271.461 174.109 272.103C175.553 272.745 177.191 272.792 178.669 272.235C186.484 269.268 194.985 268.594 203.171 270.293C211.356 271.992 218.886 275.992 224.876 281.824C230.866 287.655 235.066 295.076 236.984 303.213C238.901 311.35 238.454 319.866 235.698 327.758C232.941 335.65 227.989 342.591 221.422 347.766C214.856 352.94 206.95 356.132 198.631 356.966C190.313 357.801 181.93 356.243 174.467 352.476C167.004 348.709 160.771 342.89 156.502 335.702C155.69 334.342 154.376 333.355 152.842 332.957C151.309 332.559 149.681 332.782 148.31 333.576C140.234 338.283 131.054 340.762 121.707 340.762C112.359 340.762 103.179 338.283 95.1031 333.576C93.7272 332.773 92.0888 332.549 90.5475 332.953C89.0062 333.357 87.6885 334.356 86.8834 335.731C82.9957 342.289 77.4653 347.721 70.8385 351.491C41.8971 367.989 5.21643 347.154 5.21643 313.309C5.21643 282.326 36.3414 261.435 64.7448 272.235C65.4799 272.516 66.2631 272.65 67.0499 272.628C67.8368 272.606 68.6116 272.43 69.3302 272.109C70.0488 271.788 70.697 271.328 71.2379 270.756C71.7789 270.184 72.2022 269.512 72.483 268.776C75.2832 261.586 79.6245 255.096 85.2018 249.764C90.7791 244.431 97.4565 240.385 104.765 237.91C112.074 235.435 119.836 234.591 127.506 235.438C135.176 236.285 142.567 238.801 149.16 242.811C149.273 242.896 149.416 242.953 149.529 243.038Z" fill="#C7CDDE" stroke="black" stroke-width="9"/>
<path d="M390.137 298.649C392.863 293.36 391.724 287.218 387.289 283.312C382.896 279.407 376.672 279.041 371.75 282.336C348.806 297.835 321.916 305.28 294.091 303.774C230.346 300.439 177.746 247.839 174.41 184.094C172.946 156.228 180.35 129.379 195.849 106.435C199.144 101.554 198.778 95.289 194.872 90.8955C190.967 86.5021 184.825 85.363 179.536 88.0479C125.391 115.873 92.0739 173.151 94.6774 234.008C98.0539 314.433 163.752 380.09 244.177 383.507C246.373 383.589 248.57 383.629 250.726 383.629C309.102 383.629 363.329 350.801 390.096 298.608L390.137 298.649Z" fill="white" stroke="black" stroke-width="9"/>
<path d="M387.382 319.071C388.034 319.468 388.686 319.893 389.338 320.347C398.154 326.356 404.944 334.895 408.812 344.838C409.388 346.309 410.52 347.494 411.963 348.136C413.406 348.778 415.044 348.825 416.522 348.268C424.338 345.301 432.838 344.628 441.024 346.326C449.209 348.025 456.74 352.025 462.729 357.857C468.719 363.689 472.92 371.109 474.837 379.246C476.754 387.383 476.308 395.899 473.551 403.791C470.795 411.683 465.842 418.625 459.276 423.799C452.71 428.973 444.803 432.165 436.485 432.999C428.167 433.834 419.783 432.276 412.32 428.509C404.857 424.743 398.624 418.923 394.355 411.736C393.544 410.375 392.229 409.388 390.696 408.991C389.162 408.593 387.534 408.815 386.164 409.61C378.088 414.316 368.907 416.795 359.56 416.795C350.213 416.795 341.033 414.316 332.957 409.61C331.581 408.806 329.942 408.582 328.401 408.986C326.86 409.39 325.542 410.389 324.737 411.764C320.849 418.322 315.319 423.755 308.692 427.525C279.75 444.022 243.07 423.188 243.07 389.342C243.07 358.359 274.195 337.468 302.598 348.268C303.333 348.549 304.116 348.683 304.903 348.661C305.69 348.64 306.465 348.463 307.184 348.142C307.902 347.821 308.55 347.361 309.091 346.789C309.632 346.218 310.056 345.545 310.336 344.81C313.137 337.619 317.478 331.129 323.055 325.797C328.632 320.464 335.31 316.418 342.619 313.943C349.927 311.468 357.69 310.625 365.359 311.471C373.029 312.318 380.42 314.835 387.013 318.844C387.126 318.929 387.269 318.986 387.382 319.071Z" fill="#C7CDDE" stroke="black" stroke-width="9"/>
</svg>
