<svg width="241" height="331" viewBox="0 0 241 331" fill="none" xmlns="http://www.w3.org/2000/svg">
<path d="M82.8848 277.31V257.511C83.6329 253.506 92.2796 245.496 120.882 245.496C149.484 245.496 158.13 253.506 158.878 257.511V276.637C157.834 277.761 155.925 279.229 153.119 280.709L150.375 322.231C148.677 324.932 140.402 330.334 120.882 330.334C101.361 330.334 92.6894 324.932 90.7937 322.231L88.1899 280.709C85.6308 279.455 83.8717 278.243 82.8848 277.31Z" fill="#E6703F"/>
<path d="M158.878 257.511C158.878 264.307 141.867 269.816 120.882 269.816C99.8965 269.816 82.8848 264.307 82.8848 257.511M158.878 257.511V276.637C157.834 277.761 155.925 279.229 153.119 280.709M158.878 257.511C158.13 253.506 149.484 245.496 120.882 245.496C92.2796 245.496 83.6329 253.506 82.8848 257.511M82.8848 257.511V277.31C83.8717 278.243 85.6308 279.455 88.1899 280.709M88.1899 280.709C94.3395 283.723 105.109 286.976 120.882 287.16C136.273 287.339 146.9 283.991 153.119 280.709M88.1899 280.709L90.7937 322.231C92.6894 324.932 101.361 330.334 120.882 330.334C140.402 330.334 148.677 324.932 150.375 322.231L153.119 280.709" stroke="black" stroke-width="1.125"/>
<path d="M152.501 257.511C152.501 258.496 151.799 259.559 150.22 260.626C148.661 261.679 146.367 262.651 143.483 263.475C137.723 265.122 129.731 266.148 120.882 266.148C112.032 266.148 104.041 265.122 98.2798 263.475C95.3956 262.651 93.1025 261.679 91.5433 260.626C89.9645 259.559 89.2617 258.496 89.2617 257.511C89.2617 256.526 89.9645 255.463 91.5433 254.396C93.1025 253.342 95.3956 252.371 98.2798 251.546C104.041 249.899 112.032 248.873 120.882 248.873C129.731 248.873 137.723 249.899 143.483 251.546C146.367 252.371 148.661 253.342 150.22 254.396C151.799 255.463 152.501 256.526 152.501 257.511Z" fill="#3A2314" stroke="black" stroke-width="1.125"/>
<mask id="path-4-inside-1_206_936" fill="white">
<path fill-rule="evenodd" clip-rule="evenodd" d="M98.9316 204.099C97.7376 207.102 97.123 210.32 97.123 213.57L97.1221 213.57V261.09H144.642V213.57H144.641C144.641 210.32 144.027 207.102 142.833 204.099C141.639 201.096 139.888 198.368 137.682 196.069C135.476 193.771 132.857 191.948 129.974 190.704C127.092 189.46 124.002 188.82 120.882 188.82C117.762 188.82 114.672 189.46 111.79 190.704C108.907 191.948 106.288 193.771 104.082 196.069C101.876 198.368 100.126 201.096 98.9316 204.099Z"/>
</mask>
<path fill-rule="evenodd" clip-rule="evenodd" d="M98.9316 204.099C97.7376 207.102 97.123 210.32 97.123 213.57L97.1221 213.57V261.09H144.642V213.57H144.641C144.641 210.32 144.027 207.102 142.833 204.099C141.639 201.096 139.888 198.368 137.682 196.069C135.476 193.771 132.857 191.948 129.974 190.704C127.092 189.46 124.002 188.82 120.882 188.82C117.762 188.82 114.672 189.46 111.79 190.704C108.907 191.948 106.288 193.771 104.082 196.069C101.876 198.368 100.126 201.096 98.9316 204.099Z" fill="#D9D9D9"/>
<path d="M97.123 213.57L97.1253 214.695L98.248 214.693V213.57H97.123ZM98.9316 204.099L99.977 204.514L99.977 204.514L98.9316 204.099ZM97.1221 213.57L97.1198 212.445L95.9971 212.447V213.57H97.1221ZM97.1221 261.09H95.9971V262.215H97.1221V261.09ZM144.642 261.09V262.215H145.767V261.09H144.642ZM144.642 213.57H145.767V212.445H144.642V213.57ZM144.641 213.57H143.516V214.695H144.641V213.57ZM142.833 204.099L141.787 204.514L141.787 204.514L142.833 204.099ZM137.682 196.069L138.494 195.29L138.494 195.29L137.682 196.069ZM129.974 190.704L129.529 191.737L129.529 191.737L129.974 190.704ZM111.79 190.704L111.344 189.671L111.344 189.671L111.79 190.704ZM104.082 196.069L104.893 196.848L104.893 196.848L104.082 196.069ZM98.248 213.57C98.248 210.461 98.8359 207.384 99.977 204.514L97.8862 203.683C96.6393 206.819 95.998 210.178 95.998 213.57H98.248ZM97.1243 214.695L97.1253 214.695L97.1208 212.445L97.1198 212.445L97.1243 214.695ZM98.2471 261.09V213.57H95.9971V261.09H98.2471ZM144.642 259.965H97.1221V262.215H144.642V259.965ZM143.517 213.57V261.09H145.767V213.57H143.517ZM144.641 214.695H144.642V212.445H144.641V214.695ZM141.787 204.514C142.928 207.384 143.516 210.461 143.516 213.57H145.766C145.766 210.178 145.125 206.819 143.878 203.683L141.787 204.514ZM136.871 196.848C138.975 199.04 140.646 201.645 141.787 204.514L143.878 203.683C142.631 200.547 140.802 197.695 138.494 195.29L136.871 196.848ZM129.529 191.737C132.271 192.921 134.767 194.657 136.871 196.848L138.494 195.29C136.185 192.886 133.442 190.975 130.42 189.671L129.529 191.737ZM120.882 189.945C123.848 189.945 126.786 190.554 129.529 191.737L130.42 189.671C127.398 188.367 124.156 187.695 120.882 187.695V189.945ZM112.236 191.737C114.978 190.554 117.916 189.945 120.882 189.945V187.695C117.608 187.695 114.367 188.367 111.344 189.671L112.236 191.737ZM104.893 196.848C106.997 194.657 109.493 192.921 112.236 191.737L111.344 189.671C108.322 190.975 105.579 192.886 103.27 195.29L104.893 196.848ZM99.977 204.514C101.118 201.645 102.789 199.04 104.893 196.848L103.27 195.29C100.962 197.695 99.1331 200.547 97.8862 203.683L99.977 204.514Z" fill="black" mask="url(#path-4-inside-1_206_936)"/>
<path d="M108.575 215.107H111.477C112.085 215.107 112.54 214.972 112.844 214.702C113.148 214.432 113.3 213.993 113.3 213.386C113.3 212.801 113.148 212.379 112.844 212.12C112.54 211.85 112.085 211.715 111.477 211.715H108.575V215.107ZM105.925 209.656H112.422C112.962 209.656 113.446 209.746 113.873 209.926C114.312 210.095 114.683 210.331 114.987 210.635C115.302 210.939 115.538 211.293 115.696 211.698C115.865 212.092 115.949 212.519 115.949 212.981C115.949 213.689 115.797 214.303 115.493 214.82C115.201 215.338 114.717 215.731 114.042 216.001V216.035C114.368 216.125 114.638 216.266 114.852 216.457C115.066 216.637 115.24 216.856 115.375 217.115C115.51 217.363 115.606 217.638 115.662 217.942C115.73 218.246 115.775 218.549 115.797 218.853C115.808 219.044 115.82 219.269 115.831 219.528C115.842 219.787 115.859 220.051 115.882 220.321C115.915 220.591 115.96 220.85 116.017 221.098C116.084 221.334 116.18 221.536 116.303 221.705H113.654C113.508 221.323 113.418 220.867 113.384 220.338C113.35 219.809 113.3 219.303 113.232 218.819C113.142 218.189 112.951 217.728 112.658 217.436C112.366 217.143 111.888 216.997 111.224 216.997H108.575V221.705H105.925V209.656ZM119.707 209.656H122.356V221.705H119.707V209.656ZM128.936 215.326H130.995C131.299 215.326 131.591 215.304 131.872 215.259C132.154 215.214 132.401 215.129 132.615 215.006C132.829 214.871 132.997 214.685 133.121 214.449C133.256 214.213 133.324 213.903 133.324 213.521C133.324 213.138 133.256 212.829 133.121 212.593C132.997 212.356 132.829 212.176 132.615 212.053C132.401 211.918 132.154 211.828 131.872 211.783C131.591 211.738 131.299 211.715 130.995 211.715H128.936V215.326ZM126.287 209.656H131.72C132.474 209.656 133.115 209.769 133.644 209.994C134.173 210.208 134.6 210.494 134.927 210.854C135.264 211.214 135.506 211.625 135.652 212.086C135.81 212.548 135.889 213.026 135.889 213.521C135.889 214.004 135.81 214.483 135.652 214.955C135.506 215.416 135.264 215.827 134.927 216.187C134.6 216.547 134.173 216.839 133.644 217.064C133.115 217.278 132.474 217.385 131.72 217.385H128.936V221.705H126.287V209.656Z" fill="#BFBFBF"/>
<path d="M108.575 215.107H108.012V215.669H108.575V215.107ZM112.844 212.12L112.47 212.541L112.479 212.548L112.844 212.12ZM108.575 211.715V211.153H108.012V211.715H108.575ZM105.925 209.656V209.094H105.363V209.656H105.925ZM113.873 209.926L113.655 210.445L113.663 210.448L113.671 210.451L113.873 209.926ZM114.987 210.635L114.589 211.033L114.597 211.04L114.987 210.635ZM115.696 211.698L115.172 211.902L115.175 211.911L115.179 211.92L115.696 211.698ZM115.493 214.82L115.008 214.535L115.004 214.543L115.493 214.82ZM114.042 216.001L113.833 215.479L113.48 215.62V216.001H114.042ZM114.042 216.035H113.48V216.463L113.893 216.577L114.042 216.035ZM114.852 216.457L114.477 216.876L114.483 216.882L114.49 216.887L114.852 216.457ZM115.375 217.115L114.876 217.375L114.881 217.384L115.375 217.115ZM115.662 217.942L115.109 218.044L115.111 218.054L115.113 218.064L115.662 217.942ZM115.797 218.853L116.359 218.82L116.358 218.812L115.797 218.853ZM115.882 220.321L115.321 220.368L115.322 220.38L115.323 220.391L115.882 220.321ZM116.017 221.098L115.468 221.222L115.471 221.237L115.476 221.252L116.017 221.098ZM116.303 221.705V222.268H117.413L116.757 221.372L116.303 221.705ZM113.654 221.705L113.129 221.906L113.267 222.268H113.654V221.705ZM113.384 220.338L113.945 220.302L113.945 220.302L113.384 220.338ZM113.232 218.819L113.789 218.742L113.789 218.74L113.232 218.819ZM112.658 217.436L113.056 217.038L113.056 217.038L112.658 217.436ZM108.575 216.997V216.434H108.012V216.997H108.575ZM108.575 221.705V222.268H109.137V221.705H108.575ZM105.925 221.705H105.363V222.268H105.925V221.705ZM108.575 215.669H111.477V214.544H108.575V215.669ZM111.477 215.669C112.156 215.669 112.77 215.52 113.218 215.122L112.47 214.282C112.31 214.424 112.013 214.544 111.477 214.544V215.669ZM113.218 215.122C113.691 214.702 113.862 214.074 113.862 213.386H112.737C112.737 213.913 112.605 214.162 112.47 214.282L113.218 215.122ZM113.862 213.386C113.862 212.714 113.688 212.1 113.209 211.692L112.479 212.548C112.608 212.658 112.737 212.887 112.737 213.386H113.862ZM113.218 211.7C112.77 211.302 112.156 211.153 111.477 211.153V212.278C112.013 212.278 112.31 212.398 112.47 212.54L113.218 211.7ZM111.477 211.153H108.575V212.278H111.477V211.153ZM108.012 211.715V215.107H109.137V211.715H108.012ZM105.925 210.219H112.422V209.094H105.925V210.219ZM112.422 210.219C112.899 210.219 113.307 210.298 113.655 210.445L114.092 209.408C113.585 209.194 113.025 209.094 112.422 209.094V210.219ZM113.671 210.451C114.044 210.595 114.346 210.79 114.589 211.033L115.385 210.237C115.02 209.873 114.581 209.596 114.075 209.401L113.671 210.451ZM114.597 211.04C114.853 211.288 115.044 211.574 115.172 211.902L116.22 211.494C116.033 211.013 115.751 210.59 115.378 210.23L114.597 211.04ZM115.179 211.92C115.315 212.238 115.387 212.59 115.387 212.981H116.512C116.512 212.449 116.414 211.946 116.213 211.477L115.179 211.92ZM115.387 212.981C115.387 213.608 115.253 214.119 115.008 214.535L115.978 215.105C116.341 214.486 116.512 213.771 116.512 212.981H115.387ZM115.004 214.543C114.787 214.926 114.417 215.246 113.833 215.479L114.251 216.524C115.018 216.217 115.615 215.749 115.983 215.097L115.004 214.543ZM113.48 216.001V216.035H114.605V216.001H113.48ZM113.893 216.577C114.15 216.648 114.339 216.752 114.477 216.876L115.227 216.038C114.938 215.779 114.587 215.602 114.192 215.493L113.893 216.577ZM114.49 216.887C114.645 217.018 114.774 217.179 114.877 217.375L115.874 216.855C115.707 216.534 115.487 216.256 115.214 216.027L114.49 216.887ZM114.881 217.384C114.985 217.575 115.063 217.793 115.109 218.044L116.215 217.84C116.149 217.483 116.035 217.15 115.869 216.846L114.881 217.384ZM115.113 218.064C115.175 218.342 115.216 218.619 115.236 218.895L116.358 218.812C116.334 218.48 116.285 218.15 116.211 217.82L115.113 218.064ZM115.236 218.886C115.247 219.074 115.258 219.296 115.269 219.553L116.393 219.504C116.382 219.243 116.37 219.015 116.359 218.82L115.236 218.886ZM115.269 219.553C115.281 219.819 115.298 220.091 115.321 220.368L116.442 220.275C116.42 220.012 116.404 219.755 116.393 219.504L115.269 219.553ZM115.323 220.391C115.359 220.678 115.407 220.955 115.468 221.222L116.565 220.973C116.513 220.745 116.471 220.504 116.44 220.252L115.323 220.391ZM115.476 221.252C115.558 221.541 115.68 221.807 115.85 222.038L116.757 221.372C116.679 221.266 116.61 221.126 116.557 220.943L115.476 221.252ZM116.303 221.143H113.654V222.268H116.303V221.143ZM114.179 221.504C114.058 221.187 113.977 220.79 113.945 220.302L112.823 220.374C112.859 220.944 112.957 221.458 113.129 221.906L114.179 221.504ZM113.945 220.302C113.911 219.761 113.859 219.24 113.789 218.742L112.675 218.897C112.74 219.366 112.79 219.858 112.823 220.374L113.945 220.302ZM113.789 218.74C113.69 218.05 113.47 217.452 113.056 217.038L112.261 217.833C112.432 218.005 112.594 218.328 112.675 218.899L113.789 218.74ZM113.056 217.038C112.61 216.591 111.95 216.434 111.224 216.434V217.559C111.825 217.559 112.122 217.695 112.261 217.833L113.056 217.038ZM111.224 216.434H108.575V217.559H111.224V216.434ZM108.012 216.997V221.705H109.137V216.997H108.012ZM108.575 221.143H105.925V222.268H108.575V221.143ZM106.488 221.705V209.656H105.363V221.705H106.488ZM119.707 209.656V209.094H119.144V209.656H119.707ZM122.356 209.656H122.919V209.094H122.356V209.656ZM122.356 221.705V222.268H122.919V221.705H122.356ZM119.707 221.705H119.144V222.268H119.707V221.705ZM119.707 210.219H122.356V209.094H119.707V210.219ZM121.794 209.656V221.705H122.919V209.656H121.794ZM122.356 221.143H119.707V222.268H122.356V221.143ZM120.269 221.705V209.656H119.144V221.705H120.269ZM128.936 215.326H128.374V215.889H128.936V215.326ZM131.872 215.259L131.783 214.703L131.783 214.703L131.872 215.259ZM132.615 215.006L132.897 215.493L132.906 215.487L132.915 215.481L132.615 215.006ZM133.121 214.449L132.633 214.17L132.628 214.179L132.623 214.188L133.121 214.449ZM133.121 212.593L132.623 212.854L132.628 212.863L132.633 212.872L133.121 212.593ZM132.615 212.053L132.314 212.528L132.324 212.534L132.333 212.539L132.615 212.053ZM131.872 211.783L131.783 212.338L131.783 212.338L131.872 211.783ZM128.936 211.715V211.153H128.374V211.715H128.936ZM126.287 209.656V209.094H125.724V209.656H126.287ZM133.644 209.994L133.424 210.511L133.433 210.515L133.644 209.994ZM134.927 210.854L134.51 211.232L134.516 211.239L134.927 210.854ZM135.652 212.086L135.116 212.256L135.12 212.268L135.652 212.086ZM135.652 214.955L135.119 214.777L135.116 214.785L135.652 214.955ZM134.927 216.187L134.516 215.802L134.51 215.809L134.927 216.187ZM133.644 217.064L133.855 217.586L133.864 217.582L133.644 217.064ZM128.936 217.385V216.823H128.374V217.385H128.936ZM128.936 221.705V222.268H129.499V221.705H128.936ZM126.287 221.705H125.724V222.268H126.287V221.705ZM128.936 215.889H130.995V214.764H128.936V215.889ZM130.995 215.889C131.326 215.889 131.649 215.864 131.961 215.814L131.783 214.703C131.533 214.743 131.271 214.764 130.995 214.764V215.889ZM131.961 215.814C132.3 215.76 132.615 215.656 132.897 215.493L132.333 214.519C132.187 214.603 132.007 214.668 131.783 214.703L131.961 215.814ZM132.915 215.481C133.217 215.29 133.452 215.029 133.619 214.71L132.623 214.188C132.542 214.341 132.44 214.451 132.314 214.53L132.915 215.481ZM133.609 214.728C133.809 214.379 133.886 213.963 133.886 213.521H132.761C132.761 213.843 132.703 214.046 132.633 214.17L133.609 214.728ZM133.886 213.521C133.886 213.078 133.809 212.662 133.609 212.313L132.633 212.872C132.703 212.995 132.761 213.198 132.761 213.521H133.886ZM133.619 212.332C133.45 212.009 133.21 211.747 132.897 211.566L132.333 212.539C132.447 212.606 132.544 212.704 132.623 212.854L133.619 212.332ZM132.915 211.577C132.629 211.396 132.308 211.283 131.961 211.227L131.783 212.338C131.999 212.373 132.173 212.439 132.314 212.528L132.915 211.577ZM131.961 211.227C131.649 211.177 131.326 211.153 130.995 211.153V212.278C131.271 212.278 131.533 212.298 131.783 212.338L131.961 211.227ZM130.995 211.153H128.936V212.278H130.995V211.153ZM128.374 211.715V215.326H129.499V211.715H128.374ZM126.287 210.219H131.72V209.094H126.287V210.219ZM131.72 210.219C132.421 210.219 132.983 210.324 133.424 210.511L133.864 209.476C133.248 209.214 132.527 209.094 131.72 209.094V210.219ZM133.433 210.515C133.897 210.703 134.25 210.945 134.51 211.232L135.343 210.477C134.951 210.044 134.449 209.712 133.855 209.472L133.433 210.515ZM134.516 211.239C134.798 211.539 134.996 211.877 135.116 212.256L136.188 211.916C136.016 211.373 135.731 210.89 135.337 210.47L134.516 211.239ZM135.12 212.268C135.257 212.67 135.326 213.087 135.326 213.521H136.451C136.451 212.965 136.362 212.425 136.185 211.905L135.12 212.268ZM135.326 213.521C135.326 213.942 135.258 214.36 135.119 214.777L136.186 215.133C136.362 214.605 136.451 214.067 136.451 213.521H135.326ZM135.116 214.785C134.996 215.165 134.798 215.502 134.516 215.802L135.337 216.572C135.731 216.152 136.016 215.668 136.188 215.125L135.116 214.785ZM134.51 215.809C134.247 216.099 133.891 216.348 133.424 216.547L133.864 217.582C134.454 217.331 134.954 216.995 135.343 216.565L134.51 215.809ZM133.433 216.543C132.989 216.722 132.424 216.823 131.72 216.823V217.948C132.524 217.948 133.241 217.834 133.855 217.586L133.433 216.543ZM131.72 216.823H128.936V217.948H131.72V216.823ZM128.374 217.385V221.705H129.499V217.385H128.374ZM128.936 221.143H126.287V222.268H128.936V221.143ZM126.849 221.705V209.656H125.724V221.705H126.849Z" fill="black"/>
<path d="M122.997 264.205C122.565 264.457 121.569 264.678 120.359 264.074L120.426 249.109C116.638 252.17 107.937 255.635 103.444 245.008C106.18 241.588 113.38 236.541 120.292 243.712C120.689 242.848 121.805 241.638 123.101 243.712C125.225 240.688 131.309 236.714 138.653 245.008C136.942 249.254 131.463 256.018 123.234 249.109L122.997 264.205Z" fill="#448E60"/>
<path d="M123.101 243.712C121.805 241.638 120.689 242.848 120.292 243.712M123.101 243.712C125.225 240.688 131.309 236.714 138.653 245.008C136.942 249.254 131.463 256.018 123.234 249.109M123.101 243.712L123.189 247.285M120.292 243.712C113.38 236.541 106.18 241.588 103.444 245.008C107.937 255.635 116.638 252.17 120.426 249.109M120.292 243.712L120.359 246.41M123.234 249.109L122.997 264.205C122.565 264.457 121.569 264.678 120.359 264.074L120.426 249.109M123.234 249.109L123.189 247.285M123.189 247.285C124.096 245.767 127.745 243.187 135.089 245.008M120.426 249.109L120.359 246.41M107.116 245.872C109.08 244.286 114.479 242.174 120.359 246.41" stroke="black" stroke-width="1.125" stroke-linecap="round" stroke-linejoin="round"/>
</svg>
