<svg width="240" height="331" viewBox="0 0 240 331" fill="none" xmlns="http://www.w3.org/2000/svg">
<path d="M82.0039 277.375V257.576C82.752 253.571 91.3987 245.562 120.001 245.562C148.603 245.562 157.249 253.571 157.997 257.576V276.703C156.953 277.827 155.045 279.294 152.239 280.775L149.494 322.296C147.796 324.997 139.521 330.399 120.001 330.399C100.48 330.399 91.8086 324.997 89.9129 322.296L87.309 280.775C84.75 279.521 82.9909 278.308 82.0039 277.375Z" fill="#E6703F"/>
<path d="M157.997 257.576C157.997 264.372 140.986 269.881 120.001 269.881C99.0156 269.881 82.0039 264.372 82.0039 257.576M157.997 257.576V276.703C156.953 277.827 155.045 279.294 152.239 280.775M157.997 257.576C157.249 253.571 148.603 245.562 120.001 245.562C91.3987 245.562 82.752 253.571 82.0039 257.576M82.0039 257.576V277.375C82.9909 278.308 84.75 279.521 87.309 280.775M87.309 280.775C93.4587 283.789 104.228 287.042 120.001 287.225C135.393 287.404 146.019 284.057 152.239 280.775M87.309 280.775L89.9129 322.296C91.8086 324.997 100.48 330.399 120.001 330.399C139.521 330.399 147.796 324.997 149.494 322.296L152.239 280.775" stroke="black" stroke-width="1.125"/>
<path d="M151.621 257.576C151.621 258.561 150.918 259.624 149.339 260.692C147.78 261.745 145.487 262.717 142.602 263.541C136.842 265.188 128.851 266.214 120.001 266.214C111.151 266.214 103.16 265.188 97.399 263.541C94.5148 262.717 92.2216 261.745 90.6624 260.692C89.0836 259.624 88.3809 258.561 88.3809 257.576C88.3809 256.592 89.0836 255.529 90.6624 254.461C92.2216 253.408 94.5148 252.436 97.399 251.612C103.16 249.965 111.151 248.939 120.001 248.939C128.851 248.939 136.842 249.965 142.602 251.612C145.487 252.436 147.78 253.408 149.339 254.461C150.918 255.529 151.621 256.592 151.621 257.576Z" fill="#3A2314" stroke="black" stroke-width="1.125"/>
<path d="M104.383 156.672C105.437 155.487 109.176 153.143 115.708 153.248C115.883 148.156 117.025 138.026 120.185 138.237C124.135 138.5 129.271 148.771 129.534 153.248C131.948 158.252 136.434 170.287 135.065 178.399C139.849 188.318 149.602 210.502 150.339 219.877C151.261 231.597 150.076 258.591 139.278 260.83H133.843C131.691 262.51 127.161 264.485 124.333 260.83H117.97C115.983 262.499 112.941 263.609 109.715 260.83H102.184C95.954 256.819 84.9163 243.013 90.6067 219.877C96.2972 196.742 99.9789 187.464 101.108 185.717C98.1329 183.976 92.3837 177.554 93.1912 165.787C90.9395 162.038 87.2701 153.098 90.6067 147.33C93.2098 147.405 99.6095 149.379 104.383 156.672Z" fill="#CFBFA5"/>
<path d="M133.843 260.83H139.278C150.076 258.591 151.261 231.597 150.339 219.877C149.602 210.502 139.849 188.318 135.065 178.399C136.434 170.287 131.948 158.252 129.534 153.248C129.271 148.771 124.135 138.5 120.185 138.237C117.025 138.026 115.883 148.156 115.708 153.248C109.176 153.143 105.437 155.487 104.383 156.672C99.6095 149.379 93.2098 147.405 90.6067 147.33C87.2701 153.098 90.9395 162.038 93.1912 165.787C92.3837 177.554 98.1329 183.976 101.108 185.717C99.9789 187.464 96.2972 196.742 90.6067 219.877C84.9163 243.013 95.954 256.819 102.184 260.83H109.715M133.843 260.83C134.33 259.497 134.474 256.462 131.154 254.987C133.895 250.53 139.453 236.929 139.76 218.179M133.843 260.83C131.691 262.51 127.161 264.485 124.333 260.83M109.715 260.83C108.87 259.855 108.086 257.216 111.713 254.449C107.768 246.867 100.125 228.999 101.108 218.179M109.715 260.83C112.941 263.609 115.983 262.499 117.97 260.83M124.333 260.83C123.93 260.309 123.561 259.673 123.239 258.906V228.169C123.214 227.477 122.763 226.094 121.164 226.094C119.566 226.094 118.91 227.477 118.782 228.169L119.704 258.906C119.302 259.51 118.709 260.209 117.97 260.83M124.333 260.83H117.97" stroke="black" stroke-width="1.125" stroke-linecap="round" stroke-linejoin="round"/>
<path d="M115.779 175.706C115.214 175.833 114.414 175.048 114.047 174.586C114.816 173.898 116.421 173.72 117.127 173.718C116.978 174.166 116.54 175.172 115.985 175.607C115.921 175.657 115.852 175.689 115.779 175.706Z" fill="#E7A7AB"/>
<path d="M115.985 175.607C115.429 176.042 114.461 175.108 114.047 174.586C114.816 173.898 116.421 173.72 117.127 173.718C116.978 174.166 116.54 175.172 115.985 175.607ZM115.985 175.607C115.746 175.341 114.957 177.395 114.592 178.455M115.985 175.607C116.697 175.663 117.935 176.639 118.465 177.12M101.875 172.768C102.331 171.684 103.996 169.842 107.008 171.143M120.268 168.576C120.981 167.35 122.971 165.479 125.23 167.806" stroke="black" stroke-width="1.125" stroke-linecap="round" stroke-linejoin="round"/>
<path d="M101.475 158.208C100.559 160.636 97.3947 162.73 95.9274 163.473C93.7849 162.147 91.8813 153.324 93.7679 152.057C95.2771 151.043 99.535 155.736 101.475 158.208Z" fill="#E7A7AB" stroke="black" stroke-width="1.125"/>
<path d="M118.423 152.648C120.682 153.926 124.453 153.508 126.056 153.139C126.852 150.748 122.663 142.753 120.403 142.988C118.595 143.176 118.33 149.507 118.423 152.648Z" fill="#E7A7AB" stroke="black" stroke-width="1.125"/>
<path d="M112.006 156.361C111.659 156.722 110.881 157.311 109.55 157.059L106.652 146.868C103.842 150.854 96.411 156.574 89.1737 147.569C90.8722 143.526 96.4245 136.693 105.045 141.707C105.19 140.766 105.934 139.296 107.75 140.938C108.967 137.444 113.739 131.95 123.083 137.927C122.598 142.485 119.174 150.5 109.357 146.099L112.006 156.361Z" fill="#448E60"/>
<path d="M107.75 140.938C105.934 139.296 105.19 140.766 105.045 141.707M107.75 140.938C108.967 137.444 113.739 131.95 123.083 137.927C122.598 142.485 119.174 150.5 109.357 146.099M107.75 140.938L108.814 144.355M105.045 141.707C96.4245 136.693 90.8722 143.526 89.1737 147.569C96.411 156.574 103.842 150.854 106.652 146.868M105.045 141.707L105.849 144.288M109.357 146.099L112.006 156.361C111.659 156.722 110.881 157.311 109.55 157.059L106.652 146.868M109.357 146.099L108.814 144.355M108.814 144.355C109.271 142.645 112.079 139.161 119.65 138.903M106.652 146.868L105.849 144.288M92.9469 147.396C94.4042 145.331 99.0248 141.818 105.849 144.288" stroke="black" stroke-width="1.125" stroke-linecap="round" stroke-linejoin="round"/>
</svg>
