<svg width="241" height="331" viewBox="0 0 241 331" fill="none" xmlns="http://www.w3.org/2000/svg">
<path d="M82.1816 277.121V257.322C82.9297 253.317 91.5765 245.308 120.178 245.308C148.78 245.308 157.427 253.317 158.175 257.322V276.449C157.131 277.573 155.222 279.04 152.416 280.521L149.672 322.042C147.974 324.743 139.699 330.145 120.178 330.145C100.658 330.145 91.9863 324.743 90.0906 322.042L87.4868 280.521C84.9277 279.267 83.1686 278.054 82.1816 277.121Z" fill="#E6703F"/>
<path d="M158.175 257.322C158.175 264.118 141.163 269.627 120.178 269.627C99.1934 269.627 82.1816 264.118 82.1816 257.322M158.175 257.322V276.449C157.131 277.573 155.222 279.04 152.416 280.521M158.175 257.322C157.427 253.317 148.78 245.308 120.178 245.308C91.5765 245.308 82.9297 253.317 82.1816 257.322M82.1816 257.322V277.121C83.1686 278.054 84.9277 279.267 87.4868 280.521M87.4868 280.521C93.6364 283.535 104.405 286.788 120.178 286.971C135.57 287.15 146.197 283.803 152.416 280.521M87.4868 280.521L90.0906 322.042C91.9863 324.743 100.658 330.145 120.178 330.145C139.699 330.145 147.974 324.743 149.672 322.042L152.416 280.521" stroke="black" stroke-width="1.125"/>
<path d="M151.798 257.323C151.798 258.308 151.096 259.371 149.517 260.438C147.958 261.491 145.664 262.463 142.78 263.287C137.019 264.934 129.028 265.96 120.178 265.96C111.329 265.96 103.337 264.934 97.5767 263.287C94.6925 262.463 92.3993 261.491 90.8401 260.438C89.2614 259.371 88.5586 258.308 88.5586 257.323C88.5586 256.338 89.2614 255.275 90.8401 254.208C92.3993 253.154 94.6925 252.183 97.5767 251.358C103.337 249.711 111.329 248.685 120.178 248.685C129.028 248.685 137.019 249.711 142.78 251.358C145.664 252.183 147.958 253.154 149.517 254.208C151.096 255.275 151.798 256.338 151.798 257.323Z" fill="#3A2314" stroke="black" stroke-width="1.125"/>
<path d="M128.433 141.926C122.959 141.792 118.753 142.704 117.334 143.177C114.714 138.928 108.707 130.773 105.641 132.147C102.576 133.521 103.307 144.436 104.056 149.722C101.016 156.266 104.056 164.522 104.981 167.429C105.906 170.336 106.038 172.318 104.981 173.969C103.924 175.619 96.5237 185.797 95.5987 190.289C94.6737 194.782 96.6558 198.218 94.3035 207.071C91.9512 215.925 89.4636 222.367 88.7126 233.382C87.9725 244.236 89.8254 247.312 94.1115 254.426L94.3035 254.744C97.8416 260.619 102.12 262.143 103.816 262.171H114.679C117.384 270.014 124.875 271.54 129.503 272.482L129.712 272.525C138.213 274.259 146.552 268.809 152.894 268.642C159.236 268.475 164.089 266.85 163.588 264.931C163.087 263.012 156.204 263.067 152.013 263.067C144.773 263.067 140.859 265.655 134.79 265.655C127.857 265.655 125.42 263.868 125.531 262.171H138.363C142.619 262.171 148.71 254.577 150.462 249.32C152.215 244.063 150.796 235.218 150.462 224.954C150.129 214.69 145.122 205.845 144.788 196.416C144.521 188.872 141.784 182.814 140.449 180.728C140.366 179.281 140.249 175.905 140.449 173.969C140.699 171.549 143.119 174.303 145.873 163.371C148.076 154.626 144.955 147.989 143.119 145.764C143.536 140.59 140.366 127.072 136.11 127.072C132.705 127.072 129.573 136.974 128.433 141.926Z" fill="#CFBFA5"/>
<path d="M140.449 180.728C140.366 179.281 140.249 175.905 140.449 173.969C140.699 171.549 143.119 174.303 145.873 163.371C148.076 154.626 144.955 147.989 143.119 145.764C143.536 140.59 140.366 127.072 136.11 127.072C132.705 127.072 129.573 136.974 128.433 141.926C122.959 141.792 118.753 142.704 117.334 143.177C114.714 138.928 108.707 130.773 105.641 132.147C102.576 133.521 103.307 144.436 104.056 149.722C101.016 156.266 104.056 164.522 104.981 167.429C105.906 170.336 106.038 172.318 104.981 173.969C103.924 175.619 96.5237 185.797 95.5987 190.289C94.6737 194.782 96.6558 198.218 94.3035 207.071C91.9512 215.925 89.4636 222.367 88.7126 233.382C87.9616 244.397 89.8809 247.401 94.3035 254.744C97.8416 260.619 102.12 262.143 103.816 262.171H114.679M140.449 180.728C138.975 178.948 135.159 175.371 131.687 175.304M140.449 180.728C141.784 182.814 144.521 188.872 144.788 196.416C145.122 205.845 150.129 214.69 150.462 224.954C150.796 235.218 152.215 244.063 150.462 249.32C148.71 254.577 142.619 262.171 138.363 262.171C134.958 262.171 127.979 262.171 125.531 262.171M125.531 262.171C125.364 261.392 125.131 259.096 125.531 257.093M125.531 262.171C125.42 263.868 127.857 265.655 134.79 265.655C140.859 265.655 144.773 263.067 152.013 263.067C156.204 263.067 163.087 263.012 163.588 264.931C164.089 266.85 159.236 268.475 152.894 268.642C146.552 268.809 138.213 274.259 129.712 272.525C125.104 271.585 117.425 270.133 114.679 262.171M119.159 243.852C117.936 244.715 115.147 248.52 114.679 256.197C114.548 258.363 114.625 260.418 114.679 262.171" stroke="black" stroke-width="1.125" stroke-linecap="round" stroke-linejoin="round"/>
<path d="M119.323 156.62C119.543 158.311 118.35 159.86 116.659 160.079C114.968 160.299 113.419 159.106 113.199 157.415C112.98 155.724 114.173 154.175 115.864 153.955C117.555 153.736 119.104 154.929 119.323 156.62Z" fill="white" stroke="black" stroke-width="1.125"/>
<ellipse cx="116.26" cy="157.017" rx="1.12675" ry="1.12675" transform="rotate(-7.39388 116.26 157.017)" fill="black"/>
<path d="M136.03 154.387C136.25 156.078 135.057 157.627 133.366 157.846C131.675 158.066 130.126 156.873 129.906 155.182C129.687 153.491 130.88 151.942 132.571 151.722C134.262 151.503 135.811 152.696 136.03 154.387Z" fill="white" stroke="black" stroke-width="1.125"/>
<ellipse cx="132.967" cy="154.784" rx="1.12675" ry="1.12675" transform="rotate(-7.39388 132.967 154.784)" fill="black"/>
<path d="M125.718 163.075C125.053 163.1 124.313 162.043 123.996 161.443C125.011 160.826 126.865 160.965 127.664 161.112C127.4 161.588 126.693 162.633 125.972 163.008C125.889 163.051 125.804 163.072 125.718 163.075Z" fill="#E7A7AB"/>
<path d="M125.972 163.008C125.252 163.382 124.355 162.12 123.996 161.443C125.011 160.826 126.865 160.965 127.664 161.112C127.4 161.588 126.693 162.633 125.972 163.008ZM125.972 163.008C125.759 162.656 124.431 164.812 123.794 165.934M125.972 163.008C126.766 163.221 127.96 164.587 128.458 165.243" stroke="black" stroke-width="1.125" stroke-linecap="round" stroke-linejoin="round"/>
<path d="M107.05 147.056C109.075 147.817 112.736 145.517 113.312 144.833C113.659 142.762 109.182 136.716 107.351 137.2C105.886 137.587 106.569 144.48 107.05 147.056Z" fill="#E7A7AB" stroke="black" stroke-width="1.125"/>
<path d="M139.277 143.023C137.559 144.338 133.388 143.197 132.64 142.709C131.707 140.827 134.241 133.743 136.134 133.676C137.649 133.623 138.991 140.418 139.277 143.023Z" fill="#E7A7AB" stroke="black" stroke-width="1.125"/>
<path d="M124.469 146.556C124.057 146.89 123.162 147.407 121.796 146.968L120.085 135.878C116.609 139.699 108.05 144.738 101.623 134.325C103.937 130.298 110.668 123.844 119.072 130.243C119.347 129.273 120.322 127.825 122.015 129.789C123.753 126.276 129.487 121.126 138.526 128.632C137.419 133.359 132.771 141.335 123.028 135.424L124.469 146.556Z" fill="#448E60"/>
<path d="M122.015 129.789C120.322 127.825 119.347 129.273 119.072 130.243M122.015 129.789C123.753 126.276 129.487 121.126 138.526 128.632C137.419 133.359 132.771 141.335 123.028 135.424M122.015 129.789L122.686 133.519M119.072 130.243C110.668 123.844 103.937 130.298 101.623 134.325C108.05 144.738 116.609 139.699 120.085 135.878M119.072 130.243L119.579 133.06M123.028 135.424L124.469 146.556C124.057 146.89 123.162 147.407 121.796 146.968L120.085 135.878M123.028 135.424L122.686 133.519M122.686 133.519C123.391 131.781 126.798 128.487 134.79 129.209M120.085 135.878L119.579 133.06M105.611 134.637C107.413 132.658 112.73 129.571 119.579 133.06" stroke="black" stroke-width="1.125" stroke-linecap="round" stroke-linejoin="round"/>
</svg>
