<svg width="241" height="331" viewBox="0 0 241 331" fill="none" xmlns="http://www.w3.org/2000/svg">
<path d="M82.499 277.147V257.348C83.2471 253.343 91.8938 245.333 120.496 245.333C149.098 245.333 157.744 253.343 158.493 257.348V276.474C157.448 277.598 155.54 279.066 152.734 280.546L149.989 322.068C148.291 324.769 140.016 330.171 120.496 330.171C100.975 330.171 92.3037 324.769 90.408 322.068L87.8041 280.546C85.2451 279.292 83.486 278.08 82.499 277.147Z" fill="#E6703F"/>
<path d="M158.493 257.348C158.493 264.144 141.481 269.653 120.496 269.653C99.5108 269.653 82.499 264.144 82.499 257.348M158.493 257.348V276.474C157.448 277.598 155.54 279.066 152.734 280.546M158.493 257.348C157.744 253.343 149.098 245.333 120.496 245.333C91.8938 245.333 83.2471 253.343 82.499 257.348M82.499 257.348V277.147C83.486 278.08 85.2451 279.292 87.8041 280.546M87.8041 280.546C93.9538 283.56 104.723 286.813 120.496 286.997C135.888 287.176 146.515 283.828 152.734 280.546M87.8041 280.546L90.408 322.068C92.3037 324.769 100.975 330.171 120.496 330.171C140.016 330.171 148.291 324.769 149.989 322.068L152.734 280.546" stroke="black" stroke-width="1.125"/>
<path d="M152.116 257.347C152.116 258.332 151.413 259.395 149.834 260.463C148.275 261.516 145.982 262.488 143.098 263.312C137.337 264.959 129.346 265.985 120.496 265.985C111.646 265.985 103.655 264.959 97.8941 263.312C95.0099 262.488 92.7167 261.516 91.1575 260.463C89.5787 259.395 88.876 258.332 88.876 257.347C88.876 256.363 89.5787 255.3 91.1575 254.232C92.7167 253.179 95.0099 252.207 97.8941 251.383C103.655 249.736 111.646 248.71 120.496 248.71C129.346 248.71 137.337 249.736 143.098 251.383C145.982 252.207 148.275 253.179 149.834 254.232C151.413 255.3 152.116 256.363 152.116 257.347Z" fill="#3A2314" stroke="black" stroke-width="1.125"/>
<path d="M153.764 216.884C153.327 217.126 152.327 217.327 151.131 216.696L151.515 201.736C147.662 204.716 138.89 207.997 134.624 197.276C137.432 193.915 144.737 189.022 151.495 196.338C151.91 195.482 153.051 194.297 154.303 196.397C156.49 193.419 162.657 189.575 169.824 198.023C168.024 202.232 162.403 208.878 154.322 201.796L153.764 216.884Z" fill="#448E60"/>
<path d="M154.303 196.397C153.051 194.297 151.91 195.482 151.495 196.338M154.303 196.397C156.49 193.419 162.657 189.575 169.824 198.023C168.024 202.232 162.403 208.878 154.322 201.796M154.303 196.397L154.316 199.971M151.495 196.338C144.737 189.022 137.432 193.915 134.624 197.276C138.89 207.997 147.662 204.716 151.515 201.736M151.495 196.338L151.505 199.037M154.322 201.796L153.764 216.884C153.327 217.126 152.327 217.327 151.131 216.696L151.515 201.736M154.322 201.796L154.316 199.971M154.316 199.971C155.254 198.473 158.957 195.971 166.261 197.947M151.515 201.736L151.505 199.037M138.276 198.218C140.274 196.674 145.716 194.677 151.505 199.037" stroke="black" stroke-width="1.125" stroke-linecap="round" stroke-linejoin="round"/>
<path d="M133.493 203.936C132.281 203.936 132.988 212.738 133.493 217.139C131.069 217.139 130.859 222.195 131.057 224.723C126.606 221.987 120.547 218.807 112.713 215.624C91.9327 207.182 57.2992 235.322 73.5337 253.938C89.7681 272.553 132.194 266.925 154.273 259.998C171.936 254.457 171.878 241.239 169.642 235.322C170.854 231.859 170.147 223.489 169.642 219.737C170.724 215.841 172.542 207.745 171.157 206.533C169.771 205.321 163.941 209.636 161.2 211.945C158.775 209.866 148.356 210.213 143.45 210.646C140.636 208.409 134.705 203.936 133.493 203.936Z" fill="#CFBFA5"/>
<path d="M140.203 231.642C139.02 230.307 136.051 227.794 131.057 224.723M131.057 224.723C126.606 221.987 120.547 218.807 112.713 215.624C91.9327 207.182 57.2992 235.322 73.5337 253.938C89.7681 272.553 132.194 266.925 154.273 259.998C171.936 254.457 171.878 241.239 169.642 235.322C170.854 231.859 170.147 223.489 169.642 219.737C170.724 215.841 172.542 207.745 171.157 206.533C169.771 205.321 163.941 209.636 161.2 211.945C158.775 209.866 148.356 210.213 143.45 210.646C140.636 208.409 134.705 203.936 133.493 203.936C132.281 203.936 132.988 212.738 133.493 217.139C131.069 217.139 130.859 222.195 131.057 224.723ZM136.523 215.624C138.255 215.264 141.762 214.282 141.935 213.243M166.828 218.438C165.525 217.977 162.919 216.544 162.919 214.5M166.302 232.541C165.098 231.413 162.392 229.158 161.2 229.158M144.965 226.903C143.837 225.681 140.281 223.535 135.077 224.723" stroke="black" stroke-width="1.125" stroke-linecap="round" stroke-linejoin="round"/>
</svg>
