<svg width="241" height="331" viewBox="0 0 241 331" fill="none" xmlns="http://www.w3.org/2000/svg">
<path d="M82.8809 277.12V257.321C83.629 253.317 92.2757 245.307 120.878 245.307C149.48 245.307 158.126 253.317 158.874 257.321V276.448C157.83 277.572 155.921 279.039 153.115 280.52L150.371 322.041C148.673 324.742 140.398 330.144 120.878 330.144C101.357 330.144 92.6855 324.742 90.7898 322.041L88.186 280.52C85.6269 279.266 83.8678 278.053 82.8809 277.12Z" fill="#E6703F"/>
<path d="M158.874 257.321C158.874 264.117 141.863 269.627 120.878 269.627C99.8926 269.627 82.8809 264.117 82.8809 257.321M158.874 257.321V276.448C157.83 277.572 155.921 279.039 153.115 280.52M158.874 257.321C158.126 253.317 149.48 245.307 120.878 245.307C92.2757 245.307 83.629 253.317 82.8809 257.321M82.8809 257.321V277.12C83.8678 278.053 85.6269 279.266 88.186 280.52M88.186 280.52C94.3356 283.534 105.105 286.787 120.878 286.97C136.27 287.149 146.896 283.802 153.115 280.52M88.186 280.52L90.7898 322.041C92.6855 324.742 101.357 330.144 120.878 330.144C140.398 330.144 148.673 324.742 150.371 322.041L153.115 280.52" stroke="black" stroke-width="1.125"/>
<path d="M152.497 257.321C152.497 258.306 151.795 259.369 150.216 260.436C148.657 261.49 146.364 262.461 143.479 263.286C137.719 264.933 129.728 265.959 120.878 265.959C112.028 265.959 104.037 264.933 98.2759 263.286C95.3917 262.461 93.0985 261.49 91.5393 260.436C89.9606 259.369 89.2578 258.306 89.2578 257.321C89.2578 256.336 89.9606 255.273 91.5393 254.206C93.0985 253.152 95.3917 252.181 98.2759 251.357C104.037 249.71 112.028 248.684 120.878 248.684C129.728 248.684 137.719 249.71 143.479 251.357C146.364 252.181 148.657 253.152 150.216 254.206C151.795 255.273 152.497 256.336 152.497 257.321Z" fill="#3A2314" stroke="black" stroke-width="1.125"/>
<path d="M86.0392 255.03C86.7706 255.241 88.1688 256.053 87.9103 257.612C87.8087 258.225 87.6965 258.587 87.6138 258.854C87.4334 259.436 87.3934 259.565 87.9103 260.853C88.2812 261.778 88.5741 262.014 88.8465 262.234C89.1278 262.461 89.3872 262.67 89.6881 263.601C90.2805 265.434 91.783 263.707 91.6666 262.733C91.6196 262.339 91.3635 261.972 91.0942 261.585C90.6968 261.015 90.2705 260.403 90.444 259.605C90.6185 258.802 90.3124 258.311 90.039 257.872C89.8563 257.578 89.6881 257.308 89.6881 256.985C89.6881 256.339 89.4451 254.606 89.3236 253.82C88.0136 253.955 86.8853 254.469 86.0392 255.03Z" fill="#A5B2D2"/>
<path fill-rule="evenodd" clip-rule="evenodd" d="M102.802 226.978C109.215 223.612 126.76 215.412 142.151 218.49C161.39 222.338 169.566 233.4 171.009 243.019C172.452 252.639 172.452 256.967 163.313 262.499C161.401 263.656 159.962 264.645 158.746 265.481C154.153 268.64 152.738 269.612 140.948 269.232C137.317 269.115 133.124 269.027 128.842 268.937C115.542 268.659 101.385 268.362 100.547 267.115C100.137 266.506 99.9246 265.842 99.8276 265.243C98.5014 266.401 94.6168 269.091 89.6881 270.585C86.6437 271.507 85.2493 270.113 84.702 268.328C83.8126 268.831 80.9281 269.819 76.5054 269.745C72.0827 269.67 74.6626 265.039 76.5054 262.733C68.4601 258.482 69.1306 249.283 70.7264 244.703C70.3797 243.393 69.8804 241.814 69.3527 240.146C67.4543 234.144 65.188 226.978 68.336 226.978C70.2675 226.978 77.1393 232.305 80.3458 234.798C82.6018 233.138 87.9219 230.033 91.154 230.888C92.4294 226.638 95.465 218.207 97.4039 218.479C98.7406 218.666 100.985 222.92 102.802 226.978ZM86.0392 255.03C86.7706 255.241 88.1688 256.053 87.9103 257.612C87.8087 258.225 87.6965 258.587 87.6138 258.854C87.4334 259.436 87.3934 259.565 87.9103 260.853C88.2812 261.778 88.5741 262.014 88.8465 262.234C89.1278 262.461 89.3872 262.67 89.6881 263.601C90.2805 265.434 91.783 263.707 91.6666 262.733C91.6196 262.339 91.3635 261.972 91.0942 261.585C90.6968 261.015 90.2705 260.403 90.444 259.605C90.6185 258.802 90.3124 258.311 90.039 257.872C89.8563 257.578 89.6881 257.308 89.6881 256.985C89.6881 256.339 89.4451 254.606 89.3236 253.82C88.0136 253.955 86.8853 254.469 86.0392 255.03ZM104.573 248.328C104.571 248.152 104.57 247.998 104.533 247.903C104.502 247.663 102.965 246.963 102.201 246.644C102.534 245.747 103.03 244.795 103.707 244.111C103.983 244.598 104.719 245.691 105.464 246.156C105.609 246.247 105.736 246.322 105.848 246.389C106.46 246.751 106.661 246.871 107.152 247.903C107.476 248.582 107.582 248.848 107.772 249.02C107.925 249.158 108.133 249.235 108.55 249.417C109.378 249.777 109.31 251.472 109.283 252.141C109.279 252.229 109.277 252.3 109.277 252.347C109.277 252.754 107.612 253.142 107.612 252.793C107.612 252.645 107.424 252.496 107.208 252.326C106.915 252.095 106.57 251.823 106.57 251.454C106.57 250.814 105.464 249.753 104.94 249.417C104.583 249.187 104.577 248.706 104.573 248.328Z" fill="#CFBFA5"/>
<path d="M104.94 249.417C105.464 249.753 106.57 250.814 106.57 251.454C106.57 251.823 106.915 252.095 107.208 252.326C107.424 252.496 107.612 252.645 107.612 252.793C107.612 253.142 109.277 252.754 109.277 252.347C109.277 252.3 109.279 252.229 109.283 252.141C109.31 251.472 109.378 249.777 108.55 249.417C108.133 249.235 107.925 249.158 107.772 249.02C107.582 248.848 107.476 248.582 107.152 247.903C106.661 246.871 106.46 246.751 105.848 246.389C105.736 246.322 105.609 246.247 105.464 246.156C104.719 245.691 103.983 244.598 103.707 244.111C103.03 244.795 102.534 245.747 102.201 246.644C102.965 246.963 104.502 247.663 104.533 247.903C104.57 247.998 104.571 248.152 104.573 248.328C104.577 248.706 104.583 249.187 104.94 249.417Z" fill="#A5B2D2"/>
<path d="M110.888 241.133C109.789 235.979 106.791 232.997 104.875 231.957C103.193 227.578 99.3428 218.751 97.4039 218.479M110.888 241.133C111.398 243.529 111.498 246.395 110.888 249.753C110.331 252.814 109.204 255.436 107.612 257.612M110.888 241.133C116.579 235.786 130.559 225.779 140.948 228.525M99.8276 263.601C100.358 261.571 102.658 257.532 107.612 257.612M99.8276 263.601C95.4824 265.398 90.1898 265.886 84.4691 265.022M99.8276 263.601C99.7578 263.936 99.7146 264.546 99.8276 265.243M107.612 257.612C112.678 257.489 123.61 257.489 126.81 258.482C130.809 259.724 136.051 261.103 141.843 260.344C146.478 259.738 149.797 257.333 150.877 256.207M84.4691 265.022C83.1163 264.818 81.7396 264.538 80.3458 264.182C78.8868 263.81 77.6134 263.318 76.5054 262.733M84.4691 265.022C84.3491 265.969 84.3633 267.223 84.702 268.328M99.8276 265.243C99.9246 265.842 100.137 266.506 100.547 267.115C101.385 268.362 115.542 268.659 128.842 268.937C133.124 269.027 137.317 269.115 140.948 269.232C152.738 269.612 154.153 268.64 158.746 265.481C159.962 264.645 161.401 263.656 163.313 262.499C172.452 256.967 172.452 252.639 171.009 243.019C169.566 233.4 161.39 222.338 142.151 218.49C126.76 215.412 109.215 223.612 102.802 226.978C100.985 222.92 98.7406 218.666 97.4039 218.479M99.8276 265.243C98.5014 266.401 94.6168 269.091 89.6881 270.585C86.6437 271.507 85.2493 270.113 84.702 268.328M76.5054 262.733C68.4601 258.482 69.1306 249.283 70.7264 244.703C70.3797 243.393 69.8804 241.814 69.3527 240.146C67.4543 234.144 65.188 226.978 68.336 226.978C70.2675 226.978 77.1393 232.305 80.3458 234.798C82.6018 233.138 87.9219 230.033 91.154 230.888C92.4294 226.638 95.465 218.207 97.4039 218.479M76.5054 262.733C74.6626 265.039 72.0827 269.67 76.5054 269.745C80.9281 269.819 83.8126 268.831 84.702 268.328M84.702 256.177C84.9826 255.849 85.4402 255.427 86.0392 255.03M91.154 253.889C90.5142 253.774 89.9013 253.76 89.3236 253.82M101.759 248.203C101.844 247.761 101.989 247.213 102.201 246.644M106.104 243.156C105.136 243.063 104.342 243.469 103.707 244.111M86.0392 255.03C86.7706 255.241 88.1688 256.053 87.9103 257.612C87.8087 258.225 87.6965 258.587 87.6138 258.854C87.4334 259.436 87.3934 259.565 87.9103 260.853C88.2812 261.778 88.5741 262.014 88.8465 262.234C89.1278 262.461 89.3872 262.67 89.6881 263.601C90.2805 265.434 91.783 263.707 91.6666 262.733C91.6196 262.339 91.3635 261.972 91.0942 261.585C90.6968 261.015 90.2705 260.403 90.444 259.605C90.6185 258.802 90.3124 258.311 90.039 257.872C89.8563 257.578 89.6881 257.308 89.6881 256.985C89.6881 256.339 89.4451 254.606 89.3236 253.82M86.0392 255.03C86.8853 254.469 88.0136 253.955 89.3236 253.82M103.707 244.111C103.983 244.598 104.719 245.691 105.464 246.156C105.609 246.247 105.736 246.322 105.848 246.389C106.46 246.751 106.661 246.871 107.152 247.903C107.476 248.582 107.582 248.848 107.772 249.02C107.925 249.158 108.133 249.235 108.55 249.417C109.378 249.777 109.31 251.472 109.283 252.141C109.279 252.229 109.277 252.3 109.277 252.347C109.277 252.754 107.612 253.142 107.612 252.793C107.612 252.645 107.424 252.496 107.208 252.326C106.915 252.095 106.57 251.823 106.57 251.454C106.57 250.814 105.464 249.753 104.94 249.417C104.583 249.187 104.577 248.706 104.573 248.328C104.571 248.152 104.57 247.998 104.533 247.903C104.502 247.663 102.965 246.963 102.201 246.644M103.707 244.111C103.03 244.795 102.534 245.747 102.201 246.644" stroke="black" stroke-width="1.125" stroke-linecap="round" stroke-linejoin="round"/>
<path d="M95.098 230.385C96.514 231.502 99.1484 231.615 100.289 231.531C101.089 229.973 99.0597 224.038 97.4822 223.96C96.2202 223.897 95.3669 228.217 95.098 230.385Z" fill="#E7A7AB" stroke="black" stroke-width="1.125"/>
<path d="M76.3274 236.073C75.6971 237.761 73.5052 239.224 72.488 239.744C70.9965 238.828 69.6515 232.706 70.9585 231.821C72.004 231.113 74.9734 234.361 76.3274 236.073Z" fill="#E7A7AB" stroke="black" stroke-width="1.125"/>
<path d="M99.8523 255.25L97.2129 254.27L99.8523 252.083V255.25Z" fill="#E7A7AB"/>
<path d="M99.8523 255.25L97.2129 254.27L99.8523 252.083V255.25ZM99.8523 255.25C100.154 256.004 100.576 257.739 99.8523 258.644M99.8523 255.25C100.606 256.055 102.386 257.422 103.472 256.457" stroke="black" stroke-width="1.125" stroke-linecap="round" stroke-linejoin="round"/>
<path d="M88.6693 236.343C88.3493 236.727 87.4891 237.275 86.1457 237.119L81.1003 223.031C78.5841 227.201 71.5891 233.429 63.7384 224.973C65.1426 220.825 70.1872 213.623 79.1321 218.004C79.2093 217.056 79.8454 215.539 81.7714 217.045C82.7356 213.478 87.0974 207.665 96.8317 212.955C96.6732 217.529 93.8328 225.757 83.7396 222.072L88.6693 236.343Z" fill="#448E60"/>
<path d="M81.7714 217.045C79.8454 215.539 79.2093 217.056 79.1321 218.004M81.7714 217.045C82.7356 213.478 87.0974 207.665 96.8317 212.955C96.6732 217.529 93.8328 225.757 83.7396 222.072M81.7714 217.045L83.0743 220.373M79.1321 218.004C70.1872 213.623 65.1426 220.825 63.7384 224.973C71.5891 233.429 78.5841 227.201 81.1003 223.031M79.1321 218.004L80.1162 220.517M83.7396 222.072L88.6693 236.343C88.3493 236.727 87.4891 237.275 86.1457 237.119L81.1003 223.031M83.7396 222.072L83.0743 220.373M83.0743 220.373C83.4082 218.637 85.9572 214.966 93.4818 214.171M81.1003 223.031L80.1162 220.517M67.4848 224.532C68.7895 222.371 73.1424 218.543 80.1162 220.517" stroke="black" stroke-width="1.125" stroke-linecap="round" stroke-linejoin="round"/>
<path d="M128.591 208.776C127.601 208.711 125.299 208.726 121.678 208.812C121.491 208.819 121.341 208.883 121.226 209.027C117.26 213.631 112.276 216.557 106.267 217.805C106.137 217.833 106.001 217.769 105.944 217.654C105.829 217.446 105.843 217.238 105.98 217.044C107.565 214.635 108.633 212.032 109.178 209.228C109.214 209.012 109.063 208.826 108.841 208.819C103.857 208.733 98.8585 208.704 93.8457 208.711C90.0018 208.718 87.2552 208.467 85.6129 207.951C75.5228 204.788 74.0096 192.224 81.4535 185.404C84.8026 182.342 88.797 181.317 93.4441 182.349C93.6449 182.392 93.7811 182.321 93.8529 182.134C99.2672 168.738 116.407 165.59 124.08 179.108C124.166 179.258 124.346 179.33 124.518 179.28C133.891 176.275 142.131 181.646 144.461 190.826M128.591 208.776C135.49 209.206 140.438 206.409 143.443 200.392C144.97 197.337 145.3 194.146 144.461 190.826M128.591 208.776L128.626 208.214C128.626 208.214 128.626 208.214 128.626 208.214M128.591 208.776L128.628 208.214C128.627 208.214 128.627 208.214 128.626 208.214M144.461 190.826L143.916 190.964M144.461 190.826L143.916 190.964C143.916 190.964 143.916 190.964 143.916 190.964M143.916 190.964C142.783 186.502 140.223 182.996 136.841 180.966C133.464 178.939 129.23 178.36 124.689 179.816L124.682 179.818L124.675 179.82C124.26 179.941 123.81 179.769 123.592 179.387L123.591 179.385C119.865 172.822 113.882 170.344 108.192 171.086C102.483 171.83 97.0111 175.825 94.3758 182.341L120.794 208.666C121.026 208.382 121.338 208.262 121.656 208.25L121.664 208.249V208.249C125.276 208.163 127.605 208.148 128.626 208.214M143.916 190.964C144.723 194.155 144.406 197.208 142.94 200.141L142.94 200.141C141.478 203.068 139.561 205.179 137.201 206.512C134.839 207.845 131.991 208.424 128.626 208.214" fill="white" stroke="black" stroke-width="1.125"/>
<path d="M124.214 196.088C123.971 195.586 123.495 195.259 122.943 195.209C122.396 195.16 121.875 195.398 121.551 195.844C119.908 198.102 116.173 201.891 109.626 201.891C101.737 201.891 96.8072 194.978 95.6533 193.17C96.8067 191.363 101.737 184.449 109.626 184.449C116.173 184.449 119.908 188.238 121.551 190.497C121.875 190.942 122.396 191.177 122.943 191.13C123.495 191.081 123.971 190.753 124.214 190.252C124.804 189.038 125.809 187.572 127.433 186.751L126.036 190.295C125.306 192.149 125.306 194.191 126.036 196.044L127.433 199.589C125.809 198.768 124.804 197.302 124.214 196.088Z" fill="#E6703F"/>
<path d="M123.708 196.333L123.708 196.333C123.551 196.009 123.248 195.801 122.893 195.77L122.892 195.77C122.544 195.738 122.215 195.887 122.005 196.175L123.708 196.333ZM123.708 196.333C124.324 197.601 125.4 199.192 127.179 200.091L128.498 200.757L127.957 199.383L126.56 195.838L126.56 195.838C125.881 194.117 125.881 192.223 126.56 190.502L126.56 190.502L127.957 186.957L128.498 185.582L127.179 186.249C125.4 187.148 124.324 188.739 123.708 190.006L123.708 190.006C123.551 190.33 123.249 190.538 122.894 190.57C122.542 190.6 122.213 190.45 122.005 190.166C120.305 187.828 116.422 183.887 109.626 183.887C105.509 183.887 102.181 185.692 99.7551 187.698C97.3304 189.704 95.773 191.937 95.1792 192.867L94.986 193.17M123.708 196.333L94.986 193.17M94.986 193.17L95.1792 193.473M94.986 193.17L95.1792 193.473M95.1792 193.473C95.7732 194.403 97.3308 196.636 99.7555 198.642C102.182 200.648 105.509 202.453 109.626 202.453C116.422 202.453 120.305 198.512 122.005 196.175L95.1792 193.473Z" stroke="black" stroke-width="1.125"/>
</svg>
