<svg width="241" height="331" viewBox="0 0 241 331" fill="none" xmlns="http://www.w3.org/2000/svg">
<path d="M82.4961 276.976V257.177C83.2442 253.172 91.8909 245.162 120.493 245.162C149.095 245.162 157.742 253.172 158.49 257.177V276.303C157.445 277.427 155.537 278.895 152.731 280.375L149.986 321.897C148.289 324.598 140.013 330 120.493 330C100.972 330 92.3008 324.598 90.405 321.897L87.8012 280.375C85.2422 279.121 83.483 277.909 82.4961 276.976Z" fill="#E6703F"/>
<path d="M158.49 257.177C158.49 263.973 141.478 269.482 120.493 269.482C99.5078 269.482 82.4961 263.973 82.4961 257.177M158.49 257.177V276.303C157.445 277.427 155.537 278.895 152.731 280.375M158.49 257.177C157.742 253.172 149.095 245.162 120.493 245.162C91.8909 245.162 83.2442 253.172 82.4961 257.177M82.4961 257.177V276.976C83.483 277.909 85.2422 279.121 87.8012 280.375M87.8012 280.375C93.9509 283.389 104.72 286.642 120.493 286.826C135.885 287.005 146.512 283.657 152.731 280.375M87.8012 280.375L90.405 321.897C92.3008 324.598 100.972 330 120.493 330C140.013 330 148.289 324.598 149.986 321.897L152.731 280.375" stroke="black" stroke-width="1.125"/>
<path d="M152.113 257.177C152.113 258.162 151.41 259.225 149.831 260.292C148.272 261.345 145.979 262.317 143.095 263.141C137.334 264.788 129.343 265.814 120.493 265.814C111.643 265.814 103.652 264.788 97.8911 263.141C95.0069 262.317 92.7138 261.345 91.1546 260.292C89.5758 259.225 88.873 258.162 88.873 257.177C88.873 256.192 89.5758 255.129 91.1546 254.062C92.7138 253.008 95.0069 252.037 97.8911 251.212C103.652 249.565 111.643 248.539 120.493 248.539C129.343 248.539 137.334 249.565 143.095 251.212C145.979 252.037 148.272 253.008 149.831 254.062C151.41 255.129 152.113 256.192 152.113 257.177Z" fill="#3A2314" stroke="black" stroke-width="1.125"/>
<path d="M97.0792 133.148C99.899 130.533 105.923 125.842 107.461 127.996C109.384 130.687 108.154 136.84 104.693 142.685C104.441 146.436 102.802 152.841 98.3944 155.234C99.289 158.972 102.063 167.171 106 170.063C110.922 173.677 121.766 177.753 125.688 180.137C129.61 182.521 131.225 183.906 137.993 185.213C144.76 186.52 159.505 188.059 166.503 185.213C173.502 182.368 184.751 172.754 188.212 169.755C191.672 166.756 193.618 168.567 191.157 171.259C188.696 173.95 173.362 187.608 164.672 189.608C155.981 191.607 141.334 189.838 136.951 189.608C138.617 191.069 148.283 197.625 158.372 198.979C170.985 200.671 183.136 198.441 185.674 198.979C188.212 199.517 192.211 204.516 185.674 206.977C179.137 209.438 163.348 208.305 151.135 209.178C143.251 209.741 134.858 212.122 123.845 211.251C125.037 215.782 123.992 256.047 122.652 260.233C121.313 264.418 116.96 261.405 115.285 259.061C113.611 256.717 115.788 242.652 115.285 236.625C114.783 230.597 113.779 231.435 109.09 223.733C105.34 217.571 104.596 209.824 104.693 206.72C104.127 206.502 103.556 206.274 102.979 206.037C84.9728 198.639 75.8185 186.321 73.4921 181.087C70.4546 181.67 63.598 182.935 60.4712 183.334C56.5629 183.833 52.8208 189.072 52.405 184.748C51.9892 180.423 55.066 177.263 64.3796 175.101C66.2989 174.656 68.3169 174.016 70.316 173.276C70.2483 172.755 70.1969 172.221 70.1604 171.678C65.323 167.968 55.2157 159.967 53.486 157.639C51.7952 157.921 48.48 157.835 48.7461 155.234C49.0787 151.984 53.5692 151.069 55.8144 152.067C57.6106 152.865 66.5573 158.676 70.8061 161.481C71.6849 156.062 73.1832 151.004 74.1922 148.242C69.2693 141.982 74.6357 133.437 77.9343 129.947C77.8511 125.789 84.3097 117.889 87.7469 118.139C90.4965 118.338 90.5003 126.094 90.1584 129.947C92.0269 130.806 96.027 132.649 97.0792 133.148Z" fill="#CFBFA5"/>
<path d="M93.157 156.066C95.2284 156.368 96.9583 156.014 98.3944 155.234M98.3944 155.234C102.802 152.841 104.441 146.436 104.693 142.685C108.154 136.84 109.384 130.687 107.461 127.996C105.923 125.842 99.899 130.533 97.0792 133.148C96.027 132.649 92.0269 130.806 90.1584 129.947C90.5003 126.094 90.4965 118.338 87.7469 118.139C84.3097 117.889 77.8511 125.789 77.9343 129.947C74.6357 133.437 69.2693 141.982 74.1922 148.242C73.1832 151.004 71.6849 156.062 70.8061 161.481M98.3944 155.234C99.289 158.972 102.063 167.171 106 170.063C110.922 173.677 121.766 177.753 125.688 180.137M125.688 180.137C129.61 182.521 131.225 183.906 137.993 185.213C144.76 186.52 159.505 188.059 166.503 185.213C173.502 182.368 184.751 172.754 188.212 169.755C191.672 166.756 193.618 168.567 191.157 171.259C188.696 173.95 173.362 187.608 164.672 189.608C155.981 191.607 141.334 189.838 136.951 189.608M125.688 180.137C129.661 183.854 134.428 188.316 136.951 189.608M136.951 189.608C138.617 191.069 148.283 197.625 158.372 198.979C170.985 200.671 183.136 198.441 185.674 198.979C188.212 199.517 192.211 204.516 185.674 206.977C179.137 209.438 163.348 208.305 151.135 209.178C143.251 209.741 134.858 212.122 123.845 211.251M73.4921 181.087C75.8185 186.321 84.9728 198.639 102.979 206.037C103.556 206.274 104.127 206.502 104.693 206.72M73.4921 181.087C70.4546 181.67 63.598 182.935 60.4712 183.334C56.5629 183.833 52.8208 189.072 52.405 184.748C51.9892 180.423 55.066 177.263 64.3796 175.101C66.2989 174.656 68.3169 174.016 70.316 173.276M73.4921 181.087C77.6616 180.783 86.5161 179.825 88.5784 178.428M84.3097 166.605C81.6825 168.173 76.0779 171.142 70.316 173.276M70.316 173.276C70.2483 172.755 70.1969 172.221 70.1604 171.678M70.1604 171.678C65.323 167.968 55.2157 159.967 53.486 157.639C51.7952 157.921 48.48 157.835 48.7461 155.234C49.0787 151.984 53.5692 151.069 55.8144 152.067C57.6106 152.865 66.5573 158.676 70.8061 161.481M70.1604 171.678C69.944 168.459 70.2519 164.898 70.8061 161.481M104.693 206.72C104.596 209.824 105.34 217.571 109.09 223.733C113.779 231.435 114.783 230.597 115.285 236.625C115.788 242.652 113.611 256.717 115.285 259.061C116.96 261.405 121.313 264.418 122.652 260.233C123.992 256.047 125.037 215.782 123.845 211.251M104.693 206.72C111.943 209.521 118.234 210.808 123.845 211.251" stroke="black" stroke-width="1.125"/>
<path d="M86.1245 147.239C85.6651 146.983 85.599 145.966 85.6305 145.431C86.5693 145.431 87.7641 146.284 88.2441 146.711C87.8708 146.924 86.964 147.34 86.3239 147.298C86.2504 147.293 86.1841 147.273 86.1245 147.239Z" fill="#E7A7AB"/>
<path d="M86.3239 147.298C85.6839 147.255 85.595 146.035 85.6305 145.431C86.5693 145.431 87.7641 146.284 88.2441 146.711C87.8708 146.924 86.964 147.34 86.3239 147.298ZM86.3239 147.298C86.3239 146.973 84.5432 147.885 83.6529 148.382M86.3239 147.298C86.7727 147.767 87.019 149.18 87.0861 149.827M80.8237 139.676C81.7833 139.226 83.8104 138.956 84.2422 141.475M92.8782 145.431C93.8378 144.995 95.7569 144.759 95.7569 147.298" stroke="black" stroke-width="1.125" stroke-linecap="round" stroke-linejoin="round"/>
<path d="M87.0536 128.952C85.4441 129.596 82.9851 128.982 81.9568 128.595C81.6438 126.941 85.1311 122.023 86.6065 122.38C87.7868 122.666 87.3964 126.881 87.0536 128.952Z" fill="#E7A7AB" stroke="black" stroke-width="1.125"/>
<path d="M102.913 137.963C101.769 137.642 100.559 135.773 100.097 134.879C101.572 133.15 104.684 130.122 105.328 131.838C106.132 133.985 104.344 138.366 102.913 137.963Z" fill="#E7A7AB" stroke="black" stroke-width="1.125"/>
<path d="M92.8891 134.045C92.497 134.046 91.7426 133.926 91.1618 133.039L95.3356 125.871C91.5617 126.45 84.3008 125.366 85.4491 116.395C88.6516 115.157 95.52 114.578 97.3736 122.162C97.9827 121.733 99.2159 121.354 99.2759 123.27C101.908 122.059 107.597 121.767 109.3 130.282C106.466 132.484 100.087 134.905 97.2379 126.979L92.8891 134.045Z" fill="#448E60"/>
<path d="M99.2759 123.27C99.2159 121.354 97.9827 121.733 97.3736 122.162M99.2759 123.27C101.908 122.059 107.597 121.767 109.3 130.282C106.466 132.484 100.087 134.905 97.2379 126.979M99.2759 123.27L97.9267 125.725M97.3736 122.162C95.52 114.578 88.6516 115.157 85.4491 116.395C84.3008 125.366 91.5617 126.45 95.3356 125.871M97.3736 122.162L96.3546 124.017M97.2379 126.979L92.8891 134.045C92.497 134.046 91.7426 133.926 91.1618 133.039L95.3356 125.871M97.2379 126.979L97.9267 125.725M97.9267 125.725C99.1394 125.055 102.629 124.746 106.886 128.877M95.3356 125.871L96.3546 124.017M87.5958 118.429C89.5518 118.129 94.0419 118.827 96.3546 124.017" stroke="black" stroke-width="1.125" stroke-linecap="round" stroke-linejoin="round"/>
</svg>
