<svg width="241" height="331" viewBox="0 0 241 331" fill="none" xmlns="http://www.w3.org/2000/svg">
<path d="M82.1807 277.265V257.466C82.9288 253.461 91.5755 245.451 120.177 245.451C148.779 245.451 157.426 253.461 158.174 257.466V276.592C157.13 277.716 155.221 279.184 152.415 280.665L149.671 322.186C147.973 324.887 139.698 330.289 120.177 330.289C100.657 330.289 91.9853 324.887 90.0896 322.186L87.4858 280.665C84.9267 279.41 83.1676 278.198 82.1807 277.265Z" fill="#E6703F"/>
<path d="M158.174 257.466C158.174 264.262 141.162 269.771 120.177 269.771C99.1924 269.771 82.1807 264.262 82.1807 257.466M158.174 257.466V276.592C157.13 277.716 155.221 279.184 152.415 280.665M158.174 257.466C157.426 253.461 148.779 245.451 120.177 245.451C91.5755 245.451 82.9288 253.461 82.1807 257.466M82.1807 257.466V277.265C83.1676 278.198 84.9267 279.41 87.4858 280.665M87.4858 280.665C93.6354 283.678 104.404 286.931 120.177 287.115C135.569 287.294 146.196 283.946 152.415 280.665M87.4858 280.665L90.0896 322.186C91.9853 324.887 100.657 330.289 120.177 330.289C139.698 330.289 147.973 324.887 149.671 322.186L152.415 280.665" stroke="black" stroke-width="1.125"/>
<path d="M151.797 257.466C151.797 258.451 151.095 259.514 149.516 260.581C147.957 261.635 145.663 262.606 142.779 263.43C137.018 265.077 129.027 266.103 120.177 266.103C111.328 266.103 103.336 265.077 97.5757 263.43C94.6915 262.606 92.3984 261.635 90.8391 260.581C89.2604 259.514 88.5576 258.451 88.5576 257.466C88.5576 256.481 89.2604 255.418 90.8391 254.351C92.3984 253.297 94.6915 252.326 97.5757 251.501C103.336 249.854 111.328 248.828 120.177 248.828C129.027 248.828 137.018 249.854 142.779 251.501C145.663 252.326 147.957 253.297 149.516 254.351C151.095 255.418 151.797 256.481 151.797 257.466Z" fill="#3A2314" stroke="black" stroke-width="1.125"/>
<path fill-rule="evenodd" clip-rule="evenodd" d="M99.102 227.121C105.515 223.754 123.059 215.555 138.45 218.633C157.689 222.48 165.866 233.542 167.309 243.162C168.752 252.781 168.752 257.11 159.613 262.641C157.701 263.799 156.262 264.788 155.046 265.624C150.453 268.782 149.038 269.755 137.248 269.375C133.617 269.258 129.424 269.17 125.142 269.08C111.842 268.801 97.6847 268.504 96.8464 267.258C96.4367 266.649 96.2244 265.985 96.1274 265.386C94.8012 266.544 90.9166 269.234 85.9879 270.727C82.9435 271.65 81.5491 270.255 81.0018 268.47C80.1124 268.974 77.2279 269.962 72.8052 269.887C68.3825 269.813 70.9624 265.181 72.8052 262.875C64.7599 258.625 65.4304 249.425 67.0262 244.845C66.6795 243.536 66.1802 241.957 65.6525 240.288C63.7541 234.286 61.4878 227.121 64.6358 227.121C66.5673 227.121 73.4391 232.447 76.6456 234.94C78.9016 233.281 84.2217 230.175 87.4538 231.031C88.7292 226.781 91.7648 218.349 93.7037 218.621C95.0404 218.809 97.2851 223.062 99.102 227.121Z" fill="#CFBFA5"/>
<path d="M107.187 241.276C106.089 236.121 103.09 233.139 101.175 232.1C99.4926 227.72 95.6426 218.893 93.7037 218.621M107.187 241.276C107.698 243.672 107.798 246.537 107.187 249.896C106.631 252.956 105.503 255.579 103.912 257.755M107.187 241.276C112.879 235.929 126.859 225.921 137.248 228.667M96.1274 263.744C96.658 261.714 98.9578 257.674 103.912 257.755M96.1274 263.744C91.7822 265.54 86.4896 266.028 80.7689 265.165M96.1274 263.744C96.0576 264.078 96.0144 264.688 96.1274 265.386M103.912 257.755C108.978 257.631 119.91 257.632 123.109 258.625C127.109 259.866 132.35 261.246 138.143 260.487C142.777 259.88 146.097 257.476 147.177 256.349M80.7689 265.165C79.4161 264.96 78.0394 264.681 76.6456 264.325C75.1866 263.952 73.9132 263.461 72.8052 262.875M80.7689 265.165C80.6489 266.111 80.6631 267.366 81.0018 268.47M96.1274 265.386C96.2244 265.985 96.4367 266.649 96.8464 267.258C97.6847 268.504 111.842 268.801 125.142 269.08C129.424 269.17 133.617 269.258 137.248 269.375C149.038 269.755 150.453 268.782 155.046 265.624C156.262 264.788 157.701 263.799 159.613 262.641C168.752 257.11 168.752 252.781 167.309 243.162C165.866 233.542 157.689 222.48 138.45 218.633C123.059 215.555 105.515 223.754 99.102 227.121C97.2851 223.062 95.0404 218.809 93.7037 218.621M96.1274 265.386C94.8012 266.544 90.9166 269.234 85.9879 270.727C82.9435 271.65 81.5491 270.255 81.0018 268.47M72.8052 262.875C64.7599 258.625 65.4304 249.425 67.0262 244.845C66.6795 243.536 66.1802 241.957 65.6525 240.288C63.7541 234.286 61.4878 227.121 64.6358 227.121C66.5673 227.121 73.4391 232.447 76.6456 234.94C78.9016 233.281 84.2217 230.175 87.4538 231.031C88.7292 226.781 91.7648 218.349 93.7037 218.621M72.8052 262.875C70.9624 265.181 68.3825 269.813 72.8052 269.887C77.2279 269.962 80.1124 268.974 81.0018 268.47" stroke="black" stroke-width="1.125" stroke-linecap="round" stroke-linejoin="round"/>
<path d="M91.3988 230.528C92.8148 231.645 95.4492 231.757 96.5894 231.674C97.3895 230.116 95.3605 224.181 93.783 224.102C92.5209 224.04 91.6677 228.36 91.3988 230.528Z" fill="#E7A7AB" stroke="black" stroke-width="1.125"/>
<path d="M72.6273 236.215C71.9969 237.904 69.805 239.366 68.7878 239.887C67.2964 238.971 65.9513 232.848 67.2583 231.963C68.3038 231.255 71.2732 234.503 72.6273 236.215Z" fill="#E7A7AB" stroke="black" stroke-width="1.125"/>
<path d="M94.7077 255.701L92.0684 254.721L94.7077 252.534V255.701Z" fill="#E7A7AB" stroke="black" stroke-width="1.125" stroke-linecap="round" stroke-linejoin="round"/>
<path d="M84.9691 236.485C84.6491 236.87 83.7889 237.418 82.4455 237.262L77.4001 223.173C74.8839 227.344 67.8889 233.571 60.0382 225.116C61.4424 220.967 66.487 213.765 75.4319 218.146C75.5091 217.199 76.1452 215.681 78.0712 217.188C79.0354 213.62 83.3972 207.808 93.1315 213.097C92.973 217.672 90.1326 225.9 80.0394 222.215L84.9691 236.485Z" fill="#448E60"/>
<path d="M78.0712 217.188C76.1452 215.681 75.5091 217.199 75.4319 218.146M78.0712 217.188C79.0354 213.62 83.3972 207.808 93.1316 213.097C92.973 217.672 90.1326 225.9 80.0394 222.215M78.0712 217.188L79.3742 220.516M75.4319 218.146C66.487 213.765 61.4424 220.967 60.0382 225.116C67.8889 233.571 74.8839 227.344 77.4001 223.173M75.4319 218.146L76.416 220.66M80.0394 222.215L84.9691 236.485C84.6491 236.87 83.7889 237.418 82.4455 237.262L77.4001 223.173M80.0394 222.215L79.3742 220.516M79.3742 220.516C79.708 218.78 82.257 215.109 89.7816 214.314M77.4001 223.173L76.416 220.66M63.7846 224.675C65.0893 222.514 69.4422 218.685 76.416 220.66" stroke="black" stroke-width="1.125" stroke-linecap="round" stroke-linejoin="round"/>
<path d="M94.3979 260.243C94.5651 259.951 94.78 259.615 95.0367 259.256C95.4104 258.734 95.8729 258.164 96.4066 257.614M98.6801 256.752C98.0302 256.804 96.9403 257.063 96.4066 257.614M96.4066 257.614C96.05 257.614 95.1361 256.288 94.7237 255.625" stroke="black" stroke-width="1.125" stroke-linecap="round" stroke-linejoin="round"/>
<path d="M86.1286 251.338C86.8396 252.888 86.1595 254.721 84.6095 255.432C83.0595 256.143 81.2266 255.463 80.5156 253.913C79.8046 252.363 80.4847 250.53 82.0347 249.819C83.5847 249.108 85.4176 249.789 86.1286 251.338Z" fill="white" stroke="black" stroke-width="1.125"/>
<circle cx="83.3221" cy="252.626" r="1.12675" transform="rotate(-24.6421 83.3221 252.626)" fill="black"/>
<path d="M101.423 244.252C102.134 245.802 101.453 247.634 99.9035 248.345C98.3535 249.056 96.5206 248.376 95.8096 246.826C95.0986 245.276 95.7787 243.444 97.3287 242.733C98.8786 242.021 100.712 242.702 101.423 244.252Z" fill="white" stroke="black" stroke-width="1.125"/>
<circle cx="98.615" cy="245.539" r="1.12675" transform="rotate(-24.6421 98.615 245.539)" fill="black"/>
</svg>
