<svg width="241" height="331" viewBox="0 0 241 331" fill="none" xmlns="http://www.w3.org/2000/svg">
<path d="M82.8809 277.309V257.51C83.629 253.505 92.2757 245.495 120.878 245.495C149.48 245.495 158.126 253.505 158.874 257.51V276.636C157.83 277.76 155.921 279.228 153.115 280.708L150.371 322.23C148.673 324.931 140.398 330.333 120.878 330.333C101.357 330.333 92.6855 324.931 90.7898 322.23L88.186 280.708C85.6269 279.454 83.8678 278.242 82.8809 277.309Z" fill="#E6703F"/>
<path d="M158.874 257.51C158.874 264.306 141.863 269.815 120.878 269.815C99.8926 269.815 82.8809 264.306 82.8809 257.51M158.874 257.51V276.636C157.83 277.76 155.921 279.228 153.115 280.708M158.874 257.51C158.126 253.505 149.48 245.495 120.878 245.495C92.2757 245.495 83.629 253.505 82.8809 257.51M82.8809 257.51V277.309C83.8678 278.242 85.6269 279.454 88.186 280.708M88.186 280.708C94.3356 283.722 105.105 286.975 120.878 287.159C136.27 287.338 146.896 283.99 153.115 280.708M88.186 280.708L90.7898 322.23C92.6855 324.931 101.357 330.333 120.878 330.333C140.398 330.333 148.673 324.931 150.371 322.23L153.115 280.708" stroke="black" stroke-width="1.125"/>
<path d="M152.497 257.51C152.497 258.495 151.795 259.558 150.216 260.625C148.657 261.678 146.364 262.65 143.479 263.474C137.719 265.121 129.728 266.147 120.878 266.147C112.028 266.147 104.037 265.121 98.2759 263.474C95.3917 262.65 93.0985 261.678 91.5393 260.625C89.9606 259.558 89.2578 258.495 89.2578 257.51C89.2578 256.525 89.9606 255.462 91.5393 254.395C93.0985 253.341 95.3917 252.37 98.2759 251.545C104.037 249.898 112.028 248.872 120.878 248.872C129.728 248.872 137.719 249.898 143.479 251.545C146.364 252.37 148.657 253.341 150.216 254.395C151.795 255.462 152.497 256.525 152.497 257.51Z" fill="#3A2314" stroke="black" stroke-width="1.125"/>
<path d="M84.0402 255.216C84.7716 255.428 86.1698 256.24 85.9113 257.799C85.8097 258.411 85.6975 258.773 85.6148 259.04C85.4344 259.622 85.3944 259.751 85.9113 261.04C86.2822 261.964 86.5751 262.201 86.8475 262.421C87.1288 262.647 87.3882 262.857 87.6891 263.788C88.2815 265.621 89.784 263.893 89.6676 262.919C89.6205 262.526 89.3645 262.158 89.0952 261.772C88.6978 261.201 88.2715 260.589 88.445 259.791C88.6194 258.989 88.3133 258.497 88.04 258.058C87.8572 257.765 87.6891 257.495 87.6891 257.171C87.6891 256.525 87.4461 254.792 87.3246 254.006C86.0145 254.142 84.8863 254.655 84.0402 255.216Z" fill="#A5B2D2"/>
<path fill-rule="evenodd" clip-rule="evenodd" d="M100.803 227.165C107.216 223.798 124.761 215.599 140.152 218.677C159.391 222.524 167.567 233.586 169.01 243.206C170.453 252.825 170.453 257.154 161.314 262.685C159.402 263.843 157.963 264.832 156.747 265.668C152.154 268.826 150.739 269.799 138.949 269.419C135.318 269.302 131.125 269.214 126.843 269.124C113.543 268.845 99.3859 268.548 98.5476 267.302C98.1379 266.692 97.9256 266.029 97.8285 265.43C96.5023 266.588 92.6178 269.278 87.6891 270.771C84.6447 271.694 83.2502 270.299 82.703 268.514C81.8136 269.018 78.9291 270.006 74.5064 269.931C70.0837 269.856 72.6636 265.225 74.5064 262.919C66.461 258.669 67.1316 249.469 68.7273 244.889C68.3807 243.579 67.8814 242.001 67.3537 240.332C65.4553 234.33 63.189 227.165 66.337 227.165C68.2685 227.165 75.1403 232.491 78.3468 234.984C80.6028 233.325 85.9228 230.219 89.1549 231.074C90.4304 226.825 93.466 218.393 95.4049 218.665C96.7416 218.853 98.9863 223.106 100.803 227.165ZM84.0402 255.216C84.7716 255.428 86.1698 256.24 85.9113 257.799C85.8097 258.411 85.6975 258.773 85.6148 259.04C85.4344 259.622 85.3944 259.751 85.9113 261.04C86.2822 261.964 86.5751 262.201 86.8475 262.421C87.1288 262.647 87.3882 262.857 87.6891 263.788C88.2815 265.621 89.784 263.893 89.6676 262.919C89.6205 262.526 89.3645 262.158 89.0952 261.772C88.6978 261.201 88.2715 260.589 88.445 259.791C88.6194 258.989 88.3133 258.497 88.04 258.058C87.8572 257.765 87.6891 257.495 87.6891 257.171C87.6891 256.525 87.4461 254.792 87.3246 254.006C86.0145 254.142 84.8863 254.655 84.0402 255.216ZM102.574 248.515C102.572 248.339 102.571 248.185 102.534 248.089C102.503 247.849 100.966 247.15 100.202 246.83C100.535 245.934 101.031 244.982 101.708 244.297C101.984 244.785 102.72 245.877 103.465 246.343C103.61 246.434 103.737 246.509 103.849 246.576C104.461 246.938 104.662 247.057 105.153 248.089C105.477 248.768 105.583 249.034 105.773 249.206C105.926 249.344 106.134 249.422 106.551 249.603C107.379 249.963 107.311 251.658 107.284 252.328C107.28 252.416 107.278 252.486 107.278 252.533C107.278 252.941 105.613 253.329 105.613 252.98C105.613 252.831 105.425 252.683 105.209 252.512C104.916 252.281 104.571 252.009 104.571 251.641C104.571 251 103.465 249.94 102.941 249.603C102.584 249.374 102.578 248.893 102.574 248.515Z" fill="#CFBFA5"/>
<path d="M102.941 249.603C103.465 249.94 104.571 251 104.571 251.641C104.571 252.009 104.916 252.281 105.209 252.512C105.425 252.683 105.613 252.831 105.613 252.98C105.613 253.329 107.278 252.941 107.278 252.533C107.278 252.486 107.28 252.416 107.284 252.328C107.311 251.658 107.379 249.963 106.551 249.603C106.134 249.422 105.926 249.344 105.773 249.206C105.583 249.034 105.477 248.768 105.153 248.089C104.662 247.057 104.461 246.938 103.849 246.576C103.737 246.509 103.61 246.434 103.465 246.343C102.72 245.877 101.984 244.785 101.708 244.297C101.031 244.982 100.535 245.934 100.202 246.83C100.966 247.15 102.503 247.849 102.534 248.089C102.571 248.185 102.572 248.339 102.574 248.515C102.578 248.893 102.584 249.374 102.941 249.603Z" fill="#A5B2D2"/>
<path d="M108.888 241.32C107.79 236.165 104.792 233.183 102.876 232.144C101.194 227.764 97.3438 218.937 95.4049 218.665M108.888 241.32C109.399 243.716 109.499 246.581 108.888 249.94C108.332 253 107.204 255.623 105.613 257.799M108.888 241.32C114.58 235.973 128.56 225.965 138.949 228.711M97.8285 263.788C98.3592 261.758 100.659 257.718 105.613 257.799M97.8285 263.788C93.4833 265.584 88.1908 266.072 82.4701 265.209M97.8285 263.788C97.7588 264.122 97.7156 264.732 97.8285 265.43M105.613 257.799C110.679 257.675 121.611 257.676 124.811 258.669C128.81 259.91 134.052 261.29 139.844 260.531C144.479 259.924 147.798 257.52 148.878 256.393M82.4701 265.209C81.1173 265.004 79.7406 264.725 78.3468 264.369C76.8878 263.996 75.6144 263.505 74.5064 262.919M82.4701 265.209C82.3501 266.155 82.3643 267.41 82.703 268.514M97.8285 265.43C97.9256 266.029 98.1379 266.692 98.5476 267.302C99.3859 268.548 113.543 268.845 126.843 269.124C131.125 269.214 135.318 269.302 138.949 269.419C150.739 269.799 152.154 268.826 156.747 265.668C157.963 264.832 159.402 263.843 161.314 262.685C170.453 257.154 170.453 252.825 169.01 243.206C167.567 233.586 159.391 222.524 140.152 218.677C124.761 215.599 107.216 223.798 100.803 227.165C98.9863 223.106 96.7416 218.853 95.4049 218.665M97.8285 265.43C96.5023 266.588 92.6178 269.278 87.6891 270.771C84.6447 271.694 83.2502 270.299 82.703 268.514M74.5064 262.919C66.461 258.669 67.1316 249.469 68.7273 244.889C68.3807 243.579 67.8814 242.001 67.3537 240.332C65.4553 234.33 63.189 227.165 66.337 227.165C68.2685 227.165 75.1403 232.491 78.3468 234.984C80.6028 233.325 85.9228 230.219 89.1549 231.074C90.4304 226.825 93.466 218.393 95.4049 218.665M74.5064 262.919C72.6636 265.225 70.0837 269.856 74.5064 269.931C78.9291 270.006 81.8136 269.018 82.703 268.514M82.703 256.364C82.9836 256.035 83.4411 255.614 84.0402 255.216M89.1549 254.075C88.5152 253.96 87.9022 253.946 87.3246 254.006M99.7603 248.389C99.8445 247.947 99.9901 247.4 100.202 246.83M104.105 243.342C103.137 243.249 102.343 243.656 101.708 244.297M84.0402 255.216C84.7716 255.428 86.1698 256.24 85.9113 257.799C85.8097 258.411 85.6975 258.773 85.6148 259.04C85.4344 259.622 85.3944 259.751 85.9113 261.04C86.2822 261.964 86.5751 262.201 86.8475 262.421C87.1288 262.647 87.3882 262.857 87.6891 263.788C88.2815 265.621 89.784 263.893 89.6676 262.919C89.6205 262.526 89.3645 262.158 89.0952 261.772C88.6978 261.201 88.2715 260.589 88.445 259.791C88.6194 258.989 88.3133 258.497 88.04 258.058C87.8572 257.765 87.6891 257.495 87.6891 257.171C87.6891 256.525 87.4461 254.792 87.3246 254.006M84.0402 255.216C84.8863 254.655 86.0145 254.142 87.3246 254.006M101.708 244.297C101.984 244.785 102.72 245.877 103.465 246.343C103.61 246.434 103.737 246.509 103.849 246.576C104.461 246.938 104.662 247.057 105.153 248.089C105.477 248.768 105.583 249.034 105.773 249.206C105.926 249.344 106.134 249.422 106.551 249.603C107.379 249.963 107.311 251.658 107.284 252.328C107.28 252.416 107.278 252.486 107.278 252.533C107.278 252.941 105.613 253.329 105.613 252.98C105.613 252.831 105.425 252.683 105.209 252.512C104.916 252.281 104.571 252.009 104.571 251.641C104.571 251 103.465 249.94 102.941 249.603C102.584 249.374 102.578 248.893 102.574 248.515C102.572 248.339 102.571 248.185 102.534 248.089C102.503 247.849 100.966 247.15 100.202 246.83M101.708 244.297C101.031 244.982 100.535 245.934 100.202 246.83" stroke="black" stroke-width="1.125" stroke-linecap="round" stroke-linejoin="round"/>
<path d="M93.099 230.572C94.515 231.689 97.1494 231.801 98.2896 231.718C99.0897 230.16 97.0607 224.225 95.4831 224.146C94.2211 224.084 93.3679 228.404 93.099 230.572Z" fill="#E7A7AB" stroke="black" stroke-width="1.125"/>
<path d="M74.3274 236.259C73.6971 237.948 71.5052 239.41 70.488 239.931C68.9965 239.015 67.6515 232.892 68.9585 232.007C70.004 231.299 72.9734 234.547 74.3274 236.259Z" fill="#E7A7AB" stroke="black" stroke-width="1.125"/>
<path d="M97.8532 255.437L95.2139 254.456L97.8532 252.27V255.437Z" fill="#E7A7AB" stroke="black" stroke-width="1.125" stroke-linecap="round" stroke-linejoin="round"/>
<path d="M86.6693 236.529C86.3493 236.914 85.4891 237.462 84.1457 237.306L79.1003 223.217C76.5841 227.388 69.5891 233.615 61.7384 225.16C63.1426 221.011 68.1872 213.809 77.1321 218.19C77.2093 217.243 77.8454 215.725 79.7714 217.232C80.7356 213.664 85.0974 207.852 94.8317 213.141C94.6732 217.716 91.8328 225.944 81.7396 222.259L86.6693 236.529Z" fill="#448E60"/>
<path d="M79.7714 217.232C77.8454 215.725 77.2093 217.243 77.1321 218.19M79.7714 217.232C80.7356 213.664 85.0974 207.852 94.8317 213.141C94.6732 217.716 91.8328 225.944 81.7396 222.259M79.7714 217.232L81.0743 220.56M77.1321 218.19C68.1872 213.809 63.1426 221.011 61.7384 225.16C69.5891 233.615 76.5841 227.388 79.1003 223.217M77.1321 218.19L78.1162 220.704M81.7396 222.259L86.6693 236.529C86.3493 236.914 85.4891 237.462 84.1457 237.306L79.1003 223.217M81.7396 222.259L81.0743 220.56M81.0743 220.56C81.4082 218.824 83.9572 215.153 91.4818 214.358M79.1003 223.217L78.1162 220.704M65.4848 224.719C66.7895 222.558 71.1424 218.729 78.1162 220.704" stroke="black" stroke-width="1.125" stroke-linecap="round" stroke-linejoin="round"/>
<path fill-rule="evenodd" clip-rule="evenodd" d="M99.1997 257.467L93.4249 255.232L92.5842 256.932L97.8298 259.11C98.2035 258.587 98.666 258.017 99.1997 257.467Z" fill="#D95962"/>
<path d="M89.7281 254.613C89.47 255.177 90.3972 255.888 90.893 256.173L92.5842 256.932L93.4249 255.232L91.8061 254.605C91.2209 254.373 89.9862 254.05 89.7281 254.613Z" fill="white"/>
<path d="M97.191 260.097C97.3583 259.805 97.5731 259.468 97.8298 259.11M101.473 256.606C100.823 256.657 99.7335 256.917 99.1997 257.467M99.1997 257.467L93.4249 255.232M99.1997 257.467C98.666 258.017 98.2035 258.587 97.8298 259.11M92.5842 256.932L90.893 256.173C90.3972 255.888 89.47 255.177 89.7281 254.613C89.9862 254.05 91.2209 254.373 91.8061 254.605L93.4249 255.232M92.5842 256.932L93.4249 255.232M92.5842 256.932L97.8298 259.11" stroke="black" stroke-width="1.125" stroke-linecap="round" stroke-linejoin="round"/>
</svg>
