<svg width="240" height="331" viewBox="0 0 240 331" fill="none" xmlns="http://www.w3.org/2000/svg">
<path d="M82 277.12V257.321C82.7481 253.317 91.3948 245.307 119.997 245.307C148.599 245.307 157.245 253.317 157.994 257.321V276.448C156.949 277.572 155.041 279.039 152.235 280.52L149.49 322.041C147.792 324.742 139.517 330.144 119.997 330.144C100.476 330.144 91.8047 324.742 89.9089 322.041L87.3051 280.52C84.7461 279.266 82.9869 278.053 82 277.12Z" fill="#E6703F"/>
<path d="M157.994 257.321C157.994 264.117 140.982 269.627 119.997 269.627C99.0117 269.627 82 264.117 82 257.321M157.994 257.321V276.448C156.949 277.572 155.041 279.039 152.235 280.52M157.994 257.321C157.245 253.317 148.599 245.307 119.997 245.307C91.3948 245.307 82.7481 253.317 82 257.321M82 257.321V277.12C82.9869 278.053 84.7461 279.266 87.3051 280.52M87.3051 280.52C93.4548 283.534 104.224 286.787 119.997 286.97C135.389 287.149 146.016 283.802 152.235 280.52M87.3051 280.52L89.9089 322.041C91.8047 324.742 100.476 330.144 119.997 330.144C139.517 330.144 147.792 324.742 149.49 322.041L152.235 280.52" stroke="black" stroke-width="1.125"/>
<path d="M151.617 257.321C151.617 258.306 150.914 259.369 149.335 260.436C147.776 261.49 145.483 262.461 142.599 263.286C136.838 264.933 128.847 265.959 119.997 265.959C111.147 265.959 103.156 264.933 97.3951 263.286C94.5109 262.461 92.2177 261.49 90.6585 260.436C89.0797 259.369 88.377 258.306 88.377 257.321C88.377 256.336 89.0797 255.273 90.6585 254.206C92.2177 253.152 94.5109 252.181 97.3951 251.357C103.156 249.71 111.147 248.684 119.997 248.684C128.847 248.684 136.838 249.71 142.599 251.357C145.483 252.181 147.776 253.152 149.335 254.206C150.914 255.273 151.617 256.336 151.617 257.321Z" fill="#3A2314" stroke="black" stroke-width="1.125"/>
<path fill-rule="evenodd" clip-rule="evenodd" d="M98.9214 226.98C105.335 223.614 122.879 215.414 138.27 218.492C157.509 222.34 165.685 233.402 167.128 243.021C168.571 252.641 168.571 256.969 159.433 262.501C157.52 263.658 156.081 264.647 154.865 265.483C150.272 268.642 148.857 269.614 137.067 269.234C133.436 269.117 129.243 269.029 124.961 268.939C111.661 268.66 97.504 268.364 96.6658 267.117C96.256 266.508 96.0437 265.844 95.9467 265.245C94.6205 266.403 90.7359 269.093 85.8073 270.587C82.7629 271.509 81.3684 270.115 80.8212 268.33C79.9318 268.833 77.0473 269.821 72.6245 269.747C68.2018 269.672 70.7817 265.041 72.6245 262.735C64.5792 258.484 65.2497 249.285 66.8455 244.705C66.4989 243.395 65.9996 241.816 65.4718 240.148C63.5735 234.145 61.3072 226.98 64.4551 226.98C66.3867 226.98 73.2585 232.306 76.4649 234.8C78.721 233.14 84.041 230.035 87.2731 230.89C88.5486 226.64 91.5842 218.209 93.5231 218.481C94.8597 218.668 97.1045 222.921 98.9214 226.98Z" fill="#CFBFA5"/>
<path d="M107.007 241.135C105.908 235.981 102.91 232.999 100.994 231.959C99.3119 227.58 95.462 218.753 93.5231 218.481M107.007 241.135C107.517 243.531 107.617 246.397 107.007 249.755C106.45 252.815 105.323 255.438 103.731 257.614M107.007 241.135C112.698 235.788 126.678 225.78 137.067 228.526M95.9467 263.603C96.4773 261.573 98.7772 257.534 103.731 257.614M95.9467 263.603C91.6015 265.4 86.309 265.888 80.5883 265.024M95.9467 263.603C95.8769 263.938 95.8338 264.548 95.9467 265.245M103.731 257.614C108.797 257.491 119.729 257.491 122.929 258.484C126.929 259.726 132.17 261.105 137.962 260.346C142.597 259.74 145.916 257.335 146.996 256.209M80.5883 265.024C79.2355 264.82 77.8587 264.54 76.4649 264.184C75.0059 263.811 73.7326 263.32 72.6245 262.735M80.5883 265.024C80.4683 265.971 80.4824 267.225 80.8212 268.33M95.9467 265.245C96.0437 265.844 96.256 266.508 96.6658 267.117C97.504 268.364 111.661 268.66 124.961 268.939C129.243 269.029 133.436 269.117 137.067 269.234C148.857 269.614 150.272 268.642 154.865 265.483C156.081 264.647 157.52 263.658 159.433 262.501C168.571 256.969 168.571 252.641 167.128 243.021C165.685 233.402 157.509 222.34 138.27 218.492C122.879 215.414 105.335 223.614 98.9214 226.98C97.1045 222.921 94.8597 218.668 93.5231 218.481M95.9467 265.245C94.6205 266.403 90.7359 269.093 85.8073 270.587C82.7629 271.509 81.3684 270.115 80.8212 268.33M72.6245 262.735C64.5792 258.484 65.2497 249.285 66.8455 244.705C66.4989 243.395 65.9996 241.816 65.4718 240.148C63.5735 234.145 61.3072 226.98 64.4551 226.98C66.3867 226.98 73.2585 232.306 76.4649 234.8C78.721 233.14 84.041 230.035 87.2731 230.89C88.5486 226.64 91.5842 218.209 93.5231 218.481M72.6245 262.735C70.7817 265.041 68.2018 269.672 72.6245 269.747C77.0473 269.821 79.9318 268.833 80.8212 268.33M80.8212 256.179C81.1017 255.851 81.5593 255.429 82.1583 255.032C83.0044 254.471 84.1327 253.957 85.4428 253.822C86.0204 253.762 86.6334 253.776 87.2731 253.891M97.8785 248.205C97.9627 247.763 98.1082 247.215 98.3198 246.646C98.6527 245.749 99.149 244.797 99.8266 244.113C100.461 243.471 101.255 243.065 102.223 243.158" stroke="black" stroke-width="1.125" stroke-linecap="round" stroke-linejoin="round"/>
<path d="M91.2171 230.387C92.6332 231.504 95.2676 231.617 96.4078 231.533C97.2078 229.975 95.1788 224.04 93.6013 223.962C92.3393 223.899 91.486 228.219 91.2171 230.387Z" fill="#E7A7AB" stroke="black" stroke-width="1.125"/>
<path d="M72.4456 236.075C71.8153 237.763 69.6234 239.226 68.6062 239.746C67.1147 238.83 65.7697 232.708 67.0766 231.823C68.1222 231.115 71.0916 234.362 72.4456 236.075Z" fill="#E7A7AB" stroke="black" stroke-width="1.125"/>
<path d="M95.9714 255.252L93.332 254.272L95.9714 252.085V255.252Z" fill="#E7A7AB"/>
<path d="M95.9714 255.252L93.332 254.272L95.9714 252.085V255.252ZM95.9714 255.252C96.273 256.006 96.6953 257.741 95.9714 258.646M95.9714 255.252C96.7255 256.057 98.5052 257.424 99.5911 256.459" stroke="black" stroke-width="1.125" stroke-linecap="round" stroke-linejoin="round"/>
<path d="M84.7875 236.345C84.4674 236.729 83.6073 237.277 82.2639 237.121L77.2184 223.033C74.7023 227.203 67.7072 233.431 59.8565 224.975C61.2607 220.827 66.3053 213.625 75.2502 218.006C75.3275 217.058 75.9636 215.54 77.8896 217.047C78.8537 213.48 83.2156 207.667 92.9499 212.957C92.7914 217.531 89.951 225.759 79.8578 222.074L84.7875 236.345Z" fill="#448E60"/>
<path d="M77.8896 217.047C75.9636 215.54 75.3275 217.058 75.2502 218.006M77.8896 217.047C78.8537 213.48 83.2156 207.667 92.9499 212.957C92.7914 217.531 89.951 225.759 79.8578 222.074M77.8896 217.047L79.1925 220.375M75.2502 218.006C66.3053 213.625 61.2607 220.827 59.8565 224.975C67.7072 233.431 74.7023 227.203 77.2184 223.033M75.2502 218.006L76.2343 220.519M79.8578 222.074L84.7875 236.345C84.4674 236.729 83.6073 237.277 82.2639 237.121L77.2184 223.033M79.8578 222.074L79.1925 220.375M79.1925 220.375C79.5264 218.639 82.0753 214.968 89.6 214.173M77.2184 223.033L76.2343 220.519M63.603 224.534C64.9077 222.373 69.2606 218.545 76.2343 220.519" stroke="black" stroke-width="1.125" stroke-linecap="round" stroke-linejoin="round"/>
</svg>
