<svg width="241" height="331" viewBox="0 0 241 331" fill="none" xmlns="http://www.w3.org/2000/svg">
<path d="M82.499 276.976V257.177C83.2471 253.172 91.8938 245.162 120.496 245.162C149.098 245.162 157.744 253.172 158.493 257.177V276.303C157.448 277.427 155.54 278.895 152.734 280.375L149.989 321.897C148.291 324.598 140.016 330 120.496 330C100.975 330 92.3037 324.598 90.408 321.897L87.8041 280.375C85.2451 279.121 83.486 277.909 82.499 276.976Z" fill="#E6703F"/>
<path d="M158.493 257.177C158.493 263.973 141.481 269.482 120.496 269.482C99.5108 269.482 82.499 263.973 82.499 257.177M158.493 257.177V276.303C157.448 277.427 155.54 278.895 152.734 280.375M158.493 257.177C157.744 253.172 149.098 245.162 120.496 245.162C91.8938 245.162 83.2471 253.172 82.499 257.177M82.499 257.177V276.976C83.486 277.909 85.2451 279.121 87.8041 280.375M87.8041 280.375C93.9538 283.389 104.723 286.642 120.496 286.826C135.888 287.005 146.515 283.657 152.734 280.375M87.8041 280.375L90.408 321.897C92.3037 324.598 100.975 330 120.496 330C140.016 330 148.291 324.598 149.989 321.897L152.734 280.375" stroke="black" stroke-width="1.125"/>
<path d="M152.116 257.177C152.116 258.162 151.413 259.225 149.834 260.292C148.275 261.346 145.982 262.317 143.098 263.142C137.337 264.788 129.346 265.815 120.496 265.815C111.646 265.815 103.655 264.788 97.8941 263.142C95.0099 262.317 92.7167 261.346 91.1575 260.292C89.5787 259.225 88.876 258.162 88.876 257.177C88.876 256.192 89.5787 255.129 91.1575 254.062C92.7167 253.008 95.0099 252.037 97.8941 251.213C103.655 249.566 111.646 248.54 120.496 248.54C129.346 248.54 137.337 249.566 143.098 251.213C145.982 252.037 148.275 253.008 149.834 254.062C151.413 255.129 152.116 256.192 152.116 257.177Z" fill="#3A2314" stroke="black" stroke-width="1.125"/>
</svg>
